Auvaiyar-Italic.ufo
<glyph name="exclam" format="2">
  <advance width="304"/>
  <unicode hex="0021"/>
  <outline>
    <contour>
      <point x="267" y="568" type="curve"/>
      <point x="267" y="599"/>
      <point x="252" y="614"/>
      <point x="222" y="614" type="curve" smooth="yes"/>
      <point x="172" y="614"/>
      <point x="156" y="586"/>
      <point x="150" y="540" type="curve"/>
      <point x="104" y="152" type="line"/>
      <point x="161" y="152" type="line"/>
      <point x="177" y="216"/>
      <point x="267" y="568"/>
    </contour>
    <contour>
      <point x="176" y="43" type="curve" smooth="yes"/>
      <point x="176" y="76"/>
      <point x="148" y="97"/>
      <point x="116" y="97" type="curve" smooth="yes"/>
      <point x="84" y="97"/>
      <point x="59" y="75"/>
      <point x="59" y="43" type="curve" smooth="yes"/>
      <point x="59" y="10"/>
      <point x="90" y="-7"/>
      <point x="116" y="-7" type="curve" smooth="yes"/>
      <point x="152" y="-7"/>
      <point x="176" y="15"/>
    </contour>
  </outline>
</glyph>
<glyph name="quotedbl" format="2">
  <advance width="297"/>
  <unicode hex="0022"/>
  <outline>
    <contour>
      <point x="338" y="608" type="curve" smooth="yes"/>
      <point x="338" y="630"/>
      <point x="322" y="642"/>
      <point x="300" y="642" type="curve" smooth="yes"/>
      <point x="260" y="642"/>
      <point x="247" y="616"/>
      <point x="244" y="580" type="curve"/>
      <point x="233" y="379" type="line"/>
      <point x="262" y="379" type="line"/>
      <point x="271" y="404"/>
      <point x="338" y="589"/>
    </contour>
    <contour>
      <point x="193" y="608" type="curve" smooth="yes"/>
      <point x="193" y="630"/>
      <point x="177" y="642"/>
      <point x="156" y="642" type="curve" smooth="yes"/>
      <point x="116" y="642"/>
      <point x="103" y="616"/>
      <point x="101" y="580" type="curve" smooth="yes"/>
      <point x="90" y="379" type="line"/>
      <point x="118" y="379" type="line"/>
      <point x="127" y="404"/>
      <point x="193" y="589"/>
    </contour>
  </outline>
</glyph>
<glyph name="numbersign" format="2">
  <advance width="668"/>
  <unicode hex="0023"/>
  <outline>
    <contour>
      <point x="626" y="378" type="line"/>
      <point x="626" y="424" type="line"/>
      <point x="500" y="424" type="line"/>
      <point x="568" y="622" type="line"/>
      <point x="522" y="637" type="line"/>
      <point x="450" y="424" type="line"/>
      <point x="319" y="424" type="line"/>
      <point x="388" y="622" type="line"/>
      <point x="341" y="637" type="line"/>
      <point x="269" y="424" type="line"/>
      <point x="109" y="424" type="line"/>
      <point x="109" y="378" type="line"/>
      <point x="254" y="378" type="line"/>
      <point x="210" y="250" type="line"/>
      <point x="68" y="250" type="line"/>
      <point x="68" y="205" type="line"/>
      <point x="195" y="205" type="line"/>
      <point x="124" y="-5" type="line"/>
      <point x="169" y="-20" type="line"/>
      <point x="245" y="205" type="line"/>
      <point x="376" y="205" type="line"/>
      <point x="304" y="-6" type="line"/>
      <point x="350" y="-20" type="line"/>
      <point x="426" y="205" type="line"/>
      <point x="586" y="205" type="line"/>
      <point x="586" y="250" type="line"/>
      <point x="442" y="250" type="line"/>
      <point x="485" y="378" type="line"/>
    </contour>
    <contour>
      <point x="434" y="378" type="line"/>
      <point x="391" y="250" type="line"/>
      <point x="261" y="250" type="line"/>
      <point x="304" y="378" type="line"/>
    </contour>
  </outline>
</glyph>
<glyph name="dollar" format="2">
  <advance width="393"/>
  <unicode hex="0024"/>
  <outline>
    <contour>
      <point x="267" y="595" type="line"/>
      <point x="255" y="606" type="line"/>
      <point x="240" y="602"/>
      <point x="236" y="597"/>
      <point x="221" y="587" type="curve"/>
      <point x="129" y="-64" type="line"/>
      <point x="140" y="-76" type="line"/>
      <point x="154" y="-72"/>
      <point x="165" y="-67"/>
      <point x="175" y="-58" type="curve"/>
    </contour>
    <contour>
      <point x="381" y="502" type="curve"/>
      <point x="352" y="522"/>
      <point x="308" y="540"/>
      <point x="261" y="540" type="curve" smooth="yes"/>
      <point x="121" y="540"/>
      <point x="51" y="460"/>
      <point x="51" y="386" type="curve" smooth="yes"/>
      <point x="51" y="332"/>
      <point x="86" y="293"/>
      <point x="160" y="261" type="curve" smooth="yes"/>
      <point x="245" y="225"/>
      <point x="278" y="196"/>
      <point x="278" y="150" type="curve" smooth="yes"/>
      <point x="278" y="88"/>
      <point x="231" y="46"/>
      <point x="163" y="46" type="curve" smooth="yes"/>
      <point x="85" y="46"/>
      <point x="63" y="134"/>
      <point x="47" y="134" type="curve" smooth="yes"/>
      <point x="30" y="134"/>
      <point x="-4" y="70"/>
      <point x="-4" y="54" type="curve" smooth="yes"/>
      <point x="-4" y="23"/>
      <point x="78" y="-13"/>
      <point x="128" y="-13" type="curve" smooth="yes"/>
      <point x="268" y="-13"/>
      <point x="355" y="79"/>
      <point x="355" y="183" type="curve" smooth="yes"/>
      <point x="355" y="253"/>
      <point x="308" y="288"/>
      <point x="217" y="329" type="curve" smooth="yes"/>
      <point x="142" y="362"/>
      <point x="127" y="387"/>
      <point x="127" y="417" type="curve" smooth="yes"/>
      <point x="127" y="454"/>
      <point x="165" y="491"/>
      <point x="220" y="491" type="curve" smooth="yes"/>
      <point x="269" y="491"/>
      <point x="301" y="459"/>
      <point x="315" y="423" type="curve"/>
      <point x="336" y="420" type="line"/>
      <point x="347" y="426"/>
      <point x="388" y="498"/>
    </contour>
  </outline>
</glyph>
<glyph name="quotesingle" format="2">
  <advance width="152"/>
  <unicode hex="0027"/>
  <outline>
    <contour>
      <point x="198" y="608" type="curve" smooth="yes"/>
      <point x="198" y="630"/>
      <point x="181" y="642"/>
      <point x="159" y="642" type="curve" smooth="yes"/>
      <point x="117" y="642"/>
      <point x="104" y="616"/>
      <point x="101" y="580" type="curve"/>
      <point x="90" y="379" type="line"/>
      <point x="119" y="379" type="line"/>
      <point x="128" y="404"/>
      <point x="198" y="589"/>
    </contour>
  </outline>
</glyph>
<glyph name="parenleft" format="2">
  <advance width="377"/>
  <unicode hex="0028"/>
  <outline>
    <contour>
      <point x="420" y="645" type="line"/>
      <point x="178" y="624"/>
      <point x="63" y="340"/>
      <point x="63" y="125" type="curve" smooth="yes"/>
      <point x="63" y="-21"/>
      <point x="150" y="-121"/>
      <point x="271" y="-128" type="curve"/>
      <point x="279" y="-87" type="line"/>
      <point x="208" y="-72"/>
      <point x="152" y="-25"/>
      <point x="152" y="108" type="curve" smooth="yes"/>
      <point x="152" y="244"/>
      <point x="213" y="577"/>
      <point x="412" y="604" type="curve"/>
    </contour>
  </outline>
</glyph>
<glyph name="parenright" format="2">
  <advance width="376"/>
  <unicode hex="0029"/>
  <outline>
    <contour>
      <point x="312" y="399" type="curve" smooth="yes"/>
      <point x="312" y="447"/>
      <point x="297" y="624"/>
      <point x="105" y="645" type="curve"/>
      <point x="97" y="604" type="line"/>
      <point x="208" y="586"/>
      <point x="224" y="468"/>
      <point x="224" y="413" type="curve" smooth="yes"/>
      <point x="224" y="298"/>
      <point x="173" y="-58"/>
      <point x="-35" y="-86" type="curve"/>
      <point x="-43" y="-129" type="line"/>
      <point x="157" y="-105"/>
      <point x="312" y="101"/>
    </contour>
  </outline>
</glyph>
<glyph name="comma" format="2">
  <advance width="220"/>
  <unicode hex="002C"/>
  <outline>
    <contour>
      <point x="100" y="126" type="curve" smooth="yes"/>
      <point x="68" y="126"/>
      <point x="28" y="92"/>
      <point x="28" y="57" type="curve" smooth="yes"/>
      <point x="28" y="29"/>
      <point x="46" y="7"/>
      <point x="64" y="7" type="curve" smooth="yes"/>
      <point x="78" y="7"/>
      <point x="101" y="26"/>
      <point x="113" y="26" type="curve" smooth="yes"/>
      <point x="120" y="26"/>
      <point x="123" y="22"/>
      <point x="122" y="14" type="curve" smooth="yes"/>
      <point x="110" y="-43"/>
      <point x="22" y="-93"/>
      <point x="3" y="-93" type="curve"/>
      <point x="-3" y="-120" type="line"/>
      <point x="45" y="-120"/>
      <point x="163" y="-37"/>
      <point x="163" y="54" type="curve" smooth="yes"/>
      <point x="163" y="85"/>
      <point x="147" y="126"/>
    </contour>
  </outline>
</glyph>
<glyph name="hyphen" format="2">
  <advance width="443"/>
  <unicode hex="002D"/>
  <outline>
    <contour>
      <point x="454" y="231" type="curve" smooth="yes"/>
      <point x="454" y="259"/>
      <point x="425" y="261"/>
      <point x="416" y="261" type="curve" smooth="yes"/>
      <point x="136" y="261" type="line" smooth="yes"/>
      <point x="100" y="261"/>
      <point x="85" y="237"/>
      <point x="85" y="221" type="curve" smooth="yes"/>
      <point x="85" y="192"/>
      <point x="117" y="191"/>
      <point x="122" y="191" type="curve" smooth="yes"/>
      <point x="402" y="191" type="line" smooth="yes"/>
      <point x="440" y="191"/>
      <point x="454" y="216"/>
    </contour>
  </outline>
</glyph>
<glyph name="zero" format="2">
  <advance width="500"/>
  <unicode hex="0030"/>
  <outline>
    <contour>
      <point x="495" y="415" type="curve" smooth="yes"/>
      <point x="495" y="529"/>
      <point x="442" y="618"/>
      <point x="322" y="618" type="curve" smooth="yes"/>
      <point x="128" y="618"/>
      <point x="30" y="377"/>
      <point x="30" y="187" type="curve" smooth="yes"/>
      <point x="30" y="59"/>
      <point x="93" y="-14"/>
      <point x="205" y="-14" type="curve" smooth="yes"/>
      <point x="382" y="-14"/>
      <point x="495" y="205"/>
    </contour>
    <contour>
      <point x="398" y="431" type="curve" smooth="yes"/>
      <point x="398" y="261"/>
      <point x="320" y="32"/>
      <point x="214" y="32" type="curve" smooth="yes"/>
      <point x="181" y="32"/>
      <point x="128" y="49"/>
      <point x="128" y="172" type="curve" smooth="yes"/>
      <point x="128" y="341"/>
      <point x="202" y="572"/>
      <point x="314" y="572" type="curve" smooth="yes"/>
      <point x="360" y="572"/>
      <point x="398" y="529"/>
    </contour>
  </outline>
</glyph>
<glyph name="two" format="2">
  <advance width="500"/>
  <unicode hex="0032"/>
  <outline>
    <contour>
      <point x="481" y="484" type="curve" smooth="yes"/>
      <point x="481" y="580"/>
      <point x="408" y="618"/>
      <point x="315" y="618" type="curve" smooth="yes"/>
      <point x="194" y="618"/>
      <point x="92" y="542"/>
      <point x="92" y="475" type="curve" smooth="yes"/>
      <point x="92" y="443"/>
      <point x="122" y="436"/>
      <point x="142" y="436" type="curve" smooth="yes"/>
      <point x="170" y="436"/>
      <point x="186" y="448"/>
      <point x="192" y="452" type="curve"/>
      <point x="211" y="547" type="line"/>
      <point x="225" y="554"/>
      <point x="254" y="568"/>
      <point x="286" y="568" type="curve" smooth="yes"/>
      <point x="337" y="568"/>
      <point x="377" y="541"/>
      <point x="377" y="473" type="curve" smooth="yes"/>
      <point x="377" y="341"/>
      <point x="252" y="243"/>
      <point x="-7" y="58" type="curve"/>
      <point x="-18" y="0" type="line"/>
      <point x="413" y="0" type="line"/>
      <point x="441" y="151" type="line"/>
      <point x="387" y="151" type="line"/>
      <point x="356" y="74" type="line"/>
      <point x="104" y="74" type="line"/>
      <point x="186" y="132"/>
      <point x="268" y="186"/>
      <point x="343" y="252" type="curve" smooth="yes"/>
      <point x="420" y="321"/>
      <point x="481" y="402"/>
    </contour>
  </outline>
</glyph>
<glyph name="three" format="2">
  <advance width="500"/>
  <unicode hex="0033"/>
  <outline>
    <contour>
      <point x="481" y="490" type="curve" smooth="yes"/>
      <point x="481" y="573"/>
      <point x="422" y="618"/>
      <point x="318" y="618" type="curve" smooth="yes"/>
      <point x="210" y="618"/>
      <point x="98" y="563"/>
      <point x="98" y="491" type="curve" smooth="yes"/>
      <point x="98" y="461"/>
      <point x="123" y="447"/>
      <point x="145" y="447" type="curve" smooth="yes"/>
      <point x="162" y="447"/>
      <point x="187" y="456"/>
      <point x="195" y="458" type="curve"/>
      <point x="208" y="544" type="line"/>
      <point x="220" y="553"/>
      <point x="250" y="572"/>
      <point x="288" y="572" type="curve" smooth="yes"/>
      <point x="323" y="572"/>
      <point x="379" y="548"/>
      <point x="379" y="479" type="curve" smooth="yes"/>
      <point x="379" y="395"/>
      <point x="304" y="333"/>
      <point x="188" y="339" type="curve"/>
      <point x="181" y="283" type="line"/>
      <point x="201" y="286"/>
      <point x="221" y="289"/>
      <point x="243" y="289" type="curve" smooth="yes"/>
      <point x="276" y="289"/>
      <point x="344" y="277"/>
      <point x="344" y="192" type="curve" smooth="yes"/>
      <point x="344" y="102"/>
      <point x="270" y="31"/>
      <point x="183" y="31" type="curve" smooth="yes"/>
      <point x="150" y="31"/>
      <point x="124" y="46"/>
      <point x="116" y="52" type="curve"/>
      <point x="102" y="128" type="line"/>
      <point x="91" y="133"/>
      <point x="78" y="136"/>
      <point x="62" y="136" type="curve" smooth="yes"/>
      <point x="20" y="136"/>
      <point x="7" y="101"/>
      <point x="7" y="84" type="curve" smooth="yes"/>
      <point x="7" y="44"/>
      <point x="51" y="-14"/>
      <point x="173" y="-14" type="curve" smooth="yes"/>
      <point x="327" y="-14"/>
      <point x="444" y="91"/>
      <point x="444" y="206" type="curve" smooth="yes"/>
      <point x="444" y="277"/>
      <point x="394" y="310"/>
      <point x="315" y="322" type="curve"/>
      <point x="430" y="357"/>
      <point x="481" y="426"/>
    </contour>
  </outline>
</glyph>
<glyph name="four" format="2">
  <advance width="509"/>
  <unicode hex="0034"/>
  <outline>
    <contour>
      <point x="76" y="152" type="curve"/>
      <point x="128" y="187"/>
      <point x="244" y="305"/>
      <point x="290" y="363" type="curve"/>
      <point x="283" y="339"/>
      <point x="277" y="315"/>
      <point x="271" y="291" type="curve" smooth="yes"/>
      <point x="262" y="262"/>
      <point x="249" y="219"/>
      <point x="231" y="162" type="curve"/>
      <point x="179" y="162"/>
      <point x="109" y="152"/>
    </contour>
    <contour>
      <point x="439" y="169" type="curve" smooth="yes"/>
      <point x="439" y="177"/>
      <point x="434" y="181"/>
      <point x="424" y="181" type="curve" smooth="yes"/>
      <point x="404" y="181"/>
      <point x="372" y="157"/>
      <point x="343" y="157" type="curve" smooth="yes"/>
      <point x="338" y="157" type="line"/>
      <point x="355" y="222"/>
      <point x="368" y="272"/>
      <point x="376" y="312" type="curve" smooth="yes"/>
      <point x="394" y="396"/>
      <point x="435" y="426"/>
      <point x="435" y="440" type="curve" smooth="yes"/>
      <point x="435" y="447"/>
      <point x="429" y="450"/>
      <point x="417" y="450" type="curve" smooth="yes"/>
      <point x="352" y="450"/>
      <point x="332" y="436"/>
      <point x="319" y="423" type="curve" smooth="yes"/>
      <point x="139" y="239"/>
      <point x="96" y="202"/>
      <point x="37" y="152" type="curve" smooth="yes"/>
      <point x="32" y="145"/>
      <point x="29" y="138"/>
      <point x="29" y="133" type="curve" smooth="yes"/>
      <point x="29" y="124"/>
      <point x="35" y="119"/>
      <point x="46" y="119" type="curve" smooth="yes"/>
      <point x="222" y="123" type="line"/>
      <point x="201" y="45"/>
      <point x="166" y="18"/>
      <point x="166" y="6" type="curve" smooth="yes"/>
      <point x="166" y="-1"/>
      <point x="172" y="-4"/>
      <point x="184" y="-4" type="curve" smooth="yes"/>
      <point x="215" y="-4"/>
      <point x="243" y="6"/>
      <point x="270" y="26" type="curve" smooth="yes"/>
      <point x="300" y="49"/>
      <point x="320" y="81"/>
      <point x="331" y="123" type="curve"/>
      <point x="347" y="123" type="line" smooth="yes"/>
      <point x="382" y="123"/>
      <point x="439" y="146"/>
    </contour>
  </outline>
</glyph>
<glyph name="five" format="2">
  <advance width="500"/>
  <unicode hex="0035"/>
  <outline>
    <contour>
      <point x="487" y="603" type="line"/>
      <point x="158" y="603" type="line"/>
      <point x="97" y="307" type="line"/>
      <point x="122" y="310"/>
      <point x="170" y="315"/>
      <point x="195" y="315" type="curve" smooth="yes"/>
      <point x="269" y="315"/>
      <point x="344" y="291"/>
      <point x="344" y="201" type="curve" smooth="yes"/>
      <point x="344" y="112"/>
      <point x="270" y="31"/>
      <point x="180" y="31" type="curve" smooth="yes"/>
      <point x="158" y="31"/>
      <point x="140" y="37"/>
      <point x="121" y="43" type="curve"/>
      <point x="97" y="120" type="line"/>
      <point x="90" y="122"/>
      <point x="79" y="124"/>
      <point x="69" y="124" type="curve" smooth="yes"/>
      <point x="29" y="124"/>
      <point x="8" y="97"/>
      <point x="8" y="69" type="curve" smooth="yes"/>
      <point x="8" y="18"/>
      <point x="63" y="-14"/>
      <point x="159" y="-14" type="curve" smooth="yes"/>
      <point x="314" y="-14"/>
      <point x="439" y="95"/>
      <point x="439" y="225" type="curve" smooth="yes"/>
      <point x="439" y="333"/>
      <point x="352" y="370"/>
      <point x="269" y="370" type="curve" smooth="yes"/>
      <point x="230" y="370"/>
      <point x="199" y="362"/>
      <point x="177" y="356" type="curve"/>
      <point x="212" y="530" type="line"/>
      <point x="474" y="530" type="line"/>
    </contour>
  </outline>
</glyph>
<glyph name="six" format="2">
  <advance width="374"/>
  <unicode hex="0036"/>
  <outline>
    <contour>
      <point x="165" y="0" type="curve" smooth="yes"/>
      <point x="219" y="0"/>
      <point x="260" y="17"/>
      <point x="289" y="50" type="curve" smooth="yes"/>
      <point x="335" y="103"/>
      <point x="341" y="188"/>
      <point x="341" y="189" type="curve" smooth="yes"/>
      <point x="341" y="281"/>
      <point x="221" y="284"/>
      <point x="208" y="284" type="curve" smooth="yes"/>
      <point x="175" y="284"/>
      <point x="146" y="278"/>
      <point x="121" y="265" type="curve"/>
      <point x="132" y="304"/>
      <point x="154" y="337"/>
      <point x="187" y="364" type="curve" smooth="yes"/>
      <point x="226" y="395"/>
      <point x="273" y="410"/>
      <point x="328" y="410" type="curve" smooth="yes"/>
      <point x="351" y="410"/>
      <point x="362" y="418"/>
      <point x="362" y="433" type="curve" smooth="yes"/>
      <point x="362" y="444"/>
      <point x="354" y="450"/>
      <point x="339" y="450" type="curve" smooth="yes"/>
      <point x="54" y="450"/>
      <point x="44" y="144"/>
      <point x="44" y="101" type="curve" smooth="yes"/>
      <point x="44" y="20"/>
      <point x="90" y="0"/>
    </contour>
    <contour>
      <point x="172" y="230" type="curve" smooth="yes"/>
      <point x="225" y="230"/>
      <point x="228" y="193"/>
      <point x="228" y="175" type="curve" smooth="yes"/>
      <point x="228" y="167"/>
      <point x="227" y="157"/>
      <point x="225" y="146" type="curve" smooth="yes"/>
      <point x="207" y="61"/>
      <point x="184" y="40"/>
      <point x="131" y="40" type="curve" smooth="yes"/>
      <point x="105" y="40"/>
      <point x="92" y="62"/>
      <point x="92" y="107" type="curve" smooth="yes"/>
      <point x="92" y="162"/>
      <point x="106" y="230"/>
    </contour>
  </outline>
</glyph>
<glyph name="seven" format="2">
  <advance width="500"/>
  <unicode hex="0037"/>
  <outline>
    <contour>
      <point x="543" y="603" type="line"/>
      <point x="115" y="603" type="line"/>
      <point x="84" y="450" type="line"/>
      <point x="142" y="450" type="line"/>
      <point x="170" y="530" type="line"/>
      <point x="432" y="530" type="line"/>
      <point x="32" y="-33" type="line"/>
      <point x="121" y="-33" type="line"/>
      <point x="127" y="-12" type="line"/>
      <point x="536" y="565" type="line"/>
    </contour>
  </outline>
</glyph>
<glyph name="eight" format="2">
  <advance width="500"/>
  <unicode hex="0038"/>
  <outline>
    <contour>
      <point x="476" y="491" type="curve" smooth="yes"/>
      <point x="476" y="562"/>
      <point x="420" y="618"/>
      <point x="312" y="618" type="curve" smooth="yes"/>
      <point x="176" y="618"/>
      <point x="92" y="529"/>
      <point x="92" y="430" type="curve" smooth="yes"/>
      <point x="92" y="394"/>
      <point x="104" y="351"/>
      <point x="165" y="318" type="curve"/>
      <point x="50" y="268"/>
      <point x="13" y="191"/>
      <point x="13" y="133" type="curve" smooth="yes"/>
      <point x="13" y="44"/>
      <point x="81" y="-14"/>
      <point x="205" y="-14" type="curve" smooth="yes"/>
      <point x="345" y="-14"/>
      <point x="454" y="77"/>
      <point x="454" y="188" type="curve" smooth="yes"/>
      <point x="454" y="261"/>
      <point x="388" y="300"/>
      <point x="341" y="321" type="curve"/>
      <point x="414" y="354"/>
      <point x="476" y="395"/>
    </contour>
    <contour>
      <point x="391" y="483" type="curve" smooth="yes"/>
      <point x="391" y="417"/>
      <point x="353" y="370"/>
      <point x="297" y="340" type="curve"/>
      <point x="227" y="370"/>
      <point x="182" y="400"/>
      <point x="182" y="450" type="curve" smooth="yes"/>
      <point x="182" y="518"/>
      <point x="236" y="575"/>
      <point x="304" y="575" type="curve" smooth="yes"/>
      <point x="358" y="575"/>
      <point x="391" y="538"/>
    </contour>
    <contour>
      <point x="358" y="163" type="curve" smooth="yes"/>
      <point x="358" y="98"/>
      <point x="297" y="34"/>
      <point x="221" y="34" type="curve" smooth="yes"/>
      <point x="146" y="34"/>
      <point x="103" y="86"/>
      <point x="103" y="149" type="curve" smooth="yes"/>
      <point x="103" y="214"/>
      <point x="147" y="262"/>
      <point x="206" y="294" type="curve"/>
      <point x="282" y="259"/>
      <point x="358" y="219"/>
    </contour>
  </outline>
</glyph>
<glyph name="colon" format="2">
  <advance width="235"/>
  <unicode hex="003A"/>
  <outline>
    <contour>
      <point x="232" y="343" type="curve" smooth="yes"/>
      <point x="232" y="372"/>
      <point x="212" y="394"/>
      <point x="180" y="394" type="curve" smooth="yes"/>
      <point x="139" y="394"/>
      <point x="103" y="357"/>
      <point x="103" y="319" type="curve" smooth="yes"/>
      <point x="103" y="272"/>
      <point x="146" y="270"/>
      <point x="153" y="270" type="curve" smooth="yes"/>
      <point x="193" y="270"/>
      <point x="232" y="306"/>
    </contour>
    <contour>
      <point x="172" y="63" type="curve" smooth="yes"/>
      <point x="172" y="92"/>
      <point x="152" y="114"/>
      <point x="120" y="114" type="curve" smooth="yes"/>
      <point x="82" y="114"/>
      <point x="44" y="82"/>
      <point x="44" y="40" type="curve" smooth="yes"/>
      <point x="44" y="10"/>
      <point x="64" y="-10"/>
      <point x="94" y="-10" type="curve" smooth="yes"/>
      <point x="132" y="-10"/>
      <point x="172" y="23"/>
    </contour>
  </outline>
</glyph>
<glyph name="semicolon" format="2">
  <advance width="251"/>
  <unicode hex="003B"/>
  <outline>
    <contour>
      <point x="202" y="384" type="curve" smooth="yes"/>
      <point x="202" y="417"/>
      <point x="174" y="444"/>
      <point x="141" y="444" type="curve" smooth="yes"/>
      <point x="108" y="444"/>
      <point x="80" y="417"/>
      <point x="80" y="384" type="curve" smooth="yes"/>
      <point x="80" y="351"/>
      <point x="108" y="323"/>
      <point x="141" y="323" type="curve" smooth="yes"/>
      <point x="174" y="323"/>
      <point x="202" y="351"/>
    </contour>
    <contour>
      <point x="143" y="43" type="curve" smooth="yes"/>
      <point x="143" y="80"/>
      <point x="126" y="109"/>
      <point x="84" y="109" type="curve" smooth="yes"/>
      <point x="48" y="109"/>
      <point x="15" y="72"/>
      <point x="15" y="36" type="curve" smooth="yes"/>
      <point x="15" y="26"/>
      <point x="18" y="14"/>
      <point x="24" y="6" type="curve"/>
      <point x="80" y="6" type="line"/>
      <point x="67" y="-68"/>
      <point x="30" y="-104"/>
      <point x="-43" y="-120" type="curve"/>
      <point x="-49" y="-152" type="line"/>
      <point x="48" y="-144"/>
      <point x="143" y="-59"/>
    </contour>
  </outline>
</glyph>
<glyph name="greater" format="2">
  <advance width="527"/>
  <unicode hex="003E"/>
  <outline>
    <contour>
      <point x="33" y="48" type="line"/>
      <point x="22" y="-6" type="line"/>
      <point x="465" y="178" type="line"/>
      <point x="475" y="227" type="line"/>
      <point x="110" y="410" type="line"/>
      <point x="99" y="356" type="line"/>
      <point x="404" y="202" type="line"/>
    </contour>
  </outline>
</glyph>
<glyph name="at" format="2">
  <advance width="729"/>
  <unicode hex="0040"/>
  <outline>
    <contour>
      <point x="694" y="241" type="curve"/>
      <point x="725" y="460"/>
      <point x="601" y="585"/>
      <point x="439" y="585" type="curve" smooth="yes"/>
      <point x="231" y="585"/>
      <point x="58" y="402"/>
      <point x="31" y="204" type="curve" smooth="yes"/>
      <point x="0" y="-20"/>
      <point x="139" y="-164"/>
      <point x="338" y="-164" type="curve" smooth="yes"/>
      <point x="462" y="-164"/>
      <point x="561" y="-97"/>
      <point x="606" y="-53" type="curve"/>
      <point x="594" y="-18" type="line"/>
      <point x="557" y="-48"/>
      <point x="463" y="-101"/>
      <point x="370" y="-101" type="curve" smooth="yes"/>
      <point x="223" y="-101"/>
      <point x="92" y="8"/>
      <point x="122" y="221" type="curve" smooth="yes"/>
      <point x="145" y="379"/>
      <point x="257" y="524"/>
      <point x="409" y="524" type="curve" smooth="yes"/>
      <point x="538" y="524"/>
      <point x="645" y="422"/>
      <point x="615" y="224" type="curve" smooth="yes"/>
      <point x="600" y="124"/>
      <point x="555" y="61"/>
      <point x="526" y="61" type="curve" smooth="yes"/>
      <point x="511" y="61"/>
      <point x="500" y="77"/>
      <point x="500" y="129" type="curve" smooth="yes"/>
      <point x="500" y="155"/>
      <point x="511" y="241"/>
      <point x="529" y="325" type="curve" smooth="yes"/>
      <point x="537" y="364"/>
      <point x="543" y="370"/>
      <point x="562" y="387" type="curve"/>
      <point x="550" y="411" type="line"/>
      <point x="511" y="392"/>
      <point x="449" y="365"/>
      <point x="443" y="338" type="curve" smooth="yes"/>
      <point x="437" y="304"/>
      <point x="410" y="157"/>
      <point x="410" y="123" type="curve" smooth="yes"/>
      <point x="410" y="6"/>
      <point x="445" y="-18"/>
      <point x="465" y="-18" type="curve" smooth="yes"/>
      <point x="535" y="-18"/>
      <point x="673" y="89"/>
    </contour>
    <contour>
      <point x="531" y="371" type="curve"/>
      <point x="511" y="373"/>
      <point x="475" y="411"/>
      <point x="435" y="411" type="curve" smooth="yes"/>
      <point x="398" y="411"/>
      <point x="346" y="391"/>
      <point x="314" y="370" type="curve" smooth="yes"/>
      <point x="232" y="313"/>
      <point x="190" y="226"/>
      <point x="190" y="134" type="curve" smooth="yes"/>
      <point x="190" y="24"/>
      <point x="248" y="-18"/>
      <point x="288" y="-18" type="curve" smooth="yes"/>
      <point x="334" y="-18"/>
      <point x="388" y="49"/>
      <point x="417" y="102" type="curve"/>
      <point x="426" y="185" type="line"/>
      <point x="386" y="114"/>
      <point x="346" y="59"/>
      <point x="322" y="59" type="curve" smooth="yes"/>
      <point x="299" y="59"/>
      <point x="276" y="97"/>
      <point x="276" y="166" type="curve" smooth="yes"/>
      <point x="276" y="235"/>
      <point x="315" y="354"/>
      <point x="388" y="354" type="curve" smooth="yes"/>
      <point x="431" y="354"/>
      <point x="469" y="292"/>
      <point x="486" y="292" type="curve" smooth="yes"/>
      <point x="500" y="292"/>
      <point x="506" y="353"/>
    </contour>
  </outline>
</glyph>
<glyph name="A" format="2">
  <advance width="605"/>
  <unicode hex="0041"/>
  <outline>
    <contour>
      <point x="563" y="0" type="line"/>
      <point x="563" y="37" type="line"/>
      <point x="549" y="39"/>
      <point x="535" y="40"/>
      <point x="522" y="42" type="curve" smooth="yes"/>
      <point x="509" y="43"/>
      <point x="505" y="47"/>
      <point x="504" y="59" type="curve" smooth="yes"/>
      <point x="406" y="618" type="line"/>
      <point x="334" y="618" type="line"/>
      <point x="2" y="43" type="line"/>
      <point x="-47" y="37" type="line"/>
      <point x="-47" y="0" type="line"/>
      <point x="145" y="0" type="line"/>
      <point x="145" y="37" type="line"/>
      <point x="132" y="39"/>
      <point x="118" y="40"/>
      <point x="104" y="42" type="curve" smooth="yes"/>
      <point x="87" y="43"/>
      <point x="80" y="47"/>
      <point x="87" y="59" type="curve" smooth="yes"/>
      <point x="179" y="231" type="line"/>
      <point x="383" y="231" type="line"/>
      <point x="410" y="59" type="line" smooth="yes"/>
      <point x="412" y="49"/>
      <point x="406" y="43"/>
      <point x="393" y="42" type="curve" smooth="yes"/>
      <point x="379" y="40"/>
      <point x="365" y="39"/>
      <point x="352" y="37" type="curve"/>
      <point x="352" y="0" type="line"/>
    </contour>
    <contour>
      <point x="375" y="273" type="line"/>
      <point x="203" y="273" type="line"/>
      <point x="336" y="507" type="line"/>
    </contour>
  </outline>
</glyph>
<glyph name="B" format="2">
  <advance width="546"/>
  <unicode hex="0042"/>
  <outline>
    <contour>
      <point x="516" y="488" type="curve" smooth="yes"/>
      <point x="516" y="558"/>
      <point x="468" y="603"/>
      <point x="338" y="603" type="curve" smooth="yes"/>
      <point x="85" y="603" type="line"/>
      <point x="85" y="566" type="line"/>
      <point x="135" y="561" type="line" smooth="yes"/>
      <point x="152" y="560"/>
      <point x="155" y="553"/>
      <point x="153" y="543" type="curve" smooth="yes"/>
      <point x="60" y="59" type="line" smooth="yes"/>
      <point x="58" y="48"/>
      <point x="54" y="43"/>
      <point x="43" y="42" type="curve" smooth="yes"/>
      <point x="-13" y="37" type="line"/>
      <point x="-13" y="0" type="line"/>
      <point x="232" y="0" type="line" smooth="yes"/>
      <point x="384" y="0"/>
      <point x="498" y="54"/>
      <point x="498" y="201" type="curve" smooth="yes"/>
      <point x="498" y="279"/>
      <point x="444" y="310"/>
      <point x="366" y="321" type="curve"/>
      <point x="449" y="348"/>
      <point x="516" y="395"/>
    </contour>
    <contour>
      <point x="416" y="482" type="curve" smooth="yes"/>
      <point x="416" y="401"/>
      <point x="359" y="332"/>
      <point x="246" y="332" type="curve" smooth="yes"/>
      <point x="238" y="332"/>
      <point x="217" y="333"/>
      <point x="204" y="333" type="curve"/>
      <point x="248" y="562" type="line"/>
      <point x="258" y="563"/>
      <point x="275" y="565"/>
      <point x="294" y="565" type="curve" smooth="yes"/>
      <point x="370" y="565"/>
      <point x="416" y="539"/>
    </contour>
    <contour>
      <point x="400" y="192" type="curve" smooth="yes"/>
      <point x="400" y="97"/>
      <point x="332" y="40"/>
      <point x="203" y="40" type="curve" smooth="yes"/>
      <point x="188" y="40"/>
      <point x="162" y="42"/>
      <point x="147" y="43" type="curve"/>
      <point x="195" y="287" type="line"/>
      <point x="214" y="290"/>
      <point x="240" y="292"/>
      <point x="262" y="292" type="curve" smooth="yes"/>
      <point x="347" y="292"/>
      <point x="400" y="266"/>
    </contour>
  </outline>
</glyph>
<glyph name="C" format="2">
  <advance width="566"/>
  <unicode hex="0043"/>
  <anchor x="270" y="0" name="H"/>
  <anchor x="396" y="659" name="U"/>
  <outline>
    <contour>
      <point x="579" y="582" type="line"/>
      <point x="510" y="604"/>
      <point x="463" y="618"/>
      <point x="405" y="618" type="curve" smooth="yes"/>
      <point x="190" y="618"/>
      <point x="43" y="431"/>
      <point x="43" y="240" type="curve" smooth="yes"/>
      <point x="43" y="112"/>
      <point x="114" y="-14"/>
      <point x="293" y="-14" type="curve" smooth="yes"/>
      <point x="366" y="-14"/>
      <point x="437" y="7"/>
      <point x="479" y="21" type="curve"/>
      <point x="503" y="167" type="line"/>
      <point x="450" y="167" type="line"/>
      <point x="411" y="64" type="line" smooth="yes"/>
      <point x="408" y="56"/>
      <point x="397" y="49"/>
      <point x="391" y="46" type="curve" smooth="yes"/>
      <point x="386" y="43"/>
      <point x="361" y="31"/>
      <point x="322" y="31" type="curve" smooth="yes"/>
      <point x="222" y="31"/>
      <point x="138" y="94"/>
      <point x="138" y="230" type="curve" smooth="yes"/>
      <point x="138" y="438"/>
      <point x="271" y="572"/>
      <point x="409" y="572" type="curve" smooth="yes"/>
      <point x="450" y="572"/>
      <point x="481" y="553"/>
      <point x="488" y="548" type="curve" smooth="yes"/>
      <point x="494" y="544"/>
      <point x="502" y="534"/>
      <point x="502" y="525" type="curve" smooth="yes"/>
      <point x="502" y="442" type="line"/>
      <point x="555" y="442" type="line"/>
    </contour>
  </outline>
</glyph>
<glyph name="D" format="2">
  <advance width="603"/>
  <unicode hex="0044"/>
  <outline>
    <contour>
      <point x="587" y="373" type="curve" smooth="yes"/>
      <point x="587" y="544"/>
      <point x="464" y="603"/>
      <point x="300" y="603" type="curve" smooth="yes"/>
      <point x="85" y="603" type="line"/>
      <point x="85" y="566" type="line"/>
      <point x="135" y="561" type="line" smooth="yes"/>
      <point x="152" y="560"/>
      <point x="155" y="553"/>
      <point x="153" y="543" type="curve" smooth="yes"/>
      <point x="60" y="59" type="line"/>
      <point x="57" y="48"/>
      <point x="54" y="43"/>
      <point x="42" y="42" type="curve" smooth="yes"/>
      <point x="-13" y="37" type="line"/>
      <point x="-13" y="0" type="line"/>
      <point x="198" y="0" type="line" smooth="yes"/>
      <point x="428" y="0"/>
      <point x="587" y="152"/>
    </contour>
    <contour>
      <point x="490" y="381" type="curve" smooth="yes"/>
      <point x="490" y="210"/>
      <point x="395" y="48"/>
      <point x="214" y="46" type="curve"/>
      <point x="148" y="46" type="line"/>
      <point x="247" y="558" type="line"/>
      <point x="279" y="558" type="line"/>
      <point x="391" y="555"/>
      <point x="490" y="531"/>
    </contour>
  </outline>
</glyph>
<glyph name="E" format="2">
  <advance width="502"/>
  <unicode hex="0045"/>
  <anchor x="204" y="0" name="H"/>
  <anchor x="322" y="659" name="U"/>
  <outline>
    <contour>
      <point x="522" y="603" type="line"/>
      <point x="86" y="603" type="line"/>
      <point x="86" y="566" type="line"/>
      <point x="136" y="561" type="line" smooth="yes"/>
      <point x="152" y="560"/>
      <point x="155" y="553"/>
      <point x="153" y="543" type="curve" smooth="yes"/>
      <point x="60" y="59" type="line" smooth="yes"/>
      <point x="58" y="48"/>
      <point x="50" y="43"/>
      <point x="38" y="42" type="curve" smooth="yes"/>
      <point x="-13" y="37" type="line"/>
      <point x="-13" y="0" type="line"/>
      <point x="436" y="0" type="line"/>
      <point x="466" y="149" type="line"/>
      <point x="411" y="149" type="line"/>
      <point x="383" y="62" type="line" smooth="yes"/>
      <point x="379" y="52"/>
      <point x="373" y="44"/>
      <point x="360" y="44" type="curve" smooth="yes"/>
      <point x="149" y="44" type="line"/>
      <point x="195" y="290" type="line"/>
      <point x="317" y="290" type="line" smooth="yes"/>
      <point x="330" y="290"/>
      <point x="336" y="284"/>
      <point x="334" y="272" type="curve" smooth="yes"/>
      <point x="325" y="208" type="line"/>
      <point x="377" y="208" type="line"/>
      <point x="416" y="414" type="line"/>
      <point x="366" y="414" type="line"/>
      <point x="349" y="354" type="line" smooth="yes"/>
      <point x="345" y="341"/>
      <point x="339" y="337"/>
      <point x="326" y="337" type="curve" smooth="yes"/>
      <point x="206" y="337" type="line"/>
      <point x="247" y="558" type="line"/>
      <point x="420" y="558" type="line" smooth="yes"/>
      <point x="433" y="558"/>
      <point x="437" y="554"/>
      <point x="437" y="541" type="curve" smooth="yes"/>
      <point x="437" y="468" type="line"/>
      <point x="494" y="468" type="line"/>
    </contour>
  </outline>
</glyph>
<glyph name="F" format="2">
  <advance width="462"/>
  <unicode hex="0046"/>
  <anchor x="301" y="659" name="U"/>
  <outline>
    <contour>
      <point x="511" y="603" type="line"/>
      <point x="85" y="603" type="line"/>
      <point x="85" y="566" type="line"/>
      <point x="135" y="561" type="line" smooth="yes"/>
      <point x="152" y="560"/>
      <point x="155" y="553"/>
      <point x="153" y="543" type="curve" smooth="yes"/>
      <point x="60" y="59" type="line"/>
      <point x="57" y="48"/>
      <point x="49" y="43"/>
      <point x="37" y="42" type="curve" smooth="yes"/>
      <point x="-13" y="37" type="line"/>
      <point x="-13" y="0" type="line"/>
      <point x="226" y="0" type="line"/>
      <point x="226" y="37" type="line"/>
      <point x="168" y="42" type="line" smooth="yes"/>
      <point x="152" y="43"/>
      <point x="149" y="50"/>
      <point x="151" y="59" type="curve" smooth="yes"/>
      <point x="194" y="281" type="line"/>
      <point x="308" y="281" type="line" smooth="yes"/>
      <point x="321" y="281"/>
      <point x="328" y="275"/>
      <point x="326" y="263" type="curve" smooth="yes"/>
      <point x="317" y="200" type="line"/>
      <point x="369" y="200" type="line"/>
      <point x="408" y="406" type="line"/>
      <point x="357" y="406" type="line"/>
      <point x="340" y="344" type="line"/>
      <point x="337" y="332"/>
      <point x="331" y="327"/>
      <point x="318" y="327" type="curve" smooth="yes"/>
      <point x="203" y="327" type="line"/>
      <point x="247" y="558" type="line"/>
      <point x="408" y="558" type="line" smooth="yes"/>
      <point x="422" y="558"/>
      <point x="426" y="554"/>
      <point x="426" y="541" type="curve" smooth="yes"/>
      <point x="426" y="458" type="line"/>
      <point x="484" y="458" type="line"/>
    </contour>
  </outline>
</glyph>
<glyph name="G" format="2">
  <advance width="619"/>
  <unicode hex="0047"/>
  <anchor x="291" y="0" name="H"/>
  <anchor x="409" y="659" name="U"/>
  <outline>
    <contour>
      <point x="607" y="254" type="line"/>
      <point x="607" y="291" type="line"/>
      <point x="375" y="291" type="line"/>
      <point x="375" y="254" type="line"/>
      <point x="424" y="249" type="line" smooth="yes"/>
      <point x="441" y="248"/>
      <point x="444" y="242"/>
      <point x="442" y="232" type="curve" smooth="yes"/>
      <point x="407" y="48" type="line"/>
      <point x="393" y="44"/>
      <point x="352" y="33"/>
      <point x="316" y="33" type="curve" smooth="yes"/>
      <point x="251" y="33"/>
      <point x="142" y="81"/>
      <point x="142" y="226" type="curve" smooth="yes"/>
      <point x="142" y="434"/>
      <point x="285" y="569"/>
      <point x="420" y="569" type="curve" smooth="yes"/>
      <point x="463" y="569"/>
      <point x="490" y="552"/>
      <point x="494" y="550" type="curve" smooth="yes"/>
      <point x="505" y="547"/>
      <point x="512" y="539"/>
      <point x="511" y="525" type="curve" smooth="yes"/>
      <point x="509" y="442" type="line"/>
      <point x="570" y="442" type="line"/>
      <point x="598" y="587" type="line"/>
      <point x="529" y="609"/>
      <point x="489" y="618"/>
      <point x="431" y="618" type="curve" smooth="yes"/>
      <point x="237" y="618"/>
      <point x="43" y="471"/>
      <point x="43" y="241" type="curve" smooth="yes"/>
      <point x="43" y="140"/>
      <point x="93" y="-14"/>
      <point x="298" y="-14" type="curve" smooth="yes"/>
      <point x="373" y="-14"/>
      <point x="475" y="16"/>
      <point x="493" y="20" type="curve"/>
      <point x="533" y="232" type="line" smooth="yes"/>
      <point x="536" y="243"/>
      <point x="544" y="248"/>
      <point x="556" y="249" type="curve" smooth="yes"/>
    </contour>
  </outline>
</glyph>
<glyph name="H" format="2">
  <advance width="652"/>
  <unicode hex="0048"/>
  <outline>
    <contour>
      <point x="690" y="566" type="line"/>
      <point x="690" y="603" type="line"/>
      <point x="456" y="603" type="line"/>
      <point x="456" y="566" type="line"/>
      <point x="507" y="561" type="line" smooth="yes"/>
      <point x="523" y="560"/>
      <point x="527" y="553"/>
      <point x="525" y="543" type="curve" smooth="yes"/>
      <point x="486" y="338" type="line"/>
      <point x="205" y="338" type="line"/>
      <point x="244" y="543" type="line" smooth="yes"/>
      <point x="246" y="555"/>
      <point x="255" y="560"/>
      <point x="266" y="561" type="curve" smooth="yes"/>
      <point x="319" y="566" type="line"/>
      <point x="319" y="603" type="line"/>
      <point x="85" y="603" type="line"/>
      <point x="85" y="566" type="line"/>
      <point x="135" y="561" type="line" smooth="yes"/>
      <point x="152" y="560"/>
      <point x="155" y="553"/>
      <point x="153" y="543" type="curve" smooth="yes"/>
      <point x="60" y="59" type="line"/>
      <point x="57" y="48"/>
      <point x="49" y="43"/>
      <point x="37" y="42" type="curve" smooth="yes"/>
      <point x="-13" y="37" type="line"/>
      <point x="-13" y="0" type="line"/>
      <point x="220" y="0" type="line"/>
      <point x="220" y="37" type="line"/>
      <point x="168" y="42" type="line" smooth="yes"/>
      <point x="152" y="43"/>
      <point x="149" y="50"/>
      <point x="151" y="59" type="curve" smooth="yes"/>
      <point x="195" y="293" type="line"/>
      <point x="476" y="293" type="line"/>
      <point x="431" y="59" type="line" smooth="yes"/>
      <point x="430" y="48"/>
      <point x="420" y="43"/>
      <point x="410" y="42" type="curve" smooth="yes"/>
      <point x="356" y="37" type="line"/>
      <point x="356" y="0" type="line"/>
      <point x="591" y="0" type="line"/>
      <point x="591" y="37" type="line"/>
      <point x="540" y="42" type="line" smooth="yes"/>
      <point x="524" y="43"/>
      <point x="521" y="50"/>
      <point x="522" y="59" type="curve" smooth="yes"/>
      <point x="616" y="543" type="line" smooth="yes"/>
      <point x="619" y="555"/>
      <point x="627" y="560"/>
      <point x="638" y="561" type="curve" smooth="yes"/>
    </contour>
  </outline>
</glyph>
<glyph name="I" format="2">
  <advance width="282"/>
  <unicode hex="0049"/>
  <outline>
    <contour>
      <point x="320" y="566" type="line"/>
      <point x="320" y="603" type="line"/>
      <point x="86" y="603" type="line"/>
      <point x="86" y="566" type="line"/>
      <point x="136" y="561" type="line" smooth="yes"/>
      <point x="152" y="560"/>
      <point x="155" y="553"/>
      <point x="153" y="543" type="curve" smooth="yes"/>
      <point x="60" y="59" type="line" smooth="yes"/>
      <point x="58" y="48"/>
      <point x="54" y="43"/>
      <point x="43" y="42" type="curve" smooth="yes"/>
      <point x="-13" y="37" type="line"/>
      <point x="-13" y="0" type="line"/>
      <point x="221" y="0" type="line"/>
      <point x="221" y="37" type="line"/>
      <point x="169" y="42" type="line" smooth="yes"/>
      <point x="152" y="43"/>
      <point x="149" y="50"/>
      <point x="151" y="59" type="curve" smooth="yes"/>
      <point x="244" y="543" type="line" smooth="yes"/>
      <point x="247" y="555"/>
      <point x="250" y="560"/>
      <point x="262" y="561" type="curve" smooth="yes"/>
    </contour>
  </outline>
</glyph>
<glyph name="J" format="2">
  <advance width="420"/>
  <unicode hex="004A"/>
  <outline>
    <contour>
      <point x="456" y="566" type="line"/>
      <point x="456" y="603" type="line"/>
      <point x="222" y="603" type="line"/>
      <point x="222" y="566" type="line"/>
      <point x="274" y="561" type="line" smooth="yes"/>
      <point x="289" y="560"/>
      <point x="293" y="553"/>
      <point x="291" y="543" type="curve" smooth="yes"/>
      <point x="232" y="222" type="line" smooth="yes"/>
      <point x="210" y="101"/>
      <point x="183" y="32"/>
      <point x="107" y="32" type="curve" smooth="yes"/>
      <point x="88" y="32"/>
      <point x="71" y="41"/>
      <point x="71" y="56" type="curve" smooth="yes"/>
      <point x="71" y="166" type="line"/>
      <point x="11" y="166" type="line"/>
      <point x="-18" y="12" type="line"/>
      <point x="-8" y="7"/>
      <point x="29" y="-14"/>
      <point x="100" y="-14" type="curve" smooth="yes"/>
      <point x="254" y="-14"/>
      <point x="297" y="81"/>
      <point x="324" y="230" type="curve" smooth="yes"/>
      <point x="382" y="543" type="line" smooth="yes"/>
      <point x="385" y="555"/>
      <point x="393" y="560"/>
      <point x="405" y="561" type="curve" smooth="yes"/>
    </contour>
  </outline>
</glyph>
<glyph name="K" format="2">
  <advance width="590"/>
  <unicode hex="004B"/>
  <outline>
    <contour>
      <point x="622" y="566" type="line"/>
      <point x="622" y="603" type="line"/>
      <point x="389" y="603" type="line"/>
      <point x="389" y="566" type="line"/>
      <point x="447" y="561" type="line" smooth="yes"/>
      <point x="460" y="560"/>
      <point x="460" y="550"/>
      <point x="453" y="543" type="curve" smooth="yes"/>
      <point x="214" y="307" type="line"/>
      <point x="199" y="307" type="line"/>
      <point x="244" y="543" type="line" smooth="yes"/>
      <point x="247" y="555"/>
      <point x="255" y="560"/>
      <point x="267" y="561" type="curve" smooth="yes"/>
      <point x="320" y="566" type="line"/>
      <point x="320" y="603" type="line"/>
      <point x="86" y="603" type="line"/>
      <point x="86" y="566" type="line"/>
      <point x="136" y="561" type="line" smooth="yes"/>
      <point x="152" y="560"/>
      <point x="155" y="553"/>
      <point x="153" y="543" type="curve" smooth="yes"/>
      <point x="59" y="59" type="line" smooth="yes"/>
      <point x="57" y="48"/>
      <point x="49" y="43"/>
      <point x="37" y="42" type="curve" smooth="yes"/>
      <point x="-14" y="37" type="line"/>
      <point x="-14" y="0" type="line"/>
      <point x="220" y="0" type="line"/>
      <point x="220" y="37" type="line"/>
      <point x="168" y="42" type="line" smooth="yes"/>
      <point x="152" y="43"/>
      <point x="148" y="50"/>
      <point x="150" y="59" type="curve" smooth="yes"/>
      <point x="190" y="265" type="line"/>
      <point x="245" y="265" type="line"/>
      <point x="356" y="52" type="line" smooth="yes"/>
      <point x="384" y="0"/>
      <point x="408" y="-14"/>
      <point x="460" y="-14" type="curve" smooth="yes"/>
      <point x="484" y="-14"/>
      <point x="517" y="-7"/>
      <point x="545" y="0" type="curve"/>
      <point x="545" y="37" type="line"/>
      <point x="530" y="36"/>
      <point x="518" y="36"/>
      <point x="507" y="36" type="curve" smooth="yes"/>
      <point x="475" y="36"/>
      <point x="458" y="44"/>
      <point x="436" y="89" type="curve" smooth="yes"/>
      <point x="311" y="331" type="line"/>
      <point x="547" y="558" type="line"/>
    </contour>
  </outline>
</glyph>
<glyph name="L" format="2">
  <advance width="466"/>
  <unicode hex="004C"/>
  <anchor x="187" y="0" name="H"/>
  <anchor x="304" y="659" name="U"/>
  <outline>
    <contour>
      <point x="434" y="166" type="line"/>
      <point x="381" y="166" type="line"/>
      <point x="349" y="62" type="line" smooth="yes"/>
      <point x="345" y="52"/>
      <point x="338" y="44"/>
      <point x="326" y="44" type="curve" smooth="yes"/>
      <point x="149" y="44" type="line"/>
      <point x="244" y="543" type="line" smooth="yes"/>
      <point x="246" y="552"/>
      <point x="254" y="560"/>
      <point x="267" y="561" type="curve" smooth="yes"/>
      <point x="320" y="566" type="line"/>
      <point x="320" y="603" type="line"/>
      <point x="86" y="603" type="line"/>
      <point x="86" y="566" type="line"/>
      <point x="136" y="561" type="line" smooth="yes"/>
      <point x="152" y="560"/>
      <point x="155" y="553"/>
      <point x="153" y="543" type="curve" smooth="yes"/>
      <point x="60" y="59" type="line" smooth="yes"/>
      <point x="58" y="48"/>
      <point x="50" y="43"/>
      <point x="38" y="42" type="curve" smooth="yes"/>
      <point x="-13" y="37" type="line"/>
      <point x="-13" y="0" type="line"/>
      <point x="402" y="0" type="line"/>
    </contour>
  </outline>
</glyph>
<glyph name="M" format="2">
  <advance width="775"/>
  <unicode hex="004D"/>
  <outline>
    <contour>
      <point x="812" y="566" type="line"/>
      <point x="812" y="603" type="line"/>
      <point x="604" y="603" type="line"/>
      <point x="604" y="574" type="line"/>
      <point x="364" y="143" type="line"/>
      <point x="286" y="578" type="line"/>
      <point x="286" y="603" type="line"/>
      <point x="85" y="603" type="line"/>
      <point x="85" y="566" type="line"/>
      <point x="135" y="561" type="line" smooth="yes"/>
      <point x="152" y="560"/>
      <point x="155" y="553"/>
      <point x="153" y="543" type="curve" smooth="yes"/>
      <point x="61" y="59" type="line"/>
      <point x="58" y="48"/>
      <point x="50" y="43"/>
      <point x="38" y="42" type="curve" smooth="yes"/>
      <point x="-12" y="37" type="line"/>
      <point x="-12" y="0" type="line"/>
      <point x="193" y="0" type="line"/>
      <point x="193" y="37" type="line"/>
      <point x="143" y="42" type="line" smooth="yes"/>
      <point x="127" y="43"/>
      <point x="124" y="50"/>
      <point x="126" y="59" type="curve" smooth="yes"/>
      <point x="209" y="511" type="line"/>
      <point x="299" y="0" type="line"/>
      <point x="353" y="0" type="line"/>
      <point x="642" y="515" type="line"/>
      <point x="555" y="59" type="line" smooth="yes"/>
      <point x="553" y="48"/>
      <point x="544" y="43"/>
      <point x="533" y="42" type="curve" smooth="yes"/>
      <point x="480" y="37" type="line"/>
      <point x="480" y="0" type="line"/>
      <point x="714" y="0" type="line"/>
      <point x="714" y="37" type="line"/>
      <point x="664" y="42" type="line" smooth="yes"/>
      <point x="648" y="43"/>
      <point x="644" y="50"/>
      <point x="645" y="59" type="curve" smooth="yes"/>
      <point x="738" y="543" type="line" smooth="yes"/>
      <point x="741" y="555"/>
      <point x="749" y="560"/>
      <point x="761" y="561" type="curve" smooth="yes"/>
    </contour>
  </outline>
</glyph>
<glyph name="N" format="2">
  <advance width="551"/>
  <unicode hex="004E"/>
  <anchor x="418" y="0" name="H"/>
  <anchor x="329" y="580" name="U"/>
  <outline>
    <contour>
      <point x="585" y="553" type="line"/>
      <point x="417" y="553" type="line"/>
      <point x="413" y="526" type="line"/>
      <point x="455" y="519"/>
      <point x="467" y="505"/>
      <point x="466" y="498" type="curve" smooth="yes"/>
      <point x="416" y="134" type="line"/>
      <point x="212" y="519" type="line" smooth="yes"/>
      <point x="196" y="550"/>
      <point x="194" y="553"/>
      <point x="174" y="553" type="curve" smooth="yes"/>
      <point x="73" y="553" type="line"/>
      <point x="69" y="526" type="line"/>
      <point x="90" y="522"/>
      <point x="108" y="513"/>
      <point x="123" y="495" type="curve"/>
      <point x="62" y="54" type="line" smooth="yes"/>
      <point x="61" y="46"/>
      <point x="43" y="32"/>
      <point x="3" y="27" type="curve"/>
      <point x="0" y="0" type="line"/>
      <point x="167" y="0" type="line"/>
      <point x="171" y="27" type="line"/>
      <point x="130" y="33"/>
      <point x="117" y="47"/>
      <point x="118" y="54" type="curve" smooth="yes"/>
      <point x="168" y="417" type="line"/>
      <point x="372" y="29" type="line" smooth="yes"/>
      <point x="385" y="4"/>
      <point x="409" y="-9"/>
      <point x="451" y="-13" type="curve"/>
      <point x="522" y="498" type="line" smooth="yes"/>
      <point x="523" y="508"/>
      <point x="542" y="520"/>
      <point x="581" y="526" type="curve"/>
    </contour>
  </outline>
</glyph>
<glyph name="O" format="2">
  <advance width="638"/>
  <unicode hex="004F"/>
  <outline>
    <contour>
      <point x="621" y="375" type="curve" smooth="yes"/>
      <point x="621" y="509"/>
      <point x="527" y="618"/>
      <point x="377" y="618" type="curve" smooth="yes"/>
      <point x="180" y="618"/>
      <point x="43" y="429"/>
      <point x="43" y="235" type="curve" smooth="yes"/>
      <point x="43" y="84"/>
      <point x="144" y="-14"/>
      <point x="287" y="-14" type="curve" smooth="yes"/>
      <point x="499" y="-14"/>
      <point x="621" y="185"/>
    </contour>
    <contour>
      <point x="519" y="375" type="curve" smooth="yes"/>
      <point x="519" y="222"/>
      <point x="425" y="32"/>
      <point x="294" y="32" type="curve" smooth="yes"/>
      <point x="210" y="32"/>
      <point x="145" y="107"/>
      <point x="145" y="228" type="curve" smooth="yes"/>
      <point x="145" y="388"/>
      <point x="238" y="573"/>
      <point x="370" y="573" type="curve" smooth="yes"/>
      <point x="456" y="573"/>
      <point x="519" y="494"/>
    </contour>
  </outline>
</glyph>
<glyph name="P" format="2">
  <advance width="509"/>
  <unicode hex="0050"/>
  <outline>
    <contour>
      <point x="513" y="460" type="curve" smooth="yes"/>
      <point x="513" y="543"/>
      <point x="456" y="603"/>
      <point x="308" y="603" type="curve" smooth="yes"/>
      <point x="84" y="603" type="line"/>
      <point x="84" y="566" type="line"/>
      <point x="134" y="561" type="line" smooth="yes"/>
      <point x="151" y="560"/>
      <point x="154" y="553"/>
      <point x="152" y="543" type="curve" smooth="yes"/>
      <point x="58" y="59" type="line"/>
      <point x="55" y="48"/>
      <point x="47" y="43"/>
      <point x="36" y="42" type="curve" smooth="yes"/>
      <point x="-15" y="37" type="line"/>
      <point x="-15" y="0" type="line"/>
      <point x="218" y="0" type="line"/>
      <point x="218" y="37" type="line"/>
      <point x="167" y="42" type="line" smooth="yes"/>
      <point x="151" y="43"/>
      <point x="147" y="50"/>
      <point x="149" y="59" type="curve" smooth="yes"/>
      <point x="182" y="226" type="line"/>
      <point x="182" y="226"/>
      <point x="221" y="225"/>
      <point x="239" y="225" type="curve" smooth="yes"/>
      <point x="396" y="225"/>
      <point x="513" y="315"/>
    </contour>
    <contour>
      <point x="420" y="444" type="curve" smooth="yes"/>
      <point x="420" y="374"/>
      <point x="386" y="329"/>
      <point x="341" y="302" type="curve" smooth="yes"/>
      <point x="298" y="276"/>
      <point x="243" y="268"/>
      <point x="190" y="273" type="curve"/>
      <point x="246" y="559" type="line"/>
      <point x="255" y="560"/>
      <point x="269" y="561"/>
      <point x="280" y="561" type="curve" smooth="yes"/>
      <point x="384" y="561"/>
      <point x="420" y="513"/>
    </contour>
  </outline>
</glyph>
<glyph name="Q" format="2">
  <advance width="638"/>
  <unicode hex="0051"/>
  <outline>
    <contour>
      <point x="649" y="-99" type="curve"/>
      <point x="649" y="-61" type="line"/>
      <point x="621" y="-74"/>
      <point x="581" y="-91"/>
      <point x="546" y="-91" type="curve" smooth="yes"/>
      <point x="486" y="-91"/>
      <point x="460" y="-48"/>
      <point x="424" y="18" type="curve"/>
      <point x="590" y="113"/>
      <point x="620" y="279"/>
      <point x="620" y="376" type="curve" smooth="yes"/>
      <point x="620" y="513"/>
      <point x="525" y="618"/>
      <point x="378" y="618" type="curve" smooth="yes"/>
      <point x="179" y="618"/>
      <point x="41" y="419"/>
      <point x="41" y="232" type="curve" smooth="yes"/>
      <point x="41" y="75"/>
      <point x="152" y="-14"/>
      <point x="285" y="-14" type="curve" smooth="yes"/>
      <point x="299" y="-14"/>
      <point x="316" y="-12"/>
      <point x="330" y="-10" type="curve"/>
      <point x="363" y="-86"/>
      <point x="405" y="-144"/>
      <point x="497" y="-144" type="curve" smooth="yes"/>
      <point x="560" y="-144"/>
      <point x="636" y="-107"/>
    </contour>
    <contour>
      <point x="519" y="376" type="curve" smooth="yes"/>
      <point x="519" y="219"/>
      <point x="422" y="33"/>
      <point x="293" y="33" type="curve" smooth="yes"/>
      <point x="199" y="33"/>
      <point x="142" y="116"/>
      <point x="142" y="228" type="curve" smooth="yes"/>
      <point x="142" y="396"/>
      <point x="240" y="572"/>
      <point x="374" y="572" type="curve" smooth="yes"/>
      <point x="460" y="572"/>
      <point x="519" y="489"/>
    </contour>
  </outline>
</glyph>
<glyph name="R" format="2">
  <advance width="577"/>
  <unicode hex="0052"/>
  <anchor x="92" y="0" name="H"/>
  <anchor x="336" y="659" name="U"/>
  <outline>
    <contour>
      <point x="553" y="0" type="curve"/>
      <point x="553" y="36" type="line"/>
      <point x="476" y="36"/>
      <point x="455" y="71"/>
      <point x="438" y="138" type="curve" smooth="yes"/>
      <point x="420" y="206"/>
      <point x="413" y="254"/>
      <point x="339" y="285" type="curve"/>
      <point x="439" y="313"/>
      <point x="522" y="373"/>
      <point x="522" y="470" type="curve" smooth="yes"/>
      <point x="522" y="574"/>
      <point x="427" y="603"/>
      <point x="327" y="603" type="curve" smooth="yes"/>
      <point x="226" y="603"/>
      <point x="271" y="603"/>
      <point x="86" y="603" type="curve"/>
      <point x="86" y="566" type="line"/>
      <point x="136" y="561" type="line" smooth="yes"/>
      <point x="152" y="560"/>
      <point x="155" y="553"/>
      <point x="153" y="543" type="curve" smooth="yes"/>
      <point x="61" y="59" type="line"/>
      <point x="59" y="48"/>
      <point x="51" y="43"/>
      <point x="39" y="42" type="curve" smooth="yes"/>
      <point x="-11" y="37" type="line"/>
      <point x="-11" y="0" type="line"/>
      <point x="222" y="0" type="line"/>
      <point x="222" y="37" type="line"/>
      <point x="170" y="42" type="line" smooth="yes"/>
      <point x="154" y="43"/>
      <point x="151" y="50"/>
      <point x="152" y="59" type="curve" smooth="yes"/>
      <point x="191" y="265" type="line"/>
      <point x="191" y="265"/>
      <point x="223" y="266"/>
      <point x="238" y="266" type="curve" smooth="yes"/>
      <point x="322" y="266"/>
      <point x="335" y="197"/>
      <point x="350" y="130" type="curve" smooth="yes"/>
      <point x="363" y="63"/>
      <point x="378" y="-14"/>
      <point x="487" y="-14" type="curve" smooth="yes"/>
      <point x="508" y="-14"/>
      <point x="529" y="-10"/>
    </contour>
    <contour>
      <point x="420" y="457" type="curve" smooth="yes"/>
      <point x="420" y="343"/>
      <point x="318" y="312"/>
      <point x="221" y="312" type="curve" smooth="yes"/>
      <point x="201" y="312" type="line"/>
      <point x="247" y="558" type="line"/>
      <point x="252" y="558"/>
      <point x="262" y="558"/>
      <point x="267" y="558" type="curve" smooth="yes"/>
      <point x="336" y="561"/>
      <point x="420" y="545"/>
    </contour>
  </outline>
</glyph>
<glyph name="S" format="2">
  <advance width="468"/>
  <unicode hex="0053"/>
  <anchor x="192" y="0" name="H"/>
  <anchor x="319" y="659" name="U"/>
  <outline>
    <contour>
      <point x="461" y="585" type="line"/>
      <point x="450" y="591"/>
      <point x="390" y="618"/>
      <point x="309" y="618" type="curve" smooth="yes"/>
      <point x="175" y="618"/>
      <point x="75" y="540"/>
      <point x="75" y="420" type="curve" smooth="yes"/>
      <point x="75" y="349"/>
      <point x="136" y="313"/>
      <point x="199" y="280" type="curve" smooth="yes"/>
      <point x="275" y="241"/>
      <point x="326" y="214"/>
      <point x="326" y="163" type="curve" smooth="yes"/>
      <point x="326" y="81"/>
      <point x="258" y="32"/>
      <point x="181" y="32" type="curve" smooth="yes"/>
      <point x="169" y="32"/>
      <point x="75" y="52"/>
      <point x="77" y="73" type="curve" smooth="yes"/>
      <point x="87" y="177" type="line"/>
      <point x="25" y="177" type="line"/>
      <point x="-4" y="32" type="line"/>
      <point x="8" y="24"/>
      <point x="76" y="-14"/>
      <point x="169" y="-14" type="curve" smooth="yes"/>
      <point x="352" y="-14"/>
      <point x="420" y="97"/>
      <point x="420" y="184" type="curve" smooth="yes"/>
      <point x="420" y="262"/>
      <point x="352" y="305"/>
      <point x="294" y="332" type="curve" smooth="yes"/>
      <point x="225" y="363"/>
      <point x="167" y="394"/>
      <point x="167" y="450" type="curve" smooth="yes"/>
      <point x="167" y="522"/>
      <point x="232" y="574"/>
      <point x="302" y="574" type="curve" smooth="yes"/>
      <point x="345" y="574"/>
      <point x="383" y="550"/>
      <point x="383" y="539" type="curve" smooth="yes"/>
      <point x="379" y="448" type="line"/>
      <point x="432" y="448" type="line"/>
    </contour>
  </outline>
</glyph>
<glyph name="T" format="2">
  <advance width="527"/>
  <unicode hex="0054"/>
  <anchor x="219" y="0" name="H"/>
  <anchor x="337" y="659" name="U"/>
  <outline>
    <contour>
      <point x="584" y="603" type="line"/>
      <point x="85" y="603" type="line"/>
      <point x="59" y="466" type="line"/>
      <point x="116" y="466" type="line"/>
      <point x="144" y="545" type="line" smooth="yes"/>
      <point x="147" y="557"/>
      <point x="155" y="563"/>
      <point x="166" y="563" type="curve" smooth="yes"/>
      <point x="279" y="563" type="line"/>
      <point x="185" y="59" type="line" smooth="yes"/>
      <point x="183" y="48"/>
      <point x="174" y="43"/>
      <point x="163" y="42" type="curve" smooth="yes"/>
      <point x="111" y="37" type="line"/>
      <point x="111" y="0" type="line"/>
      <point x="345" y="0" type="line"/>
      <point x="345" y="37" type="line"/>
      <point x="294" y="42" type="line" smooth="yes"/>
      <point x="278" y="43"/>
      <point x="274" y="50"/>
      <point x="276" y="59" type="curve" smooth="yes"/>
      <point x="370" y="563" type="line"/>
      <point x="486" y="563" type="line" smooth="yes"/>
      <point x="498" y="563"/>
      <point x="504" y="558"/>
      <point x="503" y="545" type="curve" smooth="yes"/>
      <point x="499" y="466" type="line"/>
      <point x="556" y="466" type="line"/>
    </contour>
  </outline>
</glyph>
<glyph name="U" format="2">
  <advance width="636"/>
  <unicode hex="0055"/>
  <outline>
    <contour>
      <point x="674" y="566" type="line"/>
      <point x="674" y="603" type="line"/>
      <point x="470" y="603" type="line"/>
      <point x="470" y="566" type="line"/>
      <point x="521" y="561" type="line" smooth="yes"/>
      <point x="537" y="560"/>
      <point x="540" y="553"/>
      <point x="539" y="543" type="curve" smooth="yes"/>
      <point x="475" y="224" type="line" smooth="yes"/>
      <point x="457" y="127"/>
      <point x="420" y="43"/>
      <point x="303" y="43" type="curve" smooth="yes"/>
      <point x="225" y="43"/>
      <point x="176" y="81"/>
      <point x="176" y="157" type="curve" smooth="yes"/>
      <point x="176" y="173"/>
      <point x="179" y="202"/>
      <point x="186" y="237" type="curve" smooth="yes"/>
      <point x="248" y="543" type="line"/>
      <point x="250" y="555"/>
      <point x="259" y="560"/>
      <point x="269" y="561" type="curve" smooth="yes"/>
      <point x="322" y="566" type="line"/>
      <point x="322" y="603" type="line"/>
      <point x="89" y="603" type="line"/>
      <point x="89" y="566" type="line"/>
      <point x="139" y="561" type="line" smooth="yes"/>
      <point x="155" y="560"/>
      <point x="159" y="553"/>
      <point x="157" y="543" type="curve" smooth="yes"/>
      <point x="94" y="237" type="line" smooth="yes"/>
      <point x="86" y="195"/>
      <point x="82" y="161"/>
      <point x="82" y="143" type="curve" smooth="yes"/>
      <point x="82" y="29"/>
      <point x="169" y="-14"/>
      <point x="279" y="-14" type="curve" smooth="yes"/>
      <point x="423" y="-14"/>
      <point x="505" y="61"/>
      <point x="530" y="192" type="curve" smooth="yes"/>
      <point x="600" y="543" type="line" smooth="yes"/>
      <point x="602" y="555"/>
      <point x="611" y="560"/>
      <point x="621" y="561" type="curve" smooth="yes"/>
    </contour>
  </outline>
</glyph>
<glyph name="V" format="2">
  <advance width="578"/>
  <unicode hex="0056"/>
  <outline>
    <contour>
      <point x="644" y="566" type="line"/>
      <point x="644" y="603" type="line"/>
      <point x="460" y="603" type="line"/>
      <point x="460" y="566" type="line"/>
      <point x="504" y="564" type="line" smooth="yes"/>
      <point x="522" y="563"/>
      <point x="522" y="555"/>
      <point x="518" y="546" type="curve" smooth="yes"/>
      <point x="289" y="110" type="line"/>
      <point x="222" y="546" type="line" smooth="yes"/>
      <point x="220" y="558"/>
      <point x="226" y="563"/>
      <point x="240" y="564" type="curve" smooth="yes"/>
      <point x="279" y="566" type="line"/>
      <point x="279" y="603" type="line"/>
      <point x="74" y="603" type="line"/>
      <point x="74" y="566" type="line"/>
      <point x="108" y="564" type="line" smooth="yes"/>
      <point x="120" y="563"/>
      <point x="128" y="558"/>
      <point x="130" y="546" type="curve" smooth="yes"/>
      <point x="217" y="-14" type="line"/>
      <point x="286" y="-14" type="line"/>
      <point x="596" y="560" type="line"/>
    </contour>
  </outline>
</glyph>
<glyph name="W" format="2">
  <advance width="834"/>
  <unicode hex="0057"/>
  <anchor x="506" y="659" name="U"/>
  <outline>
    <contour>
      <point x="900" y="566" type="line"/>
      <point x="900" y="603" type="line"/>
      <point x="711" y="603" type="line"/>
      <point x="711" y="566" type="line"/>
      <point x="752" y="564" type="line" smooth="yes"/>
      <point x="768" y="563"/>
      <point x="774" y="557"/>
      <point x="769" y="546" type="curve" smooth="yes"/>
      <point x="586" y="149" type="line"/>
      <point x="540" y="603" type="line"/>
      <point x="468" y="603" type="line"/>
      <point x="256" y="155" type="line"/>
      <point x="225" y="546" type="line"/>
      <point x="225" y="557"/>
      <point x="229" y="563"/>
      <point x="243" y="564" type="curve" smooth="yes"/>
      <point x="282" y="566" type="line"/>
      <point x="282" y="603" type="line"/>
      <point x="74" y="603" type="line"/>
      <point x="74" y="566" type="line"/>
      <point x="112" y="564" type="line" smooth="yes"/>
      <point x="127" y="563"/>
      <point x="133" y="558"/>
      <point x="134" y="546" type="curve" smooth="yes"/>
      <point x="179" y="-14" type="line"/>
      <point x="242" y="-14" type="line"/>
      <point x="467" y="466" type="line"/>
      <point x="519" y="-14" type="line"/>
      <point x="577" y="-14" type="line"/>
      <point x="846" y="560" type="line"/>
    </contour>
  </outline>
</glyph>
<glyph name="X" format="2">
  <advance width="569"/>
  <unicode hex="0058"/>
  <outline>
    <contour>
      <point x="610" y="566" type="line"/>
      <point x="610" y="603" type="line"/>
      <point x="406" y="603" type="line"/>
      <point x="406" y="566" type="line"/>
      <point x="450" y="562" type="line" smooth="yes"/>
      <point x="465" y="561"/>
      <point x="464" y="551"/>
      <point x="457" y="544" type="curve" smooth="yes"/>
      <point x="310" y="376" type="line"/>
      <point x="236" y="544" type="line" smooth="yes"/>
      <point x="232" y="553"/>
      <point x="240" y="561"/>
      <point x="250" y="562" type="curve" smooth="yes"/>
      <point x="308" y="566" type="line"/>
      <point x="308" y="603" type="line"/>
      <point x="74" y="603" type="line"/>
      <point x="74" y="566" type="line"/>
      <point x="124" y="562" type="line" smooth="yes"/>
      <point x="130" y="561"/>
      <point x="136" y="559"/>
      <point x="141" y="548" type="curve" smooth="yes"/>
      <point x="249" y="305" type="line"/>
      <point x="25" y="54" type="line" smooth="yes"/>
      <point x="21" y="50"/>
      <point x="13" y="42"/>
      <point x="3" y="41" type="curve" smooth="yes"/>
      <point x="-39" y="37" type="line"/>
      <point x="-39" y="0" type="line"/>
      <point x="170" y="0" type="line"/>
      <point x="170" y="37" type="line"/>
      <point x="116" y="41" type="line" smooth="yes"/>
      <point x="100" y="42"/>
      <point x="100" y="52"/>
      <point x="108" y="59" type="curve" smooth="yes"/>
      <point x="278" y="248" type="line"/>
      <point x="359" y="59" type="line" smooth="yes"/>
      <point x="363" y="50"/>
      <point x="356" y="42"/>
      <point x="346" y="41" type="curve" smooth="yes"/>
      <point x="288" y="37" type="line"/>
      <point x="288" y="0" type="line"/>
      <point x="521" y="0" type="line"/>
      <point x="521" y="37" type="line"/>
      <point x="472" y="41" type="line" smooth="yes"/>
      <point x="466" y="42"/>
      <point x="460" y="43"/>
      <point x="454" y="54" type="curve" smooth="yes"/>
      <point x="336" y="323" type="line"/>
      <point x="534" y="548" type="line" smooth="yes"/>
      <point x="538" y="553"/>
      <point x="547" y="561"/>
      <point x="556" y="562" type="curve" smooth="yes"/>
    </contour>
  </outline>
</glyph>
<glyph name="Y" format="2">
  <advance width="575"/>
  <unicode hex="0059"/>
  <anchor x="363" y="659" name="U"/>
  <outline>
    <contour>
      <point x="639" y="566" type="line"/>
      <point x="639" y="603" type="line"/>
      <point x="423" y="603" type="line"/>
      <point x="423" y="566" type="line"/>
      <point x="479" y="562" type="line" smooth="yes"/>
      <point x="493" y="561"/>
      <point x="491" y="552"/>
      <point x="486" y="544" type="curve" smooth="yes"/>
      <point x="312" y="310" type="line"/>
      <point x="238" y="544" type="line" smooth="yes"/>
      <point x="235" y="554"/>
      <point x="241" y="561"/>
      <point x="250" y="562" type="curve" smooth="yes"/>
      <point x="308" y="566" type="line"/>
      <point x="308" y="603" type="line"/>
      <point x="75" y="603" type="line"/>
      <point x="75" y="566" type="line"/>
      <point x="126" y="562" type="line" smooth="yes"/>
      <point x="132" y="561"/>
      <point x="139" y="560"/>
      <point x="143" y="548" type="curve" smooth="yes"/>
      <point x="243" y="244" type="line"/>
      <point x="206" y="59" type="line" smooth="yes"/>
      <point x="204" y="48"/>
      <point x="195" y="43"/>
      <point x="185" y="42" type="curve" smooth="yes"/>
      <point x="133" y="37" type="line"/>
      <point x="133" y="0" type="line"/>
      <point x="367" y="0" type="line"/>
      <point x="367" y="37" type="line"/>
      <point x="316" y="42" type="line" smooth="yes"/>
      <point x="301" y="43"/>
      <point x="297" y="50"/>
      <point x="299" y="59" type="curve"/>
      <point x="337" y="252" type="line"/>
      <point x="566" y="548" type="line"/>
      <point x="570" y="553"/>
      <point x="580" y="561"/>
      <point x="589" y="562" type="curve" smooth="yes"/>
    </contour>
  </outline>
</glyph>
<glyph name="Z" format="2">
  <advance width="506"/>
  <unicode hex="005A"/>
  <outline>
    <contour>
      <point x="535" y="603" type="line"/>
      <point x="122" y="603" type="line"/>
      <point x="93" y="460" type="line"/>
      <point x="155" y="460" type="line"/>
      <point x="180" y="540" type="line" smooth="yes"/>
      <point x="183" y="551"/>
      <point x="188" y="557"/>
      <point x="201" y="557" type="curve" smooth="yes"/>
      <point x="412" y="557" type="line"/>
      <point x="-10" y="39" type="line"/>
      <point x="-18" y="0" type="line"/>
      <point x="427" y="0" type="line"/>
      <point x="458" y="166" type="line"/>
      <point x="397" y="166" type="line"/>
      <point x="370" y="65" type="line" smooth="yes"/>
      <point x="367" y="53"/>
      <point x="360" y="47"/>
      <point x="348" y="47" type="curve" smooth="yes"/>
      <point x="103" y="47" type="line"/>
      <point x="527" y="563" type="line"/>
    </contour>
  </outline>
</glyph>
<glyph name="bracketleft" format="2">
  <advance width="304"/>
  <unicode hex="005B"/>
  <outline>
    <contour>
      <point x="353" y="689" type="curve"/>
      <point x="339" y="702" type="line"/>
      <point x="146" y="702" type="line"/>
      <point x="26" y="-147" type="line"/>
      <point x="223" y="-147" type="line"/>
      <point x="229" y="-137"/>
      <point x="240" y="-114"/>
      <point x="243" y="-103" type="curve"/>
      <point x="228" y="-88" type="line"/>
      <point x="116" y="-88" type="line"/>
      <point x="218" y="644" type="line"/>
      <point x="333" y="644" type="line"/>
      <point x="337" y="651"/>
      <point x="350" y="674"/>
    </contour>
  </outline>
</glyph>
<glyph name="backslash" format="2">
  <advance width="439"/>
  <unicode hex="005C"/>
  <outline>
    <contour>
      <point x="439" y="-83" type="line"/>
      <point x="57" y="603" type="line"/>
      <point x="0" y="603" type="line"/>
      <point x="382" y="-83" type="line"/>
    </contour>
  </outline>
</glyph>
<glyph name="bracketright" format="2">
  <advance width="290"/>
  <unicode hex="005D"/>
  <outline>
    <contour>
      <point x="290" y="702" type="line"/>
      <point x="94" y="702" type="line"/>
      <point x="89" y="693"/>
      <point x="78" y="671"/>
      <point x="75" y="658" type="curve"/>
      <point x="90" y="644" type="line"/>
      <point x="201" y="644" type="line"/>
      <point x="98" y="-88" type="line"/>
      <point x="-16" y="-88" type="line"/>
      <point x="-20" y="-95"/>
      <point x="-32" y="-119"/>
      <point x="-36" y="-132" type="curve"/>
      <point x="-21" y="-147" type="line"/>
      <point x="171" y="-147" type="line"/>
    </contour>
  </outline>
</glyph>
<glyph name="underscore" format="2">
  <advance width="273"/>
  <unicode hex="005F"/>
  <outline>
    <contour>
      <point x="214" y="-79" type="line"/>
      <point x="-57" y="-79" type="line"/>
      <point x="-70" y="-138" type="line"/>
      <point x="203" y="-138" type="line"/>
    </contour>
  </outline>
</glyph>
<glyph name="a" format="2">
  <advance width="468"/>
  <unicode hex="0061"/>
  <anchor x="212" y="0" name="H"/>
  <anchor x="309" y="483" name="U"/>
  <outline>
    <contour>
      <point x="466" y="24" type="curve"/>
      <point x="466" y="56" type="line"/>
      <point x="457" y="54"/>
      <point x="419" y="42"/>
      <point x="406" y="42" type="curve" smooth="yes"/>
      <point x="382" y="42"/>
      <point x="368" y="52"/>
      <point x="368" y="83" type="curve" smooth="yes"/>
      <point x="368" y="123"/>
      <point x="413" y="334"/>
      <point x="426" y="382" type="curve" smooth="yes"/>
      <point x="428" y="391"/>
      <point x="438" y="420"/>
      <point x="443" y="433" type="curve"/>
      <point x="382" y="433" type="line"/>
      <point x="369" y="412" type="line"/>
      <point x="352" y="428"/>
      <point x="321" y="444"/>
      <point x="287" y="444" type="curve" smooth="yes"/>
      <point x="119" y="444"/>
      <point x="29" y="289"/>
      <point x="29" y="150" type="curve" smooth="yes"/>
      <point x="29" y="85"/>
      <point x="53" y="-10"/>
      <point x="159" y="-10" type="curve" smooth="yes"/>
      <point x="213" y="-10"/>
      <point x="260" y="25"/>
      <point x="286" y="50" type="curve"/>
      <point x="290" y="10"/>
      <point x="305" y="-10"/>
      <point x="349" y="-10" type="curve" smooth="yes"/>
      <point x="384" y="-10"/>
      <point x="451" y="18"/>
    </contour>
    <contour>
      <point x="333" y="352" type="curve"/>
      <point x="286" y="104" type="line"/>
      <point x="274" y="91"/>
      <point x="229" y="48"/>
      <point x="187" y="48" type="curve" smooth="yes"/>
      <point x="131" y="48"/>
      <point x="117" y="105"/>
      <point x="117" y="155" type="curve" smooth="yes"/>
      <point x="117" y="254"/>
      <point x="163" y="401"/>
      <point x="300" y="401" type="curve" smooth="yes"/>
      <point x="311" y="401"/>
      <point x="334" y="359"/>
    </contour>
  </outline>
</glyph>
<glyph name="b" format="2">
  <advance width="438"/>
  <unicode hex="0062"/>
  <anchor x="202" y="0" name="H"/>
  <anchor x="311" y="694" name="U"/>
  <outline>
    <contour>
      <point x="411" y="268" type="curve"/>
      <point x="412" y="360"/>
      <point x="371" y="411"/>
      <point x="318" y="411" type="curve" smooth="yes"/>
      <point x="278" y="411"/>
      <point x="204" y="378"/>
      <point x="134" y="249" type="curve"/>
      <point x="141" y="192" type="line"/>
      <point x="190" y="290"/>
      <point x="251" y="339"/>
      <point x="270" y="339" type="curve" smooth="yes"/>
      <point x="299" y="339"/>
      <point x="322" y="300"/>
      <point x="322" y="232" type="curve" smooth="yes"/>
      <point x="322" y="193"/>
      <point x="314" y="140"/>
      <point x="290" y="102" type="curve" smooth="yes"/>
      <point x="273" y="77"/>
      <point x="249" y="54"/>
      <point x="215" y="55" type="curve" smooth="yes"/>
      <point x="185" y="56"/>
      <point x="145" y="94"/>
      <point x="145" y="125" type="curve" smooth="yes"/>
      <point x="145" y="203"/>
      <point x="212" y="548"/>
      <point x="212" y="631" type="curve" smooth="yes"/>
      <point x="212" y="658"/>
      <point x="207" y="667"/>
      <point x="189" y="667" type="curve" smooth="yes"/>
      <point x="170" y="667"/>
      <point x="94" y="641"/>
      <point x="42" y="617" type="curve"/>
      <point x="48" y="591" type="line"/>
      <point x="48" y="591"/>
      <point x="80" y="603"/>
      <point x="90" y="603" type="curve" smooth="yes"/>
      <point x="100" y="603"/>
      <point x="114" y="600"/>
      <point x="114" y="573" type="curve" smooth="yes"/>
      <point x="114" y="501"/>
      <point x="50" y="163"/>
      <point x="51" y="101" type="curve" smooth="yes"/>
      <point x="51" y="41"/>
      <point x="130" y="-18"/>
      <point x="168" y="-18" type="curve" smooth="yes"/>
      <point x="242" y="-18"/>
      <point x="304" y="29"/>
      <point x="344" y="82" type="curve" smooth="yes"/>
      <point x="388" y="140"/>
      <point x="411" y="206"/>
    </contour>
  </outline>
</glyph>
<glyph name="c" format="2">
  <advance width="391"/>
  <unicode hex="0063"/>
  <outline>
    <contour>
      <point x="362" y="381" type="curve" smooth="yes"/>
      <point x="362" y="408"/>
      <point x="335" y="444"/>
      <point x="270" y="444" type="curve" smooth="yes"/>
      <point x="148" y="444"/>
      <point x="29" y="317"/>
      <point x="29" y="156" type="curve" smooth="yes"/>
      <point x="29" y="49"/>
      <point x="81" y="-10"/>
      <point x="167" y="-10" type="curve" smooth="yes"/>
      <point x="247" y="-10"/>
      <point x="306" y="41"/>
      <point x="343" y="77" type="curve"/>
      <point x="343" y="134" type="line"/>
      <point x="292" y="83"/>
      <point x="242" y="47"/>
      <point x="194" y="47" type="curve" smooth="yes"/>
      <point x="134" y="47"/>
      <point x="114" y="108"/>
      <point x="114" y="167" type="curve" smooth="yes"/>
      <point x="114" y="239"/>
      <point x="145" y="388"/>
      <point x="242" y="392" type="curve"/>
      <point x="293" y="322" type="line"/>
      <point x="351" y="330"/>
      <point x="362" y="358"/>
    </contour>
  </outline>
</glyph>
<glyph name="d" format="2">
  <advance width="473"/>
  <unicode hex="0064"/>
  <outline>
    <contour>
      <point x="475" y="663" type="line"/>
      <point x="439" y="663" type="line"/>
      <point x="299" y="636" type="line"/>
      <point x="299" y="609" type="line"/>
      <point x="381" y="601" type="line"/>
      <point x="351" y="427" type="line"/>
      <point x="335" y="432"/>
      <point x="310" y="444"/>
      <point x="283" y="444" type="curve" smooth="yes"/>
      <point x="124" y="444"/>
      <point x="29" y="293"/>
      <point x="29" y="150" type="curve" smooth="yes"/>
      <point x="29" y="74"/>
      <point x="56" y="-10"/>
      <point x="157" y="-10" type="curve" smooth="yes"/>
      <point x="207" y="-10"/>
      <point x="254" y="23"/>
      <point x="285" y="56" type="curve"/>
      <point x="285" y="17"/>
      <point x="297" y="-10"/>
      <point x="352" y="-10" type="curve" smooth="yes"/>
      <point x="389" y="-10"/>
      <point x="456" y="14"/>
      <point x="470" y="19" type="curve"/>
      <point x="470" y="53" type="line"/>
      <point x="462" y="51"/>
      <point x="414" y="36"/>
      <point x="406" y="36" type="curve" smooth="yes"/>
      <point x="397" y="36"/>
      <point x="367" y="43"/>
      <point x="373" y="77" type="curve" smooth="yes"/>
    </contour>
    <contour>
      <point x="338" y="354" type="curve"/>
      <point x="297" y="117" type="line"/>
      <point x="264" y="79"/>
      <point x="218" y="43"/>
      <point x="186" y="43" type="curve" smooth="yes"/>
      <point x="151" y="43"/>
      <point x="116" y="78"/>
      <point x="116" y="155" type="curve" smooth="yes"/>
      <point x="116" y="296"/>
      <point x="194" y="404"/>
      <point x="281" y="404" type="curve" smooth="yes"/>
      <point x="304" y="404"/>
      <point x="339" y="359"/>
    </contour>
  </outline>
</glyph>
<glyph name="e" format="2">
  <advance width="371"/>
  <unicode hex="0065"/>
  <anchor x="166" y="0" name="H"/>
  <anchor x="232" y="439" name="U"/>
  <outline>
    <contour>
      <point x="351" y="333" type="curve"/>
      <point x="351" y="371"/>
      <point x="323" y="411"/>
      <point x="262" y="411" type="curve" smooth="yes"/>
      <point x="219" y="411"/>
      <point x="170" y="386"/>
      <point x="143" y="365" type="curve" smooth="yes"/>
      <point x="68" y="304"/>
      <point x="23" y="225"/>
      <point x="23" y="133" type="curve" smooth="yes"/>
      <point x="23" y="22"/>
      <point x="97" y="-18"/>
      <point x="142" y="-18" type="curve" smooth="yes"/>
      <point x="191" y="-18"/>
      <point x="245" y="6"/>
      <point x="341" y="90" type="curve"/>
      <point x="339" y="94"/>
      <point x="330" y="113"/>
      <point x="323" y="116" type="curve"/>
      <point x="252" y="60"/>
      <point x="206" y="44"/>
      <point x="181" y="44" type="curve" smooth="yes"/>
      <point x="146" y="44"/>
      <point x="112" y="95"/>
      <point x="112" y="172" type="curve" smooth="yes"/>
      <point x="112" y="236"/>
      <point x="139" y="293"/>
      <point x="174" y="330" type="curve" smooth="yes"/>
      <point x="189" y="347"/>
      <point x="211" y="356"/>
      <point x="221" y="356" type="curve" smooth="yes"/>
      <point x="238" y="356"/>
      <point x="254" y="342"/>
      <point x="254" y="312" type="curve" smooth="yes"/>
      <point x="254" y="268"/>
      <point x="238" y="235"/>
      <point x="71" y="169" type="curve"/>
      <point x="74" y="128" type="line"/>
      <point x="323" y="211"/>
      <point x="351" y="282"/>
    </contour>
  </outline>
</glyph>
<glyph name="f" format="2">
  <advance width="289"/>
  <unicode hex="0066"/>
  <outline>
    <contour>
      <point x="396" y="607" type="curve" smooth="yes"/>
      <point x="396" y="628"/>
      <point x="375" y="663"/>
      <point x="314" y="663" type="curve" smooth="yes"/>
      <point x="190" y="663"/>
      <point x="136" y="514"/>
      <point x="118" y="419" type="curve"/>
      <point x="40" y="393" type="line"/>
      <point x="39" y="358" type="line"/>
      <point x="108" y="365" type="line"/>
      <point x="90" y="247"/>
      <point x="79" y="140"/>
      <point x="64" y="55" type="curve" smooth="yes"/>
      <point x="50" y="-27"/>
      <point x="29" y="-102"/>
      <point x="-1" y="-141" type="curve"/>
      <point x="-93" y="-117" type="line"/>
      <point x="-107" y="-127"/>
      <point x="-116" y="-138"/>
      <point x="-116" y="-161" type="curve" smooth="yes"/>
      <point x="-116" y="-170"/>
      <point x="-106" y="-206"/>
      <point x="-60" y="-206" type="curve" smooth="yes"/>
      <point x="29" y="-206"/>
      <point x="114" y="-80"/>
      <point x="138" y="19" type="curve" smooth="yes"/>
      <point x="154" y="86"/>
      <point x="187" y="325"/>
      <point x="192" y="366" type="curve"/>
      <point x="310" y="366" type="line"/>
      <point x="310" y="411" type="line"/>
      <point x="200" y="411" type="line"/>
      <point x="206" y="457"/>
      <point x="232" y="584"/>
      <point x="269" y="615" type="curve"/>
      <point x="340" y="558" type="line"/>
      <point x="373" y="563"/>
      <point x="396" y="578"/>
    </contour>
  </outline>
</glyph>
<glyph name="g" format="2">
  <advance width="395"/>
  <unicode hex="0067"/>
  <anchor x="128" y="-189" name="H"/>
  <anchor x="252" y="483" name="U"/>
  <outline>
    <contour>
      <point x="436" y="378" type="line"/>
      <point x="436" y="420" type="line"/>
      <point x="314" y="420" type="line"/>
      <point x="303" y="427"/>
      <point x="268" y="444"/>
      <point x="225" y="444" type="curve" smooth="yes"/>
      <point x="110" y="444"/>
      <point x="43" y="353"/>
      <point x="43" y="266" type="curve" smooth="yes"/>
      <point x="43" y="208"/>
      <point x="79" y="175"/>
      <point x="127" y="154" type="curve"/>
      <point x="102" y="130"/>
      <point x="86" y="77"/>
      <point x="91" y="49" type="curve"/>
      <point x="25" y="27"/>
      <point x="-27" y="-13"/>
      <point x="-27" y="-74" type="curve" smooth="yes"/>
      <point x="-27" y="-143"/>
      <point x="26" y="-206"/>
      <point x="145" y="-206" type="curve" smooth="yes"/>
      <point x="259" y="-206"/>
      <point x="372" y="-138"/>
      <point x="372" y="-61" type="curve" smooth="yes"/>
      <point x="372" y="-8"/>
      <point x="335" y="12"/>
      <point x="280" y="37" type="curve" smooth="yes"/>
      <point x="160" y="92" type="line"/>
      <point x="157" y="102"/>
      <point x="162" y="128"/>
      <point x="170" y="146" type="curve"/>
      <point x="274" y="146"/>
      <point x="365" y="204"/>
      <point x="365" y="318" type="curve" smooth="yes"/>
      <point x="365" y="342"/>
      <point x="359" y="365"/>
      <point x="353" y="378" type="curve"/>
    </contour>
    <contour>
      <point x="279" y="322" type="curve" smooth="yes"/>
      <point x="279" y="266"/>
      <point x="241" y="180"/>
      <point x="181" y="180" type="curve" smooth="yes"/>
      <point x="149" y="180"/>
      <point x="129" y="211"/>
      <point x="129" y="254" type="curve" smooth="yes"/>
      <point x="129" y="339"/>
      <point x="183" y="406"/>
      <point x="226" y="406" type="curve" smooth="yes"/>
      <point x="262" y="406"/>
      <point x="279" y="367"/>
    </contour>
    <contour>
      <point x="288" y="-79" type="curve" smooth="yes"/>
      <point x="288" y="-108"/>
      <point x="254" y="-164"/>
      <point x="168" y="-164" type="curve" smooth="yes"/>
      <point x="91" y="-164"/>
      <point x="56" y="-100"/>
      <point x="56" y="-59" type="curve" smooth="yes"/>
      <point x="56" y="-23"/>
      <point x="72" y="13"/>
      <point x="130" y="27" type="curve"/>
      <point x="243" y="-23" type="line" smooth="yes"/>
      <point x="278" y="-39"/>
      <point x="288" y="-57"/>
    </contour>
  </outline>
</glyph>
<glyph name="h" format="2">
  <advance width="471"/>
  <unicode hex="0068"/>
  <outline>
    <contour>
      <point x="469" y="22" type="curve"/>
      <point x="468" y="54" type="line"/>
      <point x="448" y="47"/>
      <point x="428" y="36"/>
      <point x="412" y="36" type="curve" smooth="yes"/>
      <point x="401" y="36"/>
      <point x="367" y="46"/>
      <point x="374" y="80" type="curve" smooth="yes"/>
      <point x="424" y="322" type="line" smooth="yes"/>
      <point x="441" y="404"/>
      <point x="404" y="444"/>
      <point x="338" y="444" type="curve" smooth="yes"/>
      <point x="278" y="444"/>
      <point x="213" y="413"/>
      <point x="176" y="372" type="curve"/>
      <point x="236" y="663" type="line"/>
      <point x="200" y="663" type="line"/>
      <point x="60" y="636" type="line"/>
      <point x="60" y="609" type="line"/>
      <point x="140" y="601" type="line"/>
      <point x="16" y="0" type="line"/>
      <point x="98" y="0" type="line"/>
      <point x="164" y="315" type="line"/>
      <point x="204" y="356"/>
      <point x="260" y="385"/>
      <point x="288" y="385" type="curve" smooth="yes"/>
      <point x="308" y="385"/>
      <point x="348" y="360"/>
      <point x="338" y="313" type="curve" smooth="yes"/>
      <point x="283" y="47" type="line" smooth="yes"/>
      <point x="273" y="0"/>
      <point x="327" y="-10"/>
      <point x="349" y="-10" type="curve" smooth="yes"/>
      <point x="387" y="-10"/>
      <point x="454" y="17"/>
    </contour>
  </outline>
</glyph>
<glyph name="i" format="2">
  <advance width="239"/>
  <unicode hex="0069"/>
  <anchor x="85" y="0" name="H"/>
  <anchor x="183" y="483" name="U"/>
  <outline>
    <contour>
      <point x="232" y="577" type="curve" smooth="yes"/>
      <point x="232" y="602"/>
      <point x="213" y="627"/>
      <point x="179" y="627" type="curve" smooth="yes"/>
      <point x="143" y="627"/>
      <point x="122" y="600"/>
      <point x="122" y="577" type="curve" smooth="yes"/>
      <point x="122" y="548"/>
      <point x="141" y="526"/>
      <point x="178" y="526" type="curve" smooth="yes"/>
      <point x="213" y="526"/>
      <point x="232" y="550"/>
    </contour>
    <contour>
      <point x="236" y="25" type="curve"/>
      <point x="236" y="60" type="line"/>
      <point x="225" y="56"/>
      <point x="183" y="38"/>
      <point x="163" y="38" type="curve" smooth="yes"/>
      <point x="138" y="38"/>
      <point x="123" y="60"/>
      <point x="127" y="84" type="curve" smooth="yes"/>
      <point x="195" y="444" type="line"/>
      <point x="159" y="444" type="line"/>
      <point x="23" y="416" type="line"/>
      <point x="23" y="390" type="line"/>
      <point x="100" y="382" type="line"/>
      <point x="43" y="77" type="line" smooth="yes"/>
      <point x="35" y="36"/>
      <point x="43" y="-10"/>
      <point x="105" y="-10" type="curve" smooth="yes"/>
      <point x="154" y="-10"/>
      <point x="223" y="19"/>
    </contour>
  </outline>
</glyph>
<glyph name="j" format="2">
  <advance width="245"/>
  <unicode hex="006A"/>
  <anchor x="188" y="483" name="U"/>
  <outline>
    <contour>
      <point x="239" y="577" type="curve" smooth="yes"/>
      <point x="239" y="603"/>
      <point x="219" y="628"/>
      <point x="183" y="628" type="curve" smooth="yes"/>
      <point x="145" y="628"/>
      <point x="127" y="603"/>
      <point x="127" y="577" type="curve" smooth="yes"/>
      <point x="127" y="547"/>
      <point x="151" y="526"/>
      <point x="183" y="526" type="curve" smooth="yes"/>
      <point x="217" y="526"/>
      <point x="239" y="555"/>
    </contour>
    <contour>
      <point x="207" y="444" type="line"/>
      <point x="174" y="444" type="line"/>
      <point x="38" y="416" type="line"/>
      <point x="38" y="390" type="line"/>
      <point x="114" y="382" type="line"/>
      <point x="46" y="-10" type="line" smooth="yes"/>
      <point x="37" y="-60"/>
      <point x="16" y="-123"/>
      <point x="0" y="-142" type="curve"/>
      <point x="-90" y="-117" type="line"/>
      <point x="-99" y="-123"/>
      <point x="-116" y="-135"/>
      <point x="-116" y="-158" type="curve" smooth="yes"/>
      <point x="-116" y="-185"/>
      <point x="-93" y="-206"/>
      <point x="-55" y="-206" type="curve" smooth="yes"/>
      <point x="64" y="-206"/>
      <point x="128" y="-18"/>
      <point x="144" y="72" type="curve" smooth="yes"/>
    </contour>
  </outline>
</glyph>
<glyph name="k" format="2">
  <advance width="425"/>
  <unicode hex="006B"/>
  <anchor x="79" y="0" name="H"/>
  <anchor x="286" y="694" name="U"/>
  <outline>
    <contour>
      <point x="430" y="379" type="curve"/>
      <point x="430" y="399"/>
      <point x="422" y="408"/>
      <point x="390" y="408" type="curve" smooth="yes"/>
      <point x="353" y="408"/>
      <point x="310" y="400"/>
      <point x="267" y="394" type="curve"/>
      <point x="270" y="368" type="line"/>
      <point x="300" y="369"/>
      <point x="314" y="366"/>
      <point x="314" y="358" type="curve" smooth="yes"/>
      <point x="314" y="346"/>
      <point x="287" y="325"/>
      <point x="240" y="290" type="curve" smooth="yes"/>
      <point x="148" y="221" type="line"/>
      <point x="199" y="206" type="line"/>
      <point x="290" y="261" type="line" smooth="yes"/>
      <point x="377" y="315"/>
      <point x="430" y="362"/>
    </contour>
    <contour>
      <point x="215" y="622" type="curve" smooth="yes"/>
      <point x="215" y="664"/>
      <point x="205" y="667"/>
      <point x="189" y="667" type="curve" smooth="yes"/>
      <point x="170" y="667"/>
      <point x="92" y="639"/>
      <point x="43" y="617" type="curve"/>
      <point x="50" y="591" type="line"/>
      <point x="61" y="595"/>
      <point x="87" y="603"/>
      <point x="95" y="603" type="curve" smooth="yes"/>
      <point x="109" y="603"/>
      <point x="116" y="601"/>
      <point x="116" y="572" type="curve" smooth="yes"/>
      <point x="116" y="483"/>
      <point x="42" y="65"/>
      <point x="33" y="-2" type="curve"/>
      <point x="50" y="-18" type="line"/>
      <point x="65" y="-10"/>
      <point x="124" y="15"/>
      <point x="140" y="22" type="curve"/>
      <point x="123" y="83"/>
      <point x="215" y="509"/>
    </contour>
    <contour>
      <point x="423" y="43" type="curve"/>
      <point x="411" y="66" type="line"/>
      <point x="395" y="57"/>
      <point x="374" y="53"/>
      <point x="357" y="53" type="curve" smooth="yes"/>
      <point x="317" y="53"/>
      <point x="268" y="215"/>
      <point x="216" y="246" type="curve"/>
      <point x="148" y="221" type="line"/>
      <point x="196" y="187"/>
      <point x="250" y="-17"/>
      <point x="314" y="-17" type="curve" smooth="yes"/>
      <point x="339" y="-17"/>
      <point x="384" y="10"/>
    </contour>
  </outline>
</glyph>
<glyph name="l" format="2">
  <advance width="238"/>
  <unicode hex="006C"/>
  <outline>
    <contour>
      <point x="236" y="23" type="curve"/>
      <point x="236" y="57" type="line"/>
      <point x="226" y="54"/>
      <point x="181" y="39"/>
      <point x="163" y="39" type="curve" smooth="yes"/>
      <point x="141" y="39"/>
      <point x="121" y="59"/>
      <point x="121" y="77" type="curve" smooth="yes"/>
      <point x="121" y="81"/>
      <point x="121" y="84"/>
      <point x="122" y="89" type="curve" smooth="yes"/>
      <point x="232" y="663" type="line"/>
      <point x="197" y="663" type="line"/>
      <point x="56" y="636" type="line"/>
      <point x="56" y="609" type="line"/>
      <point x="136" y="601" type="line"/>
      <point x="37" y="86" type="line" smooth="yes"/>
      <point x="35" y="74"/>
      <point x="35" y="63"/>
      <point x="35" y="54" type="curve" smooth="yes"/>
      <point x="35" y="16"/>
      <point x="56" y="-10"/>
      <point x="111" y="-10" type="curve" smooth="yes"/>
      <point x="153" y="-10"/>
      <point x="222" y="17"/>
    </contour>
  </outline>
</glyph>
<glyph name="m" format="2">
  <advance width="698"/>
  <unicode hex="006D"/>
  <outline>
    <contour>
      <point x="695" y="23" type="curve"/>
      <point x="695" y="54" type="line"/>
      <point x="673" y="46"/>
      <point x="653" y="37"/>
      <point x="638" y="37" type="curve" smooth="yes"/>
      <point x="615" y="37"/>
      <point x="595" y="58"/>
      <point x="600" y="87" type="curve" smooth="yes"/>
      <point x="650" y="330" type="line" smooth="yes"/>
      <point x="664" y="399"/>
      <point x="633" y="444"/>
      <point x="573" y="444" type="curve" smooth="yes"/>
      <point x="518" y="444"/>
      <point x="452" y="405"/>
      <point x="409" y="361" type="curve"/>
      <point x="405" y="394"/>
      <point x="389" y="444"/>
      <point x="329" y="444" type="curve" smooth="yes"/>
      <point x="276" y="444"/>
      <point x="217" y="404"/>
      <point x="173" y="361" type="curve"/>
      <point x="190" y="444" type="line"/>
      <point x="153" y="444" type="line"/>
      <point x="18" y="416" type="line"/>
      <point x="18" y="390" type="line"/>
      <point x="93" y="382" type="line"/>
      <point x="16" y="0" type="line"/>
      <point x="98" y="0" type="line"/>
      <point x="162" y="302" type="line"/>
      <point x="180" y="324"/>
      <point x="237" y="381"/>
      <point x="279" y="381" type="curve" smooth="yes"/>
      <point x="318" y="381"/>
      <point x="325" y="332"/>
      <point x="317" y="293" type="curve" smooth="yes"/>
      <point x="257" y="0" type="line"/>
      <point x="341" y="0" type="line"/>
      <point x="404" y="304" type="line"/>
      <point x="416" y="324"/>
      <point x="469" y="381"/>
      <point x="524" y="381" type="curve" smooth="yes"/>
      <point x="547" y="381"/>
      <point x="571" y="352"/>
      <point x="558" y="292" type="curve" smooth="yes"/>
      <point x="509" y="52" type="line" smooth="yes"/>
      <point x="501" y="10"/>
      <point x="533" y="-10"/>
      <point x="582" y="-10" type="curve" smooth="yes"/>
      <point x="617" y="-10"/>
      <point x="664" y="10"/>
    </contour>
  </outline>
</glyph>
<glyph name="n" format="2">
  <advance width="464"/>
  <unicode hex="006E"/>
  <anchor x="325" y="0" name="H"/>
  <anchor x="266" y="439" name="U"/>
  <outline>
    <contour>
      <point x="451" y="42" type="curve"/>
      <point x="442" y="67" type="line"/>
      <point x="419" y="57"/>
      <point x="405" y="53"/>
      <point x="391" y="53" type="curve" smooth="yes"/>
      <point x="381" y="53"/>
      <point x="375" y="59"/>
      <point x="375" y="79" type="curve" smooth="yes"/>
      <point x="375" y="127"/>
      <point x="414" y="278"/>
      <point x="414" y="339" type="curve" smooth="yes"/>
      <point x="414" y="395"/>
      <point x="393" y="411"/>
      <point x="356" y="411" type="curve" smooth="yes"/>
      <point x="304" y="411"/>
      <point x="239" y="380"/>
      <point x="175" y="311" type="curve"/>
      <point x="177" y="325"/>
      <point x="178" y="349"/>
      <point x="178" y="361" type="curve" smooth="yes"/>
      <point x="178" y="403"/>
      <point x="175" y="411"/>
      <point x="159" y="411" type="curve" smooth="yes"/>
      <point x="142" y="411"/>
      <point x="65" y="382"/>
      <point x="16" y="361" type="curve"/>
      <point x="23" y="335" type="line"/>
      <point x="33" y="338"/>
      <point x="60" y="346"/>
      <point x="68" y="346" type="curve" smooth="yes"/>
      <point x="79" y="346"/>
      <point x="85" y="344"/>
      <point x="85" y="317" type="curve" smooth="yes"/>
      <point x="85" y="275"/>
      <point x="61" y="114"/>
      <point x="37" y="-2" type="curve"/>
      <point x="54" y="-18" type="line"/>
      <point x="68" y="-10"/>
      <point x="125" y="15"/>
      <point x="141" y="21" type="curve"/>
      <point x="140" y="52"/>
      <point x="141" y="79"/>
      <point x="151" y="132" type="curve" smooth="yes"/>
      <point x="161" y="188"/>
      <point x="169" y="226"/>
      <point x="186" y="254" type="curve" smooth="yes"/>
      <point x="223" y="316"/>
      <point x="274" y="341"/>
      <point x="290" y="341" type="curve" smooth="yes"/>
      <point x="311" y="341"/>
      <point x="316" y="327"/>
      <point x="316" y="290" type="curve" smooth="yes"/>
      <point x="316" y="250"/>
      <point x="279" y="64"/>
      <point x="279" y="33" type="curve" smooth="yes"/>
      <point x="279" y="1"/>
      <point x="293" y="-18"/>
      <point x="314" y="-18" type="curve" smooth="yes"/>
      <point x="341" y="-18"/>
      <point x="398" y="10"/>
    </contour>
  </outline>
</glyph>
<glyph name="o" format="2">
  <advance width="455"/>
  <unicode hex="006F"/>
  <outline>
    <contour>
      <point x="427" y="269" type="curve" smooth="yes"/>
      <point x="427" y="391"/>
      <point x="352" y="444"/>
      <point x="266" y="444" type="curve" smooth="yes"/>
      <point x="125" y="444"/>
      <point x="27" y="304"/>
      <point x="27" y="159" type="curve" smooth="yes"/>
      <point x="27" y="54"/>
      <point x="89" y="-10"/>
      <point x="188" y="-10" type="curve" smooth="yes"/>
      <point x="326" y="-10"/>
      <point x="427" y="124"/>
    </contour>
    <contour>
      <point x="336" y="273" type="curve" smooth="yes"/>
      <point x="336" y="167"/>
      <point x="284" y="29"/>
      <point x="199" y="29" type="curve" smooth="yes"/>
      <point x="153" y="29"/>
      <point x="118" y="74"/>
      <point x="118" y="163" type="curve" smooth="yes"/>
      <point x="118" y="280"/>
      <point x="178" y="406"/>
      <point x="256" y="406" type="curve" smooth="yes"/>
      <point x="302" y="406"/>
      <point x="336" y="359"/>
    </contour>
  </outline>
</glyph>
<glyph name="p" format="2">
  <advance width="441"/>
  <unicode hex="0070"/>
  <anchor x="38" y="-198" name="H"/>
  <anchor x="255" y="439" name="U"/>
  <outline>
    <contour>
      <point x="410" y="275" type="curve"/>
      <point x="410" y="363"/>
      <point x="368" y="411"/>
      <point x="319" y="411" type="curve" smooth="yes"/>
      <point x="277" y="411"/>
      <point x="225" y="394"/>
      <point x="146" y="280" type="curve"/>
      <point x="148" y="210" type="line"/>
      <point x="186" y="291"/>
      <point x="247" y="340"/>
      <point x="272" y="340" type="curve" smooth="yes"/>
      <point x="296" y="340"/>
      <point x="320" y="300"/>
      <point x="320" y="231" type="curve" smooth="yes"/>
      <point x="320" y="190"/>
      <point x="315" y="141"/>
      <point x="298" y="105" type="curve" smooth="yes"/>
      <point x="286" y="79"/>
      <point x="264" y="61"/>
      <point x="237" y="61" type="curve" smooth="yes"/>
      <point x="200" y="61"/>
      <point x="151" y="103"/>
      <point x="134" y="135" type="curve"/>
      <point x="118" y="85" type="line"/>
      <point x="154" y="30"/>
      <point x="199" y="-18"/>
      <point x="235" y="-18" type="curve" smooth="yes"/>
      <point x="284" y="-18"/>
      <point x="327" y="31"/>
      <point x="354" y="76" type="curve" smooth="yes"/>
      <point x="388" y="133"/>
      <point x="410" y="210"/>
    </contour>
    <contour>
      <point x="174" y="382" type="curve"/>
      <point x="174" y="405"/>
      <point x="166" y="411"/>
      <point x="152" y="411" type="curve" smooth="yes"/>
      <point x="133" y="411"/>
      <point x="58" y="384"/>
      <point x="7" y="360" type="curve"/>
      <point x="14" y="335" type="line"/>
      <point x="23" y="338"/>
      <point x="48" y="345"/>
      <point x="56" y="345" type="curve" smooth="yes"/>
      <point x="66" y="345"/>
      <point x="76" y="343"/>
      <point x="76" y="316" type="curve" smooth="yes"/>
      <point x="76" y="241"/>
      <point x="1" y="-137"/>
      <point x="-7" y="-204" type="curve"/>
      <point x="9" y="-219" type="line"/>
      <point x="24" y="-212"/>
      <point x="82" y="-189"/>
      <point x="99" y="-185" type="curve"/>
      <point x="93" y="-169"/>
      <point x="97" y="-118"/>
      <point x="116" y="2" type="curve" smooth="yes"/>
      <point x="155" y="246"/>
      <point x="174" y="344"/>
    </contour>
  </outline>
</glyph>
<glyph name="q" format="2">
  <advance width="469"/>
  <unicode hex="0071"/>
  <anchor x="314" y="483" name="U"/>
  <outline>
    <contour>
      <point x="442" y="444" type="line"/>
      <point x="388" y="444" type="line"/>
      <point x="366" y="418" type="line"/>
      <point x="350" y="431"/>
      <point x="319" y="444"/>
      <point x="281" y="444" type="curve" smooth="yes"/>
      <point x="131" y="444"/>
      <point x="29" y="290"/>
      <point x="29" y="152" type="curve" smooth="yes"/>
      <point x="29" y="44"/>
      <point x="80" y="-10"/>
      <point x="152" y="-10" type="curve" smooth="yes"/>
      <point x="195" y="-10"/>
      <point x="239" y="13"/>
      <point x="280" y="47" type="curve"/>
      <point x="243" y="-139" type="line" smooth="yes"/>
      <point x="241" y="-151"/>
      <point x="232" y="-156"/>
      <point x="221" y="-157" type="curve" smooth="yes"/>
      <point x="173" y="-162" type="line"/>
      <point x="173" y="-195" type="line"/>
      <point x="400" y="-195" type="line"/>
      <point x="400" y="-162" type="line"/>
      <point x="344" y="-157" type="line" smooth="yes"/>
      <point x="328" y="-155"/>
      <point x="324" y="-149"/>
      <point x="326" y="-139" type="curve" smooth="yes"/>
    </contour>
    <contour>
      <point x="339" y="349" type="curve"/>
      <point x="290" y="101" type="line"/>
      <point x="259" y="73"/>
      <point x="225" y="43"/>
      <point x="188" y="43" type="curve" smooth="yes"/>
      <point x="144" y="43"/>
      <point x="116" y="87"/>
      <point x="116" y="155" type="curve" smooth="yes"/>
      <point x="116" y="296"/>
      <point x="195" y="403"/>
      <point x="293" y="403" type="curve" smooth="yes"/>
      <point x="306" y="403"/>
      <point x="341" y="362"/>
    </contour>
  </outline>
</glyph>
<glyph name="r" format="2">
  <advance width="336"/>
  <unicode hex="0072"/>
  <outline>
    <contour>
      <point x="368" y="384" type="curve" smooth="yes"/>
      <point x="368" y="408"/>
      <point x="353" y="444"/>
      <point x="310" y="444" type="curve" smooth="yes"/>
      <point x="256" y="444"/>
      <point x="208" y="410"/>
      <point x="171" y="353" type="curve"/>
      <point x="190" y="444" type="line"/>
      <point x="154" y="444" type="line"/>
      <point x="18" y="416" type="line"/>
      <point x="18" y="390" type="line"/>
      <point x="94" y="382" type="line"/>
      <point x="17" y="0" type="line"/>
      <point x="100" y="0" type="line"/>
      <point x="147" y="226" type="line" smooth="yes"/>
      <point x="158" y="279"/>
      <point x="222" y="360"/>
      <point x="266" y="379" type="curve"/>
      <point x="287" y="336" type="line"/>
      <point x="336" y="336"/>
      <point x="368" y="341"/>
    </contour>
  </outline>
</glyph>
<glyph name="s" format="2">
  <advance width="333"/>
  <unicode hex="0073"/>
  <outline>
    <contour>
      <point x="314" y="388" type="curve" smooth="yes"/>
      <point x="314" y="409"/>
      <point x="290" y="444"/>
      <point x="223" y="444" type="curve" smooth="yes"/>
      <point x="149" y="444"/>
      <point x="61" y="396"/>
      <point x="61" y="308" type="curve" smooth="yes"/>
      <point x="61" y="263"/>
      <point x="97" y="223"/>
      <point x="134" y="195" type="curve" smooth="yes"/>
      <point x="177" y="161"/>
      <point x="207" y="136"/>
      <point x="207" y="99" type="curve" smooth="yes"/>
      <point x="207" y="54"/>
      <point x="174" y="25"/>
      <point x="137" y="25" type="curve" smooth="yes"/>
      <point x="107" y="25"/>
      <point x="89" y="39"/>
      <point x="76" y="57" type="curve"/>
      <point x="93" y="101" type="line"/>
      <point x="87" y="107"/>
      <point x="68" y="120"/>
      <point x="46" y="120" type="curve" smooth="yes"/>
      <point x="10" y="120"/>
      <point x="-7" y="100"/>
      <point x="-7" y="72" type="curve" smooth="yes"/>
      <point x="-7" y="30"/>
      <point x="31" y="-10"/>
      <point x="118" y="-10" type="curve" smooth="yes"/>
      <point x="230" y="-10"/>
      <point x="290" y="56"/>
      <point x="290" y="130" type="curve" smooth="yes"/>
      <point x="290" y="174"/>
      <point x="252" y="208"/>
      <point x="213" y="240" type="curve" smooth="yes"/>
      <point x="174" y="271"/>
      <point x="133" y="305"/>
      <point x="133" y="338" type="curve" smooth="yes"/>
      <point x="133" y="361"/>
      <point x="146" y="400"/>
      <point x="186" y="400" type="curve" smooth="yes"/>
      <point x="197" y="400"/>
      <point x="205" y="395"/>
      <point x="209" y="393" type="curve"/>
      <point x="249" y="338" type="line"/>
      <point x="289" y="341"/>
      <point x="314" y="356"/>
    </contour>
  </outline>
</glyph>
<glyph name="t" format="2">
  <advance width="269"/>
  <unicode hex="0074"/>
  <outline>
    <contour>
      <point x="314" y="377" type="line"/>
      <point x="314" y="418" type="line"/>
      <point x="189" y="418" type="line"/>
      <point x="207" y="521" type="line"/>
      <point x="152" y="521" type="line"/>
      <point x="108" y="431" type="line"/>
      <point x="41" y="401" type="line"/>
      <point x="41" y="371" type="line"/>
      <point x="97" y="377" type="line"/>
      <point x="43" y="103" type="line" smooth="yes"/>
      <point x="40" y="90"/>
      <point x="39" y="78"/>
      <point x="39" y="66" type="curve" smooth="yes"/>
      <point x="39" y="22"/>
      <point x="59" y="-10"/>
      <point x="124" y="-10" type="curve" smooth="yes"/>
      <point x="176" y="-10"/>
      <point x="255" y="23"/>
      <point x="270" y="29" type="curve"/>
      <point x="270" y="65" type="line"/>
      <point x="251" y="59"/>
      <point x="211" y="43"/>
      <point x="177" y="43" type="curve" smooth="yes"/>
      <point x="146" y="43"/>
      <point x="118" y="62"/>
      <point x="125" y="94" type="curve" smooth="yes"/>
      <point x="181" y="377" type="line"/>
    </contour>
  </outline>
</glyph>
<glyph name="u" format="2">
  <advance width="474"/>
  <unicode hex="0075"/>
  <anchor x="201" y="0" name="H"/>
  <anchor x="288" y="483" name="U"/>
  <outline>
    <contour>
      <point x="471" y="21" type="curve"/>
      <point x="471" y="53" type="line"/>
      <point x="446" y="38"/>
      <point x="426" y="36"/>
      <point x="414" y="36" type="curve" smooth="yes"/>
      <point x="395" y="36"/>
      <point x="367" y="50"/>
      <point x="375" y="87" type="curve" smooth="yes"/>
      <point x="447" y="433" type="line"/>
      <point x="363" y="433" type="line"/>
      <point x="295" y="102" type="line"/>
      <point x="261" y="71"/>
      <point x="214" y="44"/>
      <point x="170" y="44" type="curve" smooth="yes"/>
      <point x="147" y="44"/>
      <point x="117" y="71"/>
      <point x="124" y="101" type="curve" smooth="yes"/>
      <point x="195" y="444" type="line"/>
      <point x="159" y="444" type="line"/>
      <point x="23" y="416" type="line"/>
      <point x="23" y="390" type="line"/>
      <point x="98" y="382" type="line"/>
      <point x="40" y="101" type="line" smooth="yes"/>
      <point x="30" y="54"/>
      <point x="48" y="-10"/>
      <point x="132" y="-10" type="curve" smooth="yes"/>
      <point x="192" y="-10"/>
      <point x="243" y="11"/>
      <point x="290" y="56" type="curve"/>
      <point x="290" y="42"/>
      <point x="281" y="-10"/>
      <point x="349" y="-10" type="curve" smooth="yes"/>
      <point x="388" y="-10"/>
      <point x="449" y="8"/>
    </contour>
  </outline>
</glyph>
<glyph name="v" format="2">
  <advance width="415"/>
  <unicode hex="0076"/>
  <outline>
    <contour>
      <point x="420" y="390" type="curve" smooth="yes"/>
      <point x="420" y="423"/>
      <point x="403" y="444"/>
      <point x="365" y="444" type="curve" smooth="yes"/>
      <point x="342" y="444"/>
      <point x="324" y="436"/>
      <point x="313" y="424" type="curve"/>
      <point x="330" y="315" type="line"/>
      <point x="302" y="244"/>
      <point x="261" y="183"/>
      <point x="199" y="103" type="curve"/>
      <point x="171" y="380" type="line" smooth="yes"/>
      <point x="167" y="423"/>
      <point x="146" y="443"/>
      <point x="97" y="444" type="curve"/>
      <point x="1" y="414" type="line"/>
      <point x="1" y="388" type="line"/>
      <point x="65" y="385" type="line"/>
      <point x="75" y="385"/>
      <point x="80" y="379"/>
      <point x="86" y="367" type="curve" smooth="yes"/>
      <point x="104" y="318"/>
      <point x="123" y="64"/>
      <point x="123" y="57" type="curve" smooth="yes"/>
      <point x="124" y="37"/>
      <point x="117" y="15"/>
      <point x="105" y="-10" type="curve"/>
      <point x="157" y="-10" type="line"/>
      <point x="212" y="50"/>
      <point x="321" y="175"/>
      <point x="401" y="322" type="curve"/>
      <point x="406" y="334"/>
      <point x="420" y="360"/>
    </contour>
  </outline>
</glyph>
<glyph name="w" format="2">
  <advance width="631"/>
  <unicode hex="0077"/>
  <outline>
    <contour>
      <point x="635" y="391" type="curve" smooth="yes"/>
      <point x="635" y="406"/>
      <point x="624" y="444"/>
      <point x="581" y="444" type="curve" smooth="yes"/>
      <point x="550" y="444"/>
      <point x="531" y="426"/>
      <point x="527" y="422" type="curve"/>
      <point x="545" y="316" type="line"/>
      <point x="509" y="233"/>
      <point x="468" y="159"/>
      <point x="413" y="87" type="curve"/>
      <point x="390" y="430" type="line"/>
      <point x="322" y="422" type="line"/>
      <point x="276" y="315"/>
      <point x="217" y="191"/>
      <point x="170" y="105" type="curve"/>
      <point x="151" y="442" type="line"/>
      <point x="110" y="444" type="line"/>
      <point x="1" y="413" type="line"/>
      <point x="1" y="388" type="line"/>
      <point x="69" y="381" type="line"/>
      <point x="94" y="10" type="line"/>
      <point x="85" y="-10" type="line"/>
      <point x="152" y="-10" type="line"/>
      <point x="202" y="66"/>
      <point x="265" y="182"/>
      <point x="318" y="296" type="curve"/>
      <point x="338" y="-10" type="line"/>
      <point x="394" y="-10" type="line"/>
      <point x="412" y="10"/>
      <point x="635" y="290"/>
    </contour>
  </outline>
</glyph>
<glyph name="x" format="2">
  <advance width="475"/>
  <unicode hex="0078"/>
  <outline>
    <contour>
      <point x="485" y="391" type="curve" smooth="yes"/>
      <point x="485" y="423"/>
      <point x="462" y="444"/>
      <point x="430" y="444" type="curve" smooth="yes"/>
      <point x="354" y="444"/>
      <point x="291" y="341"/>
      <point x="256" y="273" type="curve"/>
      <point x="228" y="382"/>
      <point x="197" y="444"/>
      <point x="154" y="444" type="curve" smooth="yes"/>
      <point x="143" y="444"/>
      <point x="61" y="417"/>
      <point x="46" y="412" type="curve"/>
      <point x="46" y="388" type="line"/>
      <point x="125" y="377" type="line" smooth="yes"/>
      <point x="137" y="376"/>
      <point x="186" y="254"/>
      <point x="194" y="218" type="curve"/>
      <point x="161" y="133"/>
      <point x="113" y="78"/>
      <point x="77" y="55" type="curve"/>
      <point x="39" y="91" type="line"/>
      <point x="3" y="85"/>
      <point x="-16" y="67"/>
      <point x="-16" y="38" type="curve" smooth="yes"/>
      <point x="-16" y="7"/>
      <point x="10" y="-10"/>
      <point x="46" y="-10" type="curve" smooth="yes"/>
      <point x="129" y="-10"/>
      <point x="184" y="92"/>
      <point x="217" y="155" type="curve"/>
      <point x="232" y="93"/>
      <point x="266" y="-10"/>
      <point x="325" y="-10" type="curve" smooth="yes"/>
      <point x="364" y="-10"/>
      <point x="396" y="0"/>
      <point x="431" y="18" type="curve"/>
      <point x="431" y="50" type="line"/>
      <point x="406" y="38"/>
      <point x="393" y="37"/>
      <point x="379" y="37" type="curve" smooth="yes"/>
      <point x="358" y="37"/>
      <point x="335" y="69"/>
      <point x="318" y="108" type="curve" smooth="yes"/>
      <point x="302" y="145"/>
      <point x="287" y="194"/>
      <point x="281" y="216" type="curve"/>
      <point x="316" y="299"/>
      <point x="364" y="355"/>
      <point x="395" y="368" type="curve"/>
      <point x="435" y="333" type="line"/>
      <point x="470" y="344"/>
      <point x="485" y="368"/>
    </contour>
  </outline>
</glyph>
<glyph name="y" format="2">
  <advance width="447"/>
  <unicode hex="0079"/>
  <anchor x="269" y="483" name="U"/>
  <outline>
    <contour>
      <point x="471" y="399" type="line"/>
      <point x="471" y="420" type="line"/>
      <point x="396" y="444" type="line"/>
      <point x="370" y="444" type="line"/>
      <point x="233" y="116" type="line"/>
      <point x="216" y="213"/>
      <point x="199" y="294"/>
      <point x="184" y="347" type="curve" smooth="yes"/>
      <point x="166" y="406"/>
      <point x="148" y="444"/>
      <point x="109" y="444" type="curve" smooth="yes"/>
      <point x="93" y="444"/>
      <point x="18" y="419"/>
      <point x="1" y="413" type="curve"/>
      <point x="1" y="391" type="line"/>
      <point x="83" y="385" type="line" smooth="yes"/>
      <point x="91" y="384"/>
      <point x="116" y="290"/>
      <point x="134" y="206" type="curve" smooth="yes"/>
      <point x="153" y="119"/>
      <point x="170" y="30"/>
      <point x="172" y="16" type="curve"/>
      <point x="111" y="-94"/>
      <point x="79" y="-142"/>
      <point x="42" y="-145" type="curve"/>
      <point x="-10" y="-93" type="line"/>
      <point x="-45" y="-95"/>
      <point x="-72" y="-119"/>
      <point x="-72" y="-146" type="curve" smooth="yes"/>
      <point x="-72" y="-169"/>
      <point x="-54" y="-206"/>
      <point x="11" y="-206" type="curve" smooth="yes"/>
      <point x="97" y="-206"/>
      <point x="170" y="-109"/>
      <point x="225" y="-14" type="curve" smooth="yes"/>
      <point x="283" y="82"/>
      <point x="327" y="194"/>
      <point x="352" y="251" type="curve" smooth="yes"/>
      <point x="369" y="289"/>
      <point x="412" y="358"/>
      <point x="426" y="371" type="curve"/>
    </contour>
  </outline>
</glyph>
<glyph name="z" format="2">
  <advance width="341"/>
  <unicode hex="007A"/>
  <anchor x="158" y="0" name="H"/>
  <anchor x="215" y="439" name="U"/>
  <outline>
    <contour>
      <point x="343" y="385" type="curve"/>
      <point x="332" y="402" type="line"/>
      <point x="117" y="402" type="line" smooth="yes"/>
      <point x="99" y="402"/>
      <point x="79" y="407"/>
      <point x="68" y="411" type="curve"/>
      <point x="63" y="386"/>
      <point x="47" y="328"/>
      <point x="36" y="276" type="curve"/>
      <point x="61" y="270" type="line"/>
      <point x="78" y="319"/>
      <point x="90" y="329"/>
      <point x="117" y="329" type="curve" smooth="yes"/>
      <point x="229" y="329" type="line"/>
      <point x="178" y="268"/>
      <point x="81" y="111"/>
      <point x="-5" y="5" type="curve"/>
      <point x="7" y="-13" type="line"/>
      <point x="51" y="10"/>
      <point x="77" y="20"/>
      <point x="94" y="20" type="curve" smooth="yes"/>
      <point x="127" y="20"/>
      <point x="176" y="-8"/>
      <point x="229" y="-8" type="curve" smooth="yes"/>
      <point x="286" y="-8"/>
      <point x="305" y="27"/>
      <point x="337" y="100" type="curve"/>
      <point x="315" y="113" type="line"/>
      <point x="292" y="70"/>
      <point x="275" y="65"/>
      <point x="264" y="65" type="curve" smooth="yes"/>
      <point x="230" y="65"/>
      <point x="176" y="90"/>
      <point x="152" y="90" type="curve" smooth="yes"/>
      <point x="140" y="90"/>
      <point x="125" y="86"/>
      <point x="116" y="83" type="curve"/>
      <point x="209" y="202"/>
      <point x="247" y="281"/>
    </contour>
  </outline>
</glyph>
<glyph name="braceleft" format="2">
  <advance width="437"/>
  <unicode hex="007B"/>
  <outline>
    <contour>
      <point x="460" y="632" type="line"/>
      <point x="387" y="632"/>
      <point x="334" y="625"/>
      <point x="297" y="600" type="curve" smooth="yes"/>
      <point x="199" y="534"/>
      <point x="240" y="372"/>
      <point x="173" y="308" type="curve" smooth="yes"/>
      <point x="147" y="282"/>
      <point x="109" y="281"/>
      <point x="60" y="281" type="curve"/>
      <point x="52" y="240" type="line"/>
      <point x="87" y="240"/>
      <point x="126" y="243"/>
      <point x="147" y="223" type="curve" smooth="yes"/>
      <point x="209" y="168"/>
      <point x="95" y="0"/>
      <point x="163" y="-73" type="curve" smooth="yes"/>
      <point x="193" y="-106"/>
      <point x="250" y="-110"/>
      <point x="315" y="-110" type="curve"/>
      <point x="322" y="-72" type="line"/>
      <point x="294" y="-72"/>
      <point x="262" y="-71"/>
      <point x="243" y="-54" type="curve" smooth="yes"/>
      <point x="183" y="-3"/>
      <point x="297" y="159"/>
      <point x="223" y="229" type="curve" smooth="yes"/>
      <point x="208" y="243"/>
      <point x="188" y="252"/>
      <point x="162" y="261" type="curve"/>
      <point x="207" y="273"/>
      <point x="236" y="290"/>
      <point x="256" y="309" type="curve" smooth="yes"/>
      <point x="324" y="377"/>
      <point x="292" y="504"/>
      <point x="354" y="563" type="curve" smooth="yes"/>
      <point x="374" y="582"/>
      <point x="405" y="595"/>
      <point x="453" y="595" type="curve"/>
    </contour>
  </outline>
</glyph>
<glyph name="bar" format="2">
  <advance width="318"/>
  <unicode hex="007C"/>
  <outline>
    <contour>
      <point x="186" y="-232" type="line"/>
      <point x="186" y="716" type="line"/>
      <point x="131" y="716" type="line"/>
      <point x="131" y="-232" type="line"/>
    </contour>
  </outline>
</glyph>
<glyph name="braceright" format="2">
  <advance width="437"/>
  <unicode hex="007D"/>
  <outline>
    <contour>
      <point x="394" y="281" type="line"/>
      <point x="359" y="281"/>
      <point x="320" y="279"/>
      <point x="298" y="298" type="curve" smooth="yes"/>
      <point x="236" y="353"/>
      <point x="351" y="522"/>
      <point x="283" y="595" type="curve" smooth="yes"/>
      <point x="252" y="628"/>
      <point x="195" y="632"/>
      <point x="131" y="632" type="curve"/>
      <point x="123" y="595" type="line"/>
      <point x="152" y="595"/>
      <point x="183" y="593"/>
      <point x="203" y="577" type="curve" smooth="yes"/>
      <point x="262" y="526"/>
      <point x="148" y="362"/>
      <point x="224" y="292" type="curve" smooth="yes"/>
      <point x="237" y="279"/>
      <point x="257" y="268"/>
      <point x="284" y="261" type="curve"/>
      <point x="238" y="248"/>
      <point x="209" y="232"/>
      <point x="189" y="212" type="curve" smooth="yes"/>
      <point x="121" y="145"/>
      <point x="153" y="17"/>
      <point x="92" y="-41" type="curve" smooth="yes"/>
      <point x="72" y="-60"/>
      <point x="41" y="-72"/>
      <point x="-7" y="-72" type="curve"/>
      <point x="-13" y="-110" type="line"/>
      <point x="59" y="-110"/>
      <point x="111" y="-103"/>
      <point x="149" y="-78" type="curve" smooth="yes"/>
      <point x="246" y="-12"/>
      <point x="206" y="149"/>
      <point x="272" y="213" type="curve" smooth="yes"/>
      <point x="298" y="239"/>
      <point x="336" y="240"/>
      <point x="386" y="240" type="curve"/>
    </contour>
  </outline>
</glyph>
<glyph name="exclamdown" format="2">
  <advance width="304"/>
  <unicode hex="00A1"/>
  <outline>
    <contour>
      <point x="240" y="394" type="curve" smooth="yes"/>
      <point x="240" y="427"/>
      <point x="209" y="444"/>
      <point x="183" y="444" type="curve" smooth="yes"/>
      <point x="148" y="444"/>
      <point x="123" y="421"/>
      <point x="123" y="390" type="curve" smooth="yes"/>
      <point x="123" y="361"/>
      <point x="151" y="338"/>
      <point x="183" y="338" type="curve" smooth="yes"/>
      <point x="216" y="338"/>
      <point x="240" y="362"/>
    </contour>
    <contour>
      <point x="196" y="284" type="line"/>
      <point x="139" y="284" type="line"/>
      <point x="139" y="284"/>
      <point x="32" y="-112"/>
      <point x="32" y="-133" type="curve" smooth="yes"/>
      <point x="32" y="-159"/>
      <point x="45" y="-177"/>
      <point x="79" y="-177" type="curve" smooth="yes"/>
      <point x="116" y="-177"/>
      <point x="143" y="-158"/>
      <point x="150" y="-108" type="curve" smooth="yes"/>
    </contour>
  </outline>
</glyph>
<glyph name="cent" format="2">
  <advance width="500"/>
  <unicode hex="00A2"/>
  <outline>
    <contour>
      <point x="467" y="420" type="line"/>
      <point x="428" y="435"/>
      <point x="398" y="443"/>
      <point x="340" y="444" type="curve"/>
      <point x="357" y="532" type="line"/>
      <point x="302" y="532" type="line"/>
      <point x="284" y="442" type="line"/>
      <point x="132" y="420"/>
      <point x="49" y="282"/>
      <point x="49" y="154" type="curve" smooth="yes"/>
      <point x="49" y="80"/>
      <point x="97" y="7"/>
      <point x="199" y="-7" type="curve"/>
      <point x="181" y="-98" type="line"/>
      <point x="236" y="-98" type="line"/>
      <point x="254" y="-10" type="line"/>
      <point x="314" y="-10"/>
      <point x="354" y="-4"/>
      <point x="390" y="16" type="curve"/>
      <point x="409" y="148" type="line"/>
      <point x="355" y="148" type="line"/>
      <point x="353" y="134"/>
      <point x="343" y="50"/>
      <point x="311" y="43" type="curve" smooth="yes"/>
      <point x="308" y="42"/>
      <point x="287" y="36"/>
      <point x="261" y="33" type="curve"/>
      <point x="332" y="401" type="line"/>
      <point x="358" y="398"/>
      <point x="374" y="388"/>
      <point x="377" y="387" type="curve"/>
      <point x="403" y="379"/>
      <point x="395" y="300"/>
      <point x="394" y="286" type="curve"/>
      <point x="448" y="286" type="line"/>
    </contour>
    <contour>
      <point x="275" y="393" type="curve"/>
      <point x="208" y="39" type="line"/>
      <point x="165" y="57"/>
      <point x="140" y="98"/>
      <point x="140" y="166" type="curve" smooth="yes"/>
      <point x="140" y="271"/>
      <point x="197" y="362"/>
    </contour>
  </outline>
</glyph>
<glyph name="sterling" format="2">
  <advance width="393"/>
  <unicode hex="00A3"/>
  <outline>
    <contour>
      <point x="394" y="511" type="curve"/>
      <point x="348" y="539"/>
      <point x="313" y="542"/>
      <point x="284" y="542" type="curve" smooth="yes"/>
      <point x="157" y="542"/>
      <point x="74" y="426"/>
      <point x="63" y="254" type="curve" smooth="yes"/>
      <point x="51" y="81"/>
      <point x="34" y="61"/>
      <point x="-23" y="14" type="curve"/>
      <point x="-14" y="-13" type="line"/>
      <point x="72" y="41"/>
      <point x="241" y="-43"/>
      <point x="319" y="0" type="curve"/>
      <point x="326" y="17"/>
      <point x="344" y="76"/>
      <point x="355" y="127" type="curve"/>
      <point x="331" y="137" type="line"/>
      <point x="299" y="68"/>
      <point x="279" y="56"/>
      <point x="229" y="55" type="curve" smooth="yes"/>
      <point x="170" y="53"/>
      <point x="162" y="61"/>
      <point x="88" y="55" type="curve"/>
      <point x="128" y="105"/>
      <point x="156" y="174"/>
      <point x="159" y="261" type="curve" smooth="yes"/>
      <point x="167" y="477"/>
      <point x="223" y="492"/>
      <point x="260" y="492" type="curve" smooth="yes"/>
      <point x="310" y="492"/>
      <point x="335" y="452"/>
      <point x="333" y="380" type="curve"/>
      <point x="360" y="380" type="line"/>
      <point x="369" y="402"/>
      <point x="389" y="482"/>
    </contour>
    <contour>
      <point x="279" y="267" type="line"/>
      <point x="269" y="279" type="line"/>
      <point x="23" y="279" type="line"/>
      <point x="19" y="270"/>
      <point x="9" y="253"/>
      <point x="6" y="244" type="curve"/>
      <point x="14" y="231" type="line"/>
      <point x="260" y="231" type="line"/>
    </contour>
  </outline>
</glyph>
<glyph name="yen" format="2">
  <advance width="393"/>
  <unicode hex="00A5"/>
  <outline>
    <contour>
      <point x="460" y="532" type="line"/>
      <point x="304" y="532" type="line"/>
      <point x="301" y="505" type="line"/>
      <point x="338" y="499"/>
      <point x="349" y="492"/>
      <point x="340" y="476" type="curve" smooth="yes"/>
      <point x="232" y="296" type="line"/>
      <point x="213" y="367"/>
      <point x="176" y="462"/>
      <point x="143" y="519" type="curve" smooth="yes"/>
      <point x="137" y="531"/>
      <point x="124" y="538"/>
      <point x="113" y="538" type="curve" smooth="yes"/>
      <point x="92" y="538"/>
      <point x="39" y="529"/>
      <point x="9" y="522" type="curve"/>
      <point x="9" y="495" type="line"/>
      <point x="50" y="498"/>
      <point x="59" y="492"/>
      <point x="68" y="477" type="curve" smooth="yes"/>
      <point x="100" y="421"/>
      <point x="140" y="317"/>
      <point x="162" y="229" type="curve"/>
      <point x="161" y="222" type="line"/>
      <point x="58" y="222" type="line"/>
      <point x="54" y="213"/>
      <point x="45" y="194"/>
      <point x="41" y="185" type="curve"/>
      <point x="48" y="174" type="line"/>
      <point x="155" y="174" type="line"/>
      <point x="140" y="58" type="line" smooth="yes"/>
      <point x="139" y="50"/>
      <point x="123" y="38"/>
      <point x="76" y="27" type="curve"/>
      <point x="72" y="0" type="line"/>
      <point x="278" y="0" type="line"/>
      <point x="282" y="27" type="line"/>
      <point x="236" y="38"/>
      <point x="224" y="51"/>
      <point x="225" y="58" type="curve" smooth="yes"/>
      <point x="240" y="174" type="line"/>
      <point x="337" y="174" type="line"/>
      <point x="355" y="212" type="line"/>
      <point x="346" y="222" type="line"/>
      <point x="246" y="222" type="line"/>
      <point x="247" y="226" type="line"/>
      <point x="396" y="476" type="line" smooth="yes"/>
      <point x="405" y="491"/>
      <point x="421" y="498"/>
      <point x="456" y="505" type="curve"/>
    </contour>
  </outline>
</glyph>
<glyph name="section" format="2">
  <advance width="450"/>
  <unicode hex="00A7"/>
  <outline>
    <contour>
      <point x="448" y="623" type="line"/>
      <point x="413" y="638"/>
      <point x="363" y="645"/>
      <point x="325" y="645" type="curve" smooth="yes"/>
      <point x="221" y="645"/>
      <point x="117" y="600"/>
      <point x="117" y="493" type="curve" smooth="yes"/>
      <point x="117" y="451"/>
      <point x="145" y="423"/>
      <point x="186" y="397" type="curve"/>
      <point x="108" y="364"/>
      <point x="52" y="310"/>
      <point x="52" y="230" type="curve" smooth="yes"/>
      <point x="52" y="187"/>
      <point x="72" y="158"/>
      <point x="99" y="134" type="curve" smooth="yes"/>
      <point x="145" y="97"/>
      <point x="261" y="62"/>
      <point x="261" y="1" type="curve" smooth="yes"/>
      <point x="261" y="-53"/>
      <point x="198" y="-81"/>
      <point x="159" y="-81" type="curve" smooth="yes"/>
      <point x="137" y="-81"/>
      <point x="110" y="-75"/>
      <point x="86" y="-59" type="curve"/>
      <point x="89" y="20" type="line"/>
      <point x="31" y="20" type="line"/>
      <point x="10" y="-96" type="line"/>
      <point x="50" y="-116"/>
      <point x="95" y="-126"/>
      <point x="143" y="-126" type="curve" smooth="yes"/>
      <point x="244" y="-126"/>
      <point x="345" y="-65"/>
      <point x="345" y="34" type="curve" smooth="yes"/>
      <point x="345" y="76"/>
      <point x="315" y="106"/>
      <point x="272" y="130" type="curve"/>
      <point x="345" y="161"/>
      <point x="412" y="225"/>
      <point x="412" y="298" type="curve" smooth="yes"/>
      <point x="412" y="340"/>
      <point x="392" y="370"/>
      <point x="364" y="393" type="curve" smooth="yes"/>
      <point x="300" y="445"/>
      <point x="203" y="462"/>
      <point x="203" y="522" type="curve" smooth="yes"/>
      <point x="203" y="576"/>
      <point x="265" y="602"/>
      <point x="301" y="602" type="curve" smooth="yes"/>
      <point x="324" y="602"/>
      <point x="350" y="595"/>
      <point x="375" y="579" type="curve"/>
      <point x="371" y="505" type="line"/>
      <point x="425" y="505" type="line"/>
    </contour>
    <contour>
      <point x="325" y="274" type="curve" smooth="yes"/>
      <point x="325" y="225"/>
      <point x="286" y="181"/>
      <point x="235" y="151" type="curve"/>
      <point x="155" y="192"/>
      <point x="137" y="217"/>
      <point x="137" y="260" type="curve" smooth="yes"/>
      <point x="137" y="297"/>
      <point x="162" y="352"/>
      <point x="229" y="377" type="curve"/>
      <point x="303" y="343"/>
      <point x="325" y="313"/>
    </contour>
  </outline>
</glyph>
<glyph name="copyright" format="2">
  <advance width="753"/>
  <unicode hex="00A9"/>
  <outline>
    <contour>
      <point x="740" y="315" type="curve" smooth="yes"/>
      <point x="740" y="504"/>
      <point x="588" y="663"/>
      <point x="395" y="663" type="curve" smooth="yes"/>
      <point x="203" y="663"/>
      <point x="48" y="506"/>
      <point x="48" y="315" type="curve" smooth="yes"/>
      <point x="48" y="124"/>
      <point x="204" y="-32"/>
      <point x="394" y="-32" type="curve" smooth="yes"/>
      <point x="585" y="-32"/>
      <point x="740" y="124"/>
    </contour>
    <contour>
      <point x="701" y="315" type="curve" smooth="yes"/>
      <point x="701" y="145"/>
      <point x="563" y="5"/>
      <point x="394" y="5" type="curve" smooth="yes"/>
      <point x="225" y="5"/>
      <point x="87" y="145"/>
      <point x="87" y="315" type="curve" smooth="yes"/>
      <point x="87" y="486"/>
      <point x="225" y="625"/>
      <point x="395" y="625" type="curve" smooth="yes"/>
      <point x="565" y="625"/>
      <point x="701" y="485"/>
    </contour>
    <contour>
      <point x="536" y="124" type="curve"/>
      <point x="536" y="237" type="line"/>
      <point x="496" y="237" type="line"/>
      <point x="484" y="161" type="line"/>
      <point x="468" y="153"/>
      <point x="439" y="144"/>
      <point x="409" y="144" type="curve" smooth="yes"/>
      <point x="339" y="144"/>
      <point x="270" y="206"/>
      <point x="270" y="316" type="curve" smooth="yes"/>
      <point x="270" y="423"/>
      <point x="341" y="484"/>
      <point x="418" y="484" type="curve" smooth="yes"/>
      <point x="443" y="484"/>
      <point x="468" y="474"/>
      <point x="482" y="465" type="curve"/>
      <point x="495" y="396" type="line"/>
      <point x="536" y="396" type="line"/>
      <point x="536" y="504" type="line"/>
      <point x="496" y="515"/>
      <point x="456" y="526"/>
      <point x="409" y="526" type="curve" smooth="yes"/>
      <point x="275" y="526"/>
      <point x="188" y="439"/>
      <point x="188" y="315" type="curve" smooth="yes"/>
      <point x="188" y="201"/>
      <point x="267" y="102"/>
      <point x="408" y="102" type="curve" smooth="yes"/>
      <point x="475" y="102"/>
      <point x="533" y="123"/>
    </contour>
  </outline>
</glyph>
<glyph name="ordfeminine" format="2">
  <advance width="266"/>
  <unicode hex="00AA"/>
  <outline>
    <contour>
      <point x="260" y="346" type="curve"/>
      <point x="254" y="359" type="line"/>
      <point x="242" y="354"/>
      <point x="236" y="353"/>
      <point x="230" y="353" type="curve" smooth="yes"/>
      <point x="222" y="353"/>
      <point x="219" y="366"/>
      <point x="219" y="392" type="curve" smooth="yes"/>
      <point x="219" y="406"/>
      <point x="223" y="457"/>
      <point x="234" y="502" type="curve" smooth="yes"/>
      <point x="238" y="522"/>
      <point x="242" y="526"/>
      <point x="253" y="534" type="curve"/>
      <point x="246" y="547" type="line"/>
      <point x="225" y="537"/>
      <point x="191" y="518"/>
      <point x="187" y="504" type="curve" smooth="yes"/>
      <point x="184" y="485"/>
      <point x="169" y="400"/>
      <point x="169" y="382" type="curve" smooth="yes"/>
      <point x="169" y="332"/>
      <point x="187" y="317"/>
      <point x="198" y="317" type="curve" smooth="yes"/>
      <point x="210" y="317"/>
      <point x="233" y="329"/>
    </contour>
    <contour>
      <point x="239" y="521" type="curve"/>
      <point x="228" y="522"/>
      <point x="204" y="547"/>
      <point x="180" y="547" type="curve" smooth="yes"/>
      <point x="155" y="547"/>
      <point x="132" y="537"/>
      <point x="115" y="525" type="curve" smooth="yes"/>
      <point x="70" y="494"/>
      <point x="43" y="449"/>
      <point x="43" y="398" type="curve" smooth="yes"/>
      <point x="43" y="340"/>
      <point x="76" y="317"/>
      <point x="101" y="317" type="curve" smooth="yes"/>
      <point x="124" y="317"/>
      <point x="150" y="347"/>
      <point x="170" y="377" type="curve"/>
      <point x="177" y="425" type="line"/>
      <point x="154" y="387"/>
      <point x="130" y="357"/>
      <point x="116" y="357" type="curve" smooth="yes"/>
      <point x="102" y="357"/>
      <point x="91" y="379"/>
      <point x="91" y="416" type="curve" smooth="yes"/>
      <point x="91" y="453"/>
      <point x="113" y="518"/>
      <point x="156" y="518" type="curve" smooth="yes"/>
      <point x="182" y="518"/>
      <point x="208" y="481"/>
      <point x="217" y="481" type="curve" smooth="yes"/>
      <point x="224" y="481"/>
      <point x="225" y="511"/>
    </contour>
    <contour>
      <point x="254" y="281" type="curve"/>
      <point x="243" y="293" type="line"/>
      <point x="33" y="293" type="line"/>
      <point x="30" y="285"/>
      <point x="24" y="277"/>
      <point x="21" y="268" type="curve"/>
      <point x="31" y="257" type="line"/>
      <point x="242" y="257" type="line"/>
      <point x="244" y="265"/>
      <point x="251" y="272"/>
    </contour>
  </outline>
</glyph>
<glyph name="guillemetleft" format="2">
  <advance width="366"/>
  <unicode hex="00AB"/>
  <outline>
    <contour>
      <point x="111" y="0" type="line"/>
      <point x="152" y="0" type="line"/>
      <point x="93" y="216" type="line"/>
      <point x="239" y="433" type="line"/>
      <point x="199" y="433" type="line"/>
      <point x="26" y="239" type="line"/>
      <point x="17" y="193" type="line"/>
    </contour>
    <contour>
      <point x="265" y="0" type="line"/>
      <point x="305" y="0" type="line"/>
      <point x="246" y="216" type="line"/>
      <point x="393" y="433" type="line"/>
      <point x="353" y="433" type="line"/>
      <point x="180" y="239" type="line"/>
      <point x="170" y="193" type="line"/>
    </contour>
  </outline>
</glyph>
<glyph name="logicalnot" format="2">
  <advance width="393"/>
  <unicode hex="00AC"/>
  <outline>
    <contour>
      <point x="359" y="264" type="line"/>
      <point x="347" y="275" type="line"/>
      <point x="347" y="275"/>
      <point x="357" y="275"/>
      <point x="42" y="275" type="curve"/>
      <point x="35" y="264"/>
      <point x="23" y="242"/>
      <point x="19" y="230" type="curve"/>
      <point x="29" y="217" type="line"/>
      <point x="298" y="217" type="line"/>
      <point x="282" y="108" type="line"/>
      <point x="293" y="95" type="line"/>
      <point x="306" y="100"/>
      <point x="328" y="113"/>
      <point x="339" y="122" type="curve"/>
    </contour>
  </outline>
</glyph>
<glyph name="registered" format="2">
  <advance width="753"/>
  <unicode hex="00AE"/>
  <outline>
    <contour>
      <point x="740" y="315" type="curve" smooth="yes"/>
      <point x="740" y="507"/>
      <point x="584" y="663"/>
      <point x="395" y="663" type="curve" smooth="yes"/>
      <point x="203" y="663"/>
      <point x="48" y="506"/>
      <point x="48" y="315" type="curve" smooth="yes"/>
      <point x="48" y="123"/>
      <point x="204" y="-32"/>
      <point x="393" y="-32" type="curve" smooth="yes"/>
      <point x="585" y="-32"/>
      <point x="740" y="123"/>
    </contour>
    <contour>
      <point x="701" y="315" type="curve" smooth="yes"/>
      <point x="701" y="145"/>
      <point x="564" y="5"/>
      <point x="394" y="5" type="curve" smooth="yes"/>
      <point x="224" y="5"/>
      <point x="87" y="145"/>
      <point x="87" y="313" type="curve" smooth="yes"/>
      <point x="87" y="488"/>
      <point x="226" y="625"/>
      <point x="395" y="625" type="curve" smooth="yes"/>
      <point x="564" y="625"/>
      <point x="701" y="486"/>
    </contour>
    <contour>
      <point x="618" y="127" type="curve"/>
      <point x="618" y="152" type="line"/>
      <point x="460" y="152"/>
      <point x="574" y="287"/>
      <point x="431" y="319" type="curve"/>
      <point x="486" y="331"/>
      <point x="537" y="356"/>
      <point x="537" y="417" type="curve" smooth="yes"/>
      <point x="537" y="494"/>
      <point x="477" y="522"/>
      <point x="379" y="522" type="curve" smooth="yes"/>
      <point x="212" y="522" type="line"/>
      <point x="212" y="496" type="line"/>
      <point x="246" y="493" type="line" smooth="yes"/>
      <point x="255" y="493"/>
      <point x="260" y="486"/>
      <point x="260" y="481" type="curve" smooth="yes"/>
      <point x="260" y="168" type="line" smooth="yes"/>
      <point x="260" y="163"/>
      <point x="255" y="156"/>
      <point x="246" y="155" type="curve" smooth="yes"/>
      <point x="212" y="152" type="line"/>
      <point x="212" y="127" type="line"/>
      <point x="371" y="127" type="line"/>
      <point x="371" y="152" type="line"/>
      <point x="337" y="155" type="line" smooth="yes"/>
      <point x="327" y="156"/>
      <point x="323" y="163"/>
      <point x="323" y="168" type="curve" smooth="yes"/>
      <point x="323" y="302" type="line"/>
      <point x="325" y="302"/>
      <point x="340" y="303"/>
      <point x="353" y="303" type="curve" smooth="yes"/>
      <point x="511" y="303"/>
      <point x="406" y="123"/>
      <point x="566" y="123" type="curve" smooth="yes"/>
      <point x="584" y="123"/>
      <point x="613" y="127"/>
    </contour>
    <contour>
      <point x="467" y="414" type="curve" smooth="yes"/>
      <point x="467" y="352"/>
      <point x="428" y="331"/>
      <point x="357" y="331" type="curve" smooth="yes"/>
      <point x="347" y="331"/>
      <point x="325" y="332"/>
      <point x="323" y="332" type="curve"/>
      <point x="323" y="493" type="line"/>
      <point x="325" y="493"/>
      <point x="354" y="493"/>
      <point x="354" y="493" type="curve"/>
      <point x="435" y="493"/>
      <point x="467" y="464"/>
    </contour>
  </outline>
</glyph>
<glyph name="plusminus" format="2">
  <advance width="352"/>
  <unicode hex="00B1"/>
  <outline>
    <contour>
      <point x="236" y="440" type="line"/>
      <point x="225" y="452" type="line"/>
      <point x="213" y="449"/>
      <point x="186" y="441"/>
      <point x="176" y="437" type="curve"/>
      <point x="136" y="156" type="line"/>
      <point x="147" y="145" type="line"/>
      <point x="160" y="147"/>
      <point x="186" y="155"/>
      <point x="197" y="160" type="curve"/>
    </contour>
    <contour>
      <point x="306" y="105" type="curve"/>
      <point x="296" y="118" type="line"/>
      <point x="28" y="118" type="line"/>
      <point x="22" y="107"/>
      <point x="10" y="84"/>
      <point x="5" y="72" type="curve"/>
      <point x="15" y="59" type="line"/>
      <point x="284" y="59" type="line"/>
      <point x="289" y="68"/>
      <point x="302" y="93"/>
    </contour>
    <contour>
      <point x="335" y="315" type="curve"/>
      <point x="325" y="328" type="line"/>
      <point x="56" y="328" type="line"/>
      <point x="50" y="317"/>
      <point x="38" y="294"/>
      <point x="34" y="281" type="curve"/>
      <point x="44" y="269" type="line"/>
      <point x="313" y="269" type="line"/>
      <point x="318" y="278"/>
      <point x="331" y="303"/>
    </contour>
  </outline>
</glyph>
<glyph name="SupTwo" format="2">
  <advance width="324"/>
  <unicode hex="00B2"/>
  <outline>
    <contour>
      <point x="358" y="631" type="curve" smooth="yes"/>
      <point x="358" y="692"/>
      <point x="307" y="712"/>
      <point x="252" y="712" type="curve" smooth="yes"/>
      <point x="181" y="712"/>
      <point x="113" y="669"/>
      <point x="113" y="626" type="curve" smooth="yes"/>
      <point x="113" y="603"/>
      <point x="136" y="601"/>
      <point x="144" y="601" type="curve" smooth="yes"/>
      <point x="163" y="601"/>
      <point x="175" y="611"/>
      <point x="175" y="611" type="curve"/>
      <point x="187" y="667" type="line"/>
      <point x="192" y="669"/>
      <point x="211" y="678"/>
      <point x="235" y="678" type="curve" smooth="yes"/>
      <point x="272" y="678"/>
      <point x="295" y="661"/>
      <point x="295" y="624" type="curve" smooth="yes"/>
      <point x="295" y="548"/>
      <point x="217" y="493"/>
      <point x="50" y="384" type="curve"/>
      <point x="42" y="344" type="line"/>
      <point x="315" y="344" type="line"/>
      <point x="333" y="439" type="line"/>
      <point x="300" y="439" type="line"/>
      <point x="281" y="394" type="line"/>
      <point x="125" y="394" type="line"/>
      <point x="199" y="442"/>
      <point x="358" y="530"/>
    </contour>
  </outline>
</glyph>
<glyph name="twosuperior" format="2">
  <advance width="275"/>
  <unicode hex="00B2"/>
  <anchor x="188" y="615" name="U"/>
  <outline>
    <contour>
      <point x="284" y="535" type="curve"/>
      <point x="284" y="577"/>
      <point x="244" y="593"/>
      <point x="198" y="592" type="curve" smooth="yes"/>
      <point x="130" y="592"/>
      <point x="68" y="546"/>
      <point x="63" y="509" type="curve"/>
      <point x="70" y="495" type="line"/>
      <point x="87" y="497"/>
      <point x="117" y="504"/>
      <point x="130" y="510" type="curve"/>
      <point x="131" y="535"/>
      <point x="145" y="562"/>
      <point x="175" y="562" type="curve" smooth="yes"/>
      <point x="201" y="562"/>
      <point x="215" y="550"/>
      <point x="215" y="524" type="curve" smooth="yes"/>
      <point x="215" y="480"/>
      <point x="165" y="416"/>
      <point x="18" y="288" type="curve"/>
      <point x="22" y="267" type="line"/>
      <point x="241" y="267" type="line"/>
      <point x="260" y="354" type="line"/>
      <point x="238" y="359" type="line"/>
      <point x="238" y="359"/>
      <point x="227" y="309"/>
      <point x="201" y="309" type="curve" smooth="yes"/>
      <point x="91" y="309" type="line"/>
      <point x="246" y="443"/>
      <point x="284" y="491"/>
    </contour>
  </outline>
</glyph>
<glyph name="threesuperior" format="2">
  <advance width="324"/>
  <unicode hex="00B3"/>
  <outline>
    <contour>
      <point x="359" y="635" type="curve" smooth="yes"/>
      <point x="359" y="687"/>
      <point x="318" y="712"/>
      <point x="257" y="712" type="curve" smooth="yes"/>
      <point x="193" y="712"/>
      <point x="118" y="682"/>
      <point x="118" y="635" type="curve" smooth="yes"/>
      <point x="118" y="614"/>
      <point x="137" y="606"/>
      <point x="147" y="606" type="curve" smooth="yes"/>
      <point x="159" y="606"/>
      <point x="178" y="614"/>
      <point x="178" y="614" type="curve"/>
      <point x="186" y="664" type="line"/>
      <point x="190" y="668"/>
      <point x="210" y="681"/>
      <point x="238" y="681" type="curve" smooth="yes"/>
      <point x="264" y="681"/>
      <point x="297" y="667"/>
      <point x="297" y="628" type="curve" smooth="yes"/>
      <point x="297" y="582"/>
      <point x="251" y="546"/>
      <point x="176" y="550" type="curve"/>
      <point x="170" y="512" type="line"/>
      <point x="170" y="512"/>
      <point x="188" y="515"/>
      <point x="209" y="515" type="curve" smooth="yes"/>
      <point x="235" y="515"/>
      <point x="275" y="507"/>
      <point x="275" y="461" type="curve" smooth="yes"/>
      <point x="275" y="411"/>
      <point x="231" y="370"/>
      <point x="171" y="370" type="curve" smooth="yes"/>
      <point x="150" y="370"/>
      <point x="133" y="379"/>
      <point x="127" y="382" type="curve"/>
      <point x="118" y="428" type="line"/>
      <point x="118" y="428"/>
      <point x="108" y="432"/>
      <point x="95" y="432" type="curve" smooth="yes"/>
      <point x="66" y="432"/>
      <point x="60" y="410"/>
      <point x="60" y="399" type="curve" smooth="yes"/>
      <point x="60" y="372"/>
      <point x="92" y="338"/>
      <point x="165" y="338" type="curve" smooth="yes"/>
      <point x="259" y="338"/>
      <point x="337" y="397"/>
      <point x="337" y="468" type="curve" smooth="yes"/>
      <point x="337" y="511"/>
      <point x="304" y="532"/>
      <point x="266" y="539" type="curve"/>
      <point x="326" y="558"/>
      <point x="359" y="595"/>
    </contour>
  </outline>
</glyph>
<glyph name="mu" format="2">
  <advance width="492"/>
  <unicode hex="00B5"/>
  <outline>
    <contour>
      <point x="469" y="97" type="curve"/>
      <point x="451" y="97" type="line"/>
      <point x="443" y="76"/>
      <point x="430" y="40"/>
      <point x="402" y="40" type="curve" smooth="yes"/>
      <point x="366" y="40"/>
      <point x="384" y="102"/>
      <point x="388" y="123" type="curve" smooth="yes"/>
      <point x="450" y="433" type="line"/>
      <point x="366" y="433" type="line"/>
      <point x="301" y="108" type="line"/>
      <point x="271" y="79"/>
      <point x="235" y="45"/>
      <point x="191" y="45" type="curve" smooth="yes"/>
      <point x="159" y="45"/>
      <point x="142" y="69"/>
      <point x="142" y="98" type="curve" smooth="yes"/>
      <point x="142" y="126"/>
      <point x="147" y="152"/>
      <point x="152" y="177" type="curve" smooth="yes"/>
      <point x="203" y="433" type="line"/>
      <point x="119" y="433" type="line"/>
      <point x="52" y="90" type="line" smooth="yes"/>
      <point x="43" y="43"/>
      <point x="31" y="-3"/>
      <point x="15" y="-49" type="curve"/>
      <point x="2" y="-81"/>
      <point x="-25" y="-127"/>
      <point x="-25" y="-162" type="curve" smooth="yes"/>
      <point x="-25" y="-181"/>
      <point x="-15" y="-199"/>
      <point x="5" y="-199" type="curve" smooth="yes"/>
      <point x="57" y="-199"/>
      <point x="61" y="-134"/>
      <point x="61" y="-96" type="curve" smooth="yes"/>
      <point x="61" y="-53"/>
      <point x="63" y="-13"/>
      <point x="72" y="29" type="curve"/>
      <point x="83" y="0"/>
      <point x="115" y="-10"/>
      <point x="144" y="-10" type="curve" smooth="yes"/>
      <point x="203" y="-10"/>
      <point x="255" y="38"/>
      <point x="296" y="76" type="curve"/>
      <point x="293" y="31"/>
      <point x="304" y="-10"/>
      <point x="357" y="-10" type="curve" smooth="yes"/>
      <point x="420" y="-10"/>
      <point x="455" y="42"/>
    </contour>
  </outline>
</glyph>
<glyph name="paragraph" format="2">
  <advance width="437"/>
  <unicode hex="00B6"/>
  <outline>
    <contour>
      <point x="434" y="571" type="line"/>
      <point x="434" y="603" type="line"/>
      <point x="257" y="603" type="line" smooth="yes"/>
      <point x="123" y="603"/>
      <point x="45" y="559"/>
      <point x="45" y="427" type="curve" smooth="yes"/>
      <point x="45" y="287"/>
      <point x="136" y="252"/>
      <point x="266" y="252" type="curve"/>
      <point x="266" y="566" type="line"/>
      <point x="335" y="566" type="line"/>
      <point x="335" y="-71" type="line"/>
      <point x="378" y="-71" type="line"/>
      <point x="378" y="562" type="line"/>
    </contour>
  </outline>
</glyph>
<glyph name="periodcentered" format="2">
  <advance width="199"/>
  <unicode hex="00B7"/>
  <outline>
    <contour>
      <point x="165" y="297" type="curve"/>
      <point x="165" y="324"/>
      <point x="148" y="343"/>
      <point x="118" y="343" type="curve" smooth="yes"/>
      <point x="72" y="343"/>
      <point x="41" y="297"/>
      <point x="41" y="261" type="curve" smooth="yes"/>
      <point x="41" y="233"/>
      <point x="57" y="213"/>
      <point x="89" y="213" type="curve" smooth="yes"/>
      <point x="137" y="213"/>
      <point x="165" y="260"/>
    </contour>
  </outline>
</glyph>
<glyph name="onesuperior" format="2">
  <advance width="324"/>
  <unicode hex="00B9"/>
  <outline>
    <contour>
      <point x="293" y="712" type="line"/>
      <point x="274" y="712" type="line"/>
      <point x="140" y="677" type="line"/>
      <point x="140" y="649" type="line"/>
      <point x="226" y="658" type="line"/>
      <point x="172" y="393" type="line" smooth="yes"/>
      <point x="170" y="383"/>
      <point x="165" y="377"/>
      <point x="152" y="377" type="curve" smooth="yes"/>
      <point x="103" y="375" type="line"/>
      <point x="103" y="344" type="line"/>
      <point x="279" y="344" type="line"/>
      <point x="279" y="374" type="line"/>
      <point x="240" y="377" type="line" smooth="yes"/>
      <point x="229" y="377"/>
      <point x="225" y="383"/>
      <point x="227" y="393" type="curve" smooth="yes"/>
    </contour>
  </outline>
</glyph>
<glyph name="ordmasculine" format="2">
  <advance width="296"/>
  <unicode hex="00BA"/>
  <outline>
    <contour>
      <point x="324" y="506" type="curve" smooth="yes"/>
      <point x="324" y="579"/>
      <point x="277" y="611"/>
      <point x="220" y="611" type="curve" smooth="yes"/>
      <point x="128" y="611"/>
      <point x="65" y="527"/>
      <point x="65" y="439" type="curve" smooth="yes"/>
      <point x="65" y="377"/>
      <point x="105" y="338"/>
      <point x="169" y="338" type="curve" smooth="yes"/>
      <point x="260" y="338"/>
      <point x="324" y="419"/>
    </contour>
    <contour>
      <point x="296" y="304" type="line"/>
      <point x="37" y="304" type="line"/>
      <point x="31" y="275" type="line"/>
      <point x="289" y="275" type="line"/>
    </contour>
    <contour>
      <point x="265" y="508" type="curve" smooth="yes"/>
      <point x="265" y="444"/>
      <point x="232" y="362"/>
      <point x="176" y="362" type="curve" smooth="yes"/>
      <point x="147" y="362"/>
      <point x="125" y="388"/>
      <point x="125" y="442" type="curve" smooth="yes"/>
      <point x="125" y="512"/>
      <point x="163" y="587"/>
      <point x="214" y="587" type="curve" smooth="yes"/>
      <point x="243" y="587"/>
      <point x="265" y="559"/>
    </contour>
  </outline>
</glyph>
<glyph name="guillemotright" format="2">
  <advance width="366"/>
  <unicode hex="00BB"/>
  <outline>
    <contour>
      <point x="254" y="433" type="line"/>
      <point x="213" y="433" type="line"/>
      <point x="272" y="217" type="line"/>
      <point x="125" y="0" type="line"/>
      <point x="166" y="0" type="line"/>
      <point x="339" y="194" type="line"/>
      <point x="348" y="239" type="line"/>
    </contour>
    <contour>
      <point x="100" y="433" type="line"/>
      <point x="60" y="433" type="line"/>
      <point x="119" y="217" type="line"/>
      <point x="-27" y="0" type="line"/>
      <point x="12" y="0" type="line"/>
      <point x="185" y="194" type="line"/>
      <point x="194" y="239" type="line"/>
    </contour>
  </outline>
</glyph>
<glyph name="onequarter" format="2">
  <advance width="791"/>
  <unicode hex="00BC"/>
  <outline>
    <contour>
      <point x="711" y="145" type="line"/>
      <point x="645" y="145" type="line"/>
      <point x="693" y="369" type="line"/>
      <point x="651" y="369" type="line"/>
      <point x="406" y="144" type="line"/>
      <point x="398" y="104" type="line"/>
      <point x="584" y="104" type="line"/>
      <point x="558" y="-18" type="line"/>
      <point x="611" y="-18" type="line"/>
      <point x="637" y="104" type="line"/>
      <point x="701" y="104" type="line"/>
    </contour>
    <contour>
      <point x="676" y="628" type="line"/>
      <point x="613" y="628" type="line"/>
      <point x="90" y="0" type="line"/>
      <point x="153" y="0" type="line"/>
    </contour>
    <contour>
      <point x="250" y="631" type="line"/>
      <point x="232" y="631" type="line"/>
      <point x="97" y="595" type="line"/>
      <point x="97" y="566" type="line"/>
      <point x="184" y="577" type="line"/>
      <point x="131" y="311" type="line"/>
      <point x="128" y="301"/>
      <point x="123" y="296"/>
      <point x="110" y="296" type="curve"/>
      <point x="61" y="293" type="line"/>
      <point x="61" y="262" type="line"/>
      <point x="236" y="262" type="line"/>
      <point x="236" y="292" type="line"/>
      <point x="198" y="296" type="line"/>
      <point x="188" y="296"/>
      <point x="183" y="301"/>
      <point x="185" y="311" type="curve" smooth="yes"/>
    </contour>
    <contour>
      <point x="624" y="296" type="line"/>
      <point x="594" y="145" type="line"/>
      <point x="463" y="145" type="line"/>
    </contour>
  </outline>
</glyph>
<glyph name="onehalf" format="2">
  <advance width="791"/>
  <unicode hex="00BD"/>
  <outline>
    <contour>
      <point x="733" y="288" type="curve" smooth="yes"/>
      <point x="733" y="350"/>
      <point x="682" y="371"/>
      <point x="626" y="371" type="curve" smooth="yes"/>
      <point x="554" y="371"/>
      <point x="485" y="328"/>
      <point x="485" y="284" type="curve" smooth="yes"/>
      <point x="485" y="261"/>
      <point x="506" y="259"/>
      <point x="515" y="259" type="curve" smooth="yes"/>
      <point x="535" y="259"/>
      <point x="547" y="268"/>
      <point x="547" y="268" type="curve"/>
      <point x="558" y="324" type="line"/>
      <point x="564" y="327"/>
      <point x="584" y="336"/>
      <point x="608" y="336" type="curve" smooth="yes"/>
      <point x="645" y="336"/>
      <point x="669" y="320"/>
      <point x="669" y="282" type="curve" smooth="yes"/>
      <point x="669" y="176"/>
      <point x="498" y="90"/>
      <point x="420" y="39" type="curve"/>
      <point x="412" y="0" type="line"/>
      <point x="688" y="0" type="line"/>
      <point x="708" y="94" type="line"/>
      <point x="675" y="94" type="line"/>
      <point x="655" y="50" type="line"/>
      <point x="496" y="50" type="line"/>
      <point x="570" y="97"/>
      <point x="733" y="188"/>
    </contour>
    <contour>
      <point x="676" y="628" type="line"/>
      <point x="613" y="628" type="line"/>
      <point x="90" y="0" type="line"/>
      <point x="153" y="0" type="line"/>
    </contour>
    <contour>
      <point x="250" y="631" type="line"/>
      <point x="232" y="631" type="line"/>
      <point x="97" y="595" type="line"/>
      <point x="97" y="566" type="line"/>
      <point x="184" y="577" type="line"/>
      <point x="131" y="311" type="line"/>
      <point x="128" y="301"/>
      <point x="123" y="296"/>
      <point x="110" y="296" type="curve"/>
      <point x="61" y="293" type="line"/>
      <point x="61" y="262" type="line"/>
      <point x="236" y="262" type="line"/>
      <point x="236" y="292" type="line"/>
      <point x="198" y="296" type="line"/>
      <point x="188" y="296"/>
      <point x="183" y="301"/>
      <point x="185" y="311" type="curve" smooth="yes"/>
    </contour>
  </outline>
</glyph>
<glyph name="threequarters" format="2">
  <advance width="791"/>
  <unicode hex="00BE"/>
  <outline>
    <contour>
      <point x="739" y="145" type="line"/>
      <point x="675" y="145" type="line"/>
      <point x="721" y="369" type="line"/>
      <point x="681" y="369" type="line"/>
      <point x="435" y="144" type="line"/>
      <point x="427" y="104" type="line"/>
      <point x="613" y="104" type="line"/>
      <point x="588" y="-18" type="line"/>
      <point x="640" y="-18" type="line"/>
      <point x="666" y="104" type="line"/>
      <point x="730" y="104" type="line"/>
    </contour>
    <contour>
      <point x="718" y="628" type="line"/>
      <point x="654" y="628" type="line"/>
      <point x="131" y="0" type="line"/>
      <point x="195" y="0" type="line"/>
    </contour>
    <contour>
      <point x="344" y="556" type="curve" smooth="yes"/>
      <point x="344" y="609"/>
      <point x="302" y="635"/>
      <point x="240" y="635" type="curve" smooth="yes"/>
      <point x="175" y="635"/>
      <point x="99" y="603"/>
      <point x="99" y="557" type="curve" smooth="yes"/>
      <point x="99" y="535"/>
      <point x="117" y="527"/>
      <point x="128" y="527" type="curve" smooth="yes"/>
      <point x="140" y="527"/>
      <point x="160" y="535"/>
      <point x="160" y="535" type="curve"/>
      <point x="168" y="586" type="line"/>
      <point x="172" y="590"/>
      <point x="192" y="602"/>
      <point x="221" y="602" type="curve" smooth="yes"/>
      <point x="248" y="602"/>
      <point x="280" y="587"/>
      <point x="280" y="548" type="curve" smooth="yes"/>
      <point x="280" y="503"/>
      <point x="235" y="467"/>
      <point x="158" y="471" type="curve"/>
      <point x="152" y="432" type="line"/>
      <point x="194" y="438"/>
      <point x="258" y="441"/>
      <point x="258" y="380" type="curve" smooth="yes"/>
      <point x="258" y="330"/>
      <point x="214" y="289"/>
      <point x="153" y="289" type="curve" smooth="yes"/>
      <point x="132" y="289"/>
      <point x="114" y="298"/>
      <point x="108" y="301" type="curve"/>
      <point x="99" y="347" type="line"/>
      <point x="99" y="347"/>
      <point x="88" y="352"/>
      <point x="75" y="352" type="curve" smooth="yes"/>
      <point x="45" y="352"/>
      <point x="40" y="329"/>
      <point x="40" y="318" type="curve" smooth="yes"/>
      <point x="40" y="290"/>
      <point x="72" y="257"/>
      <point x="147" y="257" type="curve" smooth="yes"/>
      <point x="242" y="257"/>
      <point x="321" y="316"/>
      <point x="321" y="388" type="curve" smooth="yes"/>
      <point x="321" y="432"/>
      <point x="287" y="452"/>
      <point x="250" y="458" type="curve"/>
      <point x="311" y="477"/>
      <point x="344" y="516"/>
    </contour>
    <contour>
      <point x="654" y="296" type="line"/>
      <point x="622" y="145" type="line"/>
      <point x="492" y="145" type="line"/>
    </contour>
  </outline>
</glyph>
<glyph name="questiondown" format="2">
  <advance width="437"/>
  <unicode hex="00BF"/>
  <outline>
    <contour>
      <point x="341" y="391" type="curve" smooth="yes"/>
      <point x="341" y="419"/>
      <point x="319" y="444"/>
      <point x="282" y="444" type="curve" smooth="yes"/>
      <point x="244" y="444"/>
      <point x="225" y="418"/>
      <point x="225" y="390" type="curve" smooth="yes"/>
      <point x="225" y="362"/>
      <point x="244" y="335"/>
      <point x="282" y="335" type="curve" smooth="yes"/>
      <point x="319" y="335"/>
      <point x="341" y="363"/>
    </contour>
    <contour>
      <point x="333" y="-90" type="curve" smooth="yes"/>
      <point x="333" y="-67"/>
      <point x="315" y="-54"/>
      <point x="284" y="-54" type="curve" smooth="yes"/>
      <point x="258" y="-54" type="line"/>
      <point x="204" y="-142" type="line"/>
      <point x="145" y="-142"/>
      <point x="109" y="-110"/>
      <point x="109" y="-49" type="curve" smooth="yes"/>
      <point x="109" y="51"/>
      <point x="191" y="118"/>
      <point x="273" y="144" type="curve"/>
      <point x="298" y="278" type="line"/>
      <point x="237" y="278" type="line"/>
      <point x="216" y="170" type="line"/>
      <point x="118" y="130"/>
      <point x="11" y="62"/>
      <point x="11" y="-59" type="curve" smooth="yes"/>
      <point x="11" y="-138"/>
      <point x="70" y="-188"/>
      <point x="176" y="-188" type="curve" smooth="yes"/>
      <point x="296" y="-188"/>
      <point x="333" y="-125"/>
    </contour>
  </outline>
</glyph>
<glyph name="AE" format="2">
  <advance width="664"/>
  <unicode hex="00C6"/>
  <anchor x="444" y="580" name="U"/>
  <outline>
    <contour>
      <point x="637" y="124" type="curve"/>
      <point x="613" y="134" type="line"/>
      <point x="581" y="66"/>
      <point x="560" y="48"/>
      <point x="511" y="48" type="curve" smooth="yes"/>
      <point x="469" y="48" type="line" smooth="yes"/>
      <point x="397" y="48"/>
      <point x="388" y="59"/>
      <point x="390" y="76" type="curve"/>
      <point x="418" y="279" type="line"/>
      <point x="484" y="279" type="line" smooth="yes"/>
      <point x="517" y="279"/>
      <point x="537" y="272"/>
      <point x="551" y="254" type="curve"/>
      <point x="563" y="264"/>
      <point x="584" y="292"/>
      <point x="595" y="308" type="curve"/>
      <point x="584" y="322" type="line"/>
      <point x="423" y="322" type="line"/>
      <point x="448" y="504" type="line"/>
      <point x="587" y="504" type="line" smooth="yes"/>
      <point x="608" y="504"/>
      <point x="614" y="480"/>
      <point x="609" y="426" type="curve"/>
      <point x="636" y="426" type="line"/>
      <point x="646" y="448"/>
      <point x="662" y="510"/>
      <point x="667" y="540" type="curve"/>
      <point x="655" y="553" type="line"/>
      <point x="212" y="553" type="line"/>
      <point x="208" y="526" type="line"/>
      <point x="259" y="515"/>
      <point x="279" y="508"/>
      <point x="270" y="489" type="curve" smooth="yes"/>
      <point x="50" y="57" type="line" smooth="yes"/>
      <point x="42" y="40"/>
      <point x="21" y="33"/>
      <point x="-12" y="27" type="curve"/>
      <point x="-16" y="0" type="line"/>
      <point x="150" y="0" type="line"/>
      <point x="154" y="27" type="line"/>
      <point x="114" y="32"/>
      <point x="103" y="40"/>
      <point x="112" y="57" type="curve" smooth="yes"/>
      <point x="224" y="279" type="line"/>
      <point x="328" y="279" type="line"/>
      <point x="298" y="54" type="line" smooth="yes"/>
      <point x="297" y="46"/>
      <point x="276" y="35"/>
      <point x="239" y="27" type="curve"/>
      <point x="235" y="0" type="line"/>
      <point x="604" y="0" type="line"/>
      <point x="611" y="17"/>
      <point x="626" y="74"/>
    </contour>
    <contour>
      <point x="335" y="322" type="line"/>
      <point x="246" y="322" type="line"/>
      <point x="329" y="487" type="line" smooth="yes"/>
      <point x="340" y="508"/>
      <point x="360" y="508"/>
      <point x="358" y="495" type="curve" smooth="yes"/>
    </contour>
  </outline>
</glyph>
<glyph name="Eth" format="2">
  <advance width="603"/>
  <unicode hex="00D0"/>
  <outline>
    <contour>
      <point x="25" y="293" type="line"/>
      <point x="312" y="293" type="line"/>
      <point x="312" y="341" type="line"/>
      <point x="25" y="341" type="line"/>
    </contour>
    <component base="D"/>
  </outline>
</glyph>
<glyph name="multiply" format="2">
  <advance width="900"/>
  <unicode hex="00D7"/>
  <outline>
    <contour>
      <point x="693" y="61" type="line"/>
      <point x="486" y="269" type="line"/>
      <point x="693" y="477" type="line"/>
      <point x="657" y="512" type="line"/>
      <point x="450" y="304" type="line"/>
      <point x="242" y="512" type="line"/>
      <point x="206" y="477" type="line"/>
      <point x="413" y="269" type="line"/>
      <point x="206" y="61" type="line"/>
      <point x="242" y="26" type="line"/>
      <point x="450" y="235" type="line"/>
      <point x="657" y="26" type="line"/>
    </contour>
  </outline>
</glyph>
<glyph name="Oslash" format="2">
  <advance width="638"/>
  <unicode hex="00D8"/>
  <outline>
    <contour>
      <point x="621" y="375" type="curve" smooth="yes"/>
      <point x="621" y="457"/>
      <point x="586" y="529"/>
      <point x="525" y="573" type="curve"/>
      <point x="574" y="645" type="line"/>
      <point x="528" y="674" type="line"/>
      <point x="479" y="599" type="line"/>
      <point x="450" y="611"/>
      <point x="415" y="618"/>
      <point x="377" y="618" type="curve" smooth="yes"/>
      <point x="180" y="618"/>
      <point x="43" y="429"/>
      <point x="43" y="235" type="curve" smooth="yes"/>
      <point x="43" y="154"/>
      <point x="72" y="89"/>
      <point x="120" y="44" type="curve"/>
      <point x="63" y="-43" type="line"/>
      <point x="102" y="-72" type="line"/>
      <point x="161" y="17" type="line"/>
      <point x="197" y="-3"/>
      <point x="240" y="-14"/>
      <point x="287" y="-14" type="curve" smooth="yes"/>
      <point x="499" y="-14"/>
      <point x="621" y="185"/>
    </contour>
    <contour>
      <point x="447" y="547" type="curve"/>
      <point x="168" y="116" type="line"/>
      <point x="152" y="147"/>
      <point x="145" y="185"/>
      <point x="145" y="228" type="curve" smooth="yes"/>
      <point x="145" y="388"/>
      <point x="238" y="573"/>
      <point x="370" y="573" type="curve" smooth="yes"/>
      <point x="398" y="573"/>
      <point x="424" y="564"/>
    </contour>
    <contour>
      <point x="519" y="375" type="curve" smooth="yes"/>
      <point x="519" y="221"/>
      <point x="425" y="32"/>
      <point x="294" y="32" type="curve" smooth="yes"/>
      <point x="257" y="32"/>
      <point x="224" y="46"/>
      <point x="198" y="73" type="curve"/>
      <point x="484" y="509" type="line"/>
      <point x="506" y="475"/>
      <point x="519" y="430"/>
    </contour>
  </outline>
</glyph>
<glyph name="Thorn" format="2">
  <advance width="509"/>
  <unicode hex="00DE"/>
  <anchor x="317" y="659" name="U"/>
  <outline>
    <contour>
      <point x="490" y="346" type="curve" smooth="yes"/>
      <point x="490" y="431"/>
      <point x="432" y="490"/>
      <point x="286" y="490" type="curve" smooth="yes"/>
      <point x="232" y="490" type="line"/>
      <point x="243" y="543" type="line" smooth="yes"/>
      <point x="244" y="555"/>
      <point x="254" y="560"/>
      <point x="264" y="561" type="curve" smooth="yes"/>
      <point x="316" y="566" type="line"/>
      <point x="316" y="603" type="line"/>
      <point x="84" y="603" type="line"/>
      <point x="84" y="566" type="line"/>
      <point x="134" y="561" type="line" smooth="yes"/>
      <point x="151" y="560"/>
      <point x="154" y="553"/>
      <point x="152" y="543" type="curve" smooth="yes"/>
      <point x="58" y="59" type="line"/>
      <point x="55" y="48"/>
      <point x="47" y="43"/>
      <point x="36" y="42" type="curve" smooth="yes"/>
      <point x="-15" y="37" type="line"/>
      <point x="-15" y="0" type="line"/>
      <point x="218" y="0" type="line"/>
      <point x="218" y="37" type="line"/>
      <point x="167" y="42" type="line" smooth="yes"/>
      <point x="151" y="43"/>
      <point x="147" y="50"/>
      <point x="149" y="59" type="curve" smooth="yes"/>
      <point x="159" y="113" type="line"/>
      <point x="159" y="113"/>
      <point x="199" y="112"/>
      <point x="217" y="112" type="curve" smooth="yes"/>
      <point x="373" y="112"/>
      <point x="490" y="201"/>
    </contour>
    <contour>
      <point x="396" y="332" type="curve" smooth="yes"/>
      <point x="396" y="261"/>
      <point x="362" y="216"/>
      <point x="318" y="188" type="curve" smooth="yes"/>
      <point x="275" y="163"/>
      <point x="220" y="155"/>
      <point x="168" y="160" type="curve"/>
      <point x="224" y="447" type="line"/>
      <point x="232" y="448"/>
      <point x="246" y="449"/>
      <point x="257" y="449" type="curve" smooth="yes"/>
      <point x="360" y="449"/>
      <point x="396" y="401"/>
    </contour>
  </outline>
</glyph>
<glyph name="germandbls" format="2">
  <advance width="500"/>
  <unicode hex="00DF"/>
  <anchor x="294" y="676" name="U"/>
  <outline>
    <contour>
      <point x="476" y="544" type="curve" smooth="yes"/>
      <point x="476" y="622"/>
      <point x="422" y="663"/>
      <point x="337" y="663" type="curve" smooth="yes"/>
      <point x="182" y="663"/>
      <point x="108" y="539"/>
      <point x="89" y="409" type="curve" smooth="yes"/>
      <point x="36" y="56" type="line" smooth="yes"/>
      <point x="30" y="15"/>
      <point x="8" y="-106"/>
      <point x="-27" y="-142" type="curve"/>
      <point x="-120" y="-117" type="line"/>
      <point x="-135" y="-129"/>
      <point x="-144" y="-143"/>
      <point x="-144" y="-157" type="curve" smooth="yes"/>
      <point x="-144" y="-186"/>
      <point x="-126" y="-206"/>
      <point x="-88" y="-206" type="curve" smooth="yes"/>
      <point x="-12" y="-206"/>
      <point x="70" y="-95"/>
      <point x="91" y="-36" type="curve" smooth="yes"/>
      <point x="148" y="118"/>
      <point x="135" y="285"/>
      <point x="178" y="443" type="curve" smooth="yes"/>
      <point x="204" y="540"/>
      <point x="250" y="619"/>
      <point x="332" y="619" type="curve" smooth="yes"/>
      <point x="371" y="619"/>
      <point x="401" y="595"/>
      <point x="401" y="546" type="curve" smooth="yes"/>
      <point x="401" y="509"/>
      <point x="392" y="470"/>
      <point x="381" y="432" type="curve"/>
      <point x="302" y="425"/>
      <point x="235" y="374"/>
      <point x="235" y="299" type="curve" smooth="yes"/>
      <point x="235" y="252"/>
      <point x="271" y="222"/>
      <point x="308" y="193" type="curve" smooth="yes"/>
      <point x="350" y="162"/>
      <point x="383" y="137"/>
      <point x="383" y="101" type="curve" smooth="yes"/>
      <point x="383" y="52"/>
      <point x="346" y="25"/>
      <point x="308" y="25" type="curve" smooth="yes"/>
      <point x="287" y="25"/>
      <point x="269" y="33"/>
      <point x="250" y="56" type="curve"/>
      <point x="267" y="101" type="line"/>
      <point x="250" y="112"/>
      <point x="240" y="118"/>
      <point x="220" y="118" type="curve" smooth="yes"/>
      <point x="184" y="118"/>
      <point x="166" y="97"/>
      <point x="166" y="72" type="curve" smooth="yes"/>
      <point x="166" y="11"/>
      <point x="232" y="-10"/>
      <point x="294" y="-10" type="curve" smooth="yes"/>
      <point x="387" y="-10"/>
      <point x="465" y="42"/>
      <point x="465" y="131" type="curve" smooth="yes"/>
      <point x="465" y="175"/>
      <point x="426" y="208"/>
      <point x="387" y="239" type="curve" smooth="yes"/>
      <point x="347" y="270"/>
      <point x="307" y="298"/>
      <point x="307" y="332" type="curve" smooth="yes"/>
      <point x="307" y="383"/>
      <point x="371" y="393"/>
      <point x="401" y="393" type="curve" smooth="yes"/>
      <point x="413" y="393"/>
      <point x="424" y="392"/>
      <point x="446" y="390" type="curve"/>
      <point x="460" y="439"/>
      <point x="476" y="492"/>
    </contour>
  </outline>
</glyph>
<glyph name="ae" format="2">
  <advance width="670"/>
  <unicode hex="00E6"/>
  <anchor x="312" y="0" name="H"/>
  <anchor x="410" y="483" name="U"/>
  <outline>
    <contour>
      <point x="654" y="353" type="curve" smooth="yes"/>
      <point x="654" y="379"/>
      <point x="629" y="443"/>
      <point x="546" y="443" type="curve" smooth="yes"/>
      <point x="499" y="443"/>
      <point x="454" y="420"/>
      <point x="415" y="388" type="curve"/>
      <point x="420" y="401"/>
      <point x="426" y="424"/>
      <point x="430" y="433" type="curve"/>
      <point x="370" y="433" type="line"/>
      <point x="355" y="412" type="line"/>
      <point x="339" y="428"/>
      <point x="321" y="444"/>
      <point x="287" y="444" type="curve" smooth="yes"/>
      <point x="119" y="444"/>
      <point x="29" y="289"/>
      <point x="29" y="150" type="curve" smooth="yes"/>
      <point x="29" y="85"/>
      <point x="53" y="-10"/>
      <point x="159" y="-10" type="curve" smooth="yes"/>
      <point x="207" y="-10"/>
      <point x="268" y="17"/>
      <point x="308" y="72" type="curve"/>
      <point x="326" y="0"/>
      <point x="368" y="-10"/>
      <point x="438" y="-10" type="curve" smooth="yes"/>
      <point x="520" y="-10"/>
      <point x="587" y="41"/>
      <point x="620" y="73" type="curve"/>
      <point x="620" y="130" type="line"/>
      <point x="555" y="72"/>
      <point x="508" y="43"/>
      <point x="468" y="43" type="curve" smooth="yes"/>
      <point x="389" y="43"/>
      <point x="382" y="77"/>
      <point x="382" y="156" type="curve" smooth="yes"/>
      <point x="382" y="167"/>
      <point x="388" y="186"/>
      <point x="390" y="198" type="curve"/>
      <point x="497" y="204"/>
      <point x="654" y="255"/>
    </contour>
    <contour>
      <point x="575" y="354" type="curve" smooth="yes"/>
      <point x="575" y="290"/>
      <point x="470" y="239"/>
      <point x="394" y="232" type="curve"/>
      <point x="409" y="300"/>
      <point x="467" y="397"/>
      <point x="525" y="397" type="curve" smooth="yes"/>
      <point x="556" y="397"/>
      <point x="575" y="377"/>
    </contour>
    <contour>
      <point x="333" y="352" type="line"/>
      <point x="287" y="105" type="line"/>
      <point x="271" y="83"/>
      <point x="222" y="48"/>
      <point x="187" y="48" type="curve" smooth="yes"/>
      <point x="131" y="48"/>
      <point x="117" y="105"/>
      <point x="117" y="155" type="curve" smooth="yes"/>
      <point x="117" y="254"/>
      <point x="163" y="401"/>
      <point x="300" y="401" type="curve"/>
    </contour>
  </outline>
</glyph>
<glyph name="eth" format="2">
  <advance width="455"/>
  <unicode hex="00F0"/>
  <anchor x="311" y="676" name="U"/>
  <outline>
    <contour>
      <point x="436" y="591" type="line"/>
      <point x="419" y="629" type="line"/>
      <point x="313" y="586" type="line"/>
      <point x="259" y="663" type="line"/>
      <point x="142" y="645" type="line"/>
      <point x="138" y="619" type="line"/>
      <point x="207" y="601" type="line"/>
      <point x="239" y="557" type="line"/>
      <point x="121" y="511" type="line"/>
      <point x="137" y="471" type="line"/>
      <point x="262" y="522" type="line"/>
      <point x="270" y="505"/>
      <point x="290" y="463"/>
      <point x="303" y="431" type="curve"/>
      <point x="289" y="439"/>
      <point x="275" y="444"/>
      <point x="260" y="444" type="curve" smooth="yes"/>
      <point x="124" y="444"/>
      <point x="29" y="309"/>
      <point x="29" y="161" type="curve" smooth="yes"/>
      <point x="29" y="54"/>
      <point x="94" y="-10"/>
      <point x="188" y="-10" type="curve" smooth="yes"/>
      <point x="361" y="-10"/>
      <point x="420" y="157"/>
      <point x="420" y="264" type="curve" smooth="yes"/>
      <point x="420" y="359"/>
      <point x="377" y="475"/>
      <point x="335" y="550" type="curve"/>
    </contour>
    <contour>
      <point x="333" y="261" type="curve" smooth="yes"/>
      <point x="333" y="155"/>
      <point x="286" y="30"/>
      <point x="199" y="30" type="curve" smooth="yes"/>
      <point x="160" y="30"/>
      <point x="119" y="71"/>
      <point x="119" y="164" type="curve" smooth="yes"/>
      <point x="119" y="267"/>
      <point x="163" y="406"/>
      <point x="269" y="406" type="curve" smooth="yes"/>
      <point x="290" y="406"/>
      <point x="304" y="399"/>
      <point x="315" y="391" type="curve"/>
      <point x="325" y="354"/>
      <point x="333" y="318"/>
    </contour>
  </outline>
</glyph>
<glyph name="divide" format="2">
  <advance width="352"/>
  <unicode hex="00F7"/>
  <outline>
    <contour>
      <point x="232" y="367" type="curve" smooth="yes"/>
      <point x="235" y="393"/>
      <point x="227" y="407"/>
      <point x="205" y="407" type="curve" smooth="yes"/>
      <point x="181" y="407"/>
      <point x="158" y="382"/>
      <point x="154" y="350" type="curve" smooth="yes"/>
      <point x="150" y="324"/>
      <point x="157" y="309"/>
      <point x="180" y="309" type="curve" smooth="yes"/>
      <point x="205" y="309"/>
      <point x="227" y="336"/>
    </contour>
    <contour>
      <point x="201" y="144" type="curve" smooth="yes"/>
      <point x="205" y="170"/>
      <point x="196" y="184"/>
      <point x="175" y="184" type="curve" smooth="yes"/>
      <point x="150" y="184"/>
      <point x="128" y="159"/>
      <point x="123" y="127" type="curve"/>
      <point x="120" y="101"/>
      <point x="127" y="87"/>
      <point x="149" y="87" type="curve" smooth="yes"/>
      <point x="174" y="87"/>
      <point x="197" y="113"/>
    </contour>
    <contour>
      <point x="328" y="264" type="curve"/>
      <point x="318" y="276" type="line"/>
      <point x="48" y="276" type="line"/>
      <point x="42" y="265"/>
      <point x="30" y="242"/>
      <point x="26" y="230" type="curve"/>
      <point x="36" y="217" type="line"/>
      <point x="306" y="217" type="line"/>
      <point x="311" y="227"/>
      <point x="324" y="251"/>
    </contour>
  </outline>
</glyph>
<glyph name="oslash" format="2">
  <advance width="455"/>
  <unicode hex="00F8"/>
  <anchor x="184" y="0" name="H"/>
  <anchor x="282" y="483" name="U"/>
  <outline>
    <contour>
      <point x="427" y="269" type="curve" smooth="yes"/>
      <point x="427" y="332"/>
      <point x="407" y="376"/>
      <point x="377" y="405" type="curve"/>
      <point x="420" y="474" type="line"/>
      <point x="385" y="496" type="line"/>
      <point x="341" y="428" type="line"/>
      <point x="319" y="439"/>
      <point x="293" y="444"/>
      <point x="266" y="444" type="curve" smooth="yes"/>
      <point x="125" y="444"/>
      <point x="27" y="304"/>
      <point x="27" y="159" type="curve" smooth="yes"/>
      <point x="27" y="97"/>
      <point x="49" y="49"/>
      <point x="87" y="20" type="curve"/>
      <point x="39" y="-54" type="line"/>
      <point x="72" y="-77" type="line"/>
      <point x="122" y="0" type="line"/>
      <point x="142" y="-6"/>
      <point x="163" y="-10"/>
      <point x="188" y="-10" type="curve" smooth="yes"/>
      <point x="326" y="-10"/>
      <point x="427" y="124"/>
    </contour>
    <contour>
      <point x="310" y="377" type="curve"/>
      <point x="130" y="89" type="line"/>
      <point x="123" y="108"/>
      <point x="118" y="133"/>
      <point x="118" y="163" type="curve" smooth="yes"/>
      <point x="118" y="280"/>
      <point x="178" y="406"/>
      <point x="256" y="406" type="curve" smooth="yes"/>
      <point x="277" y="406"/>
      <point x="296" y="395"/>
    </contour>
    <contour>
      <point x="336" y="273" type="curve" smooth="yes"/>
      <point x="336" y="167"/>
      <point x="284" y="29"/>
      <point x="199" y="29" type="curve" smooth="yes"/>
      <point x="181" y="29"/>
      <point x="166" y="36"/>
      <point x="152" y="49" type="curve"/>
      <point x="330" y="330" type="line"/>
      <point x="333" y="314"/>
      <point x="336" y="295"/>
    </contour>
  </outline>
</glyph>
<glyph name="thorn" format="2">
  <advance width="444"/>
  <unicode hex="00FE"/>
  <outline>
    <contour>
      <point x="415" y="278" type="curve" smooth="yes"/>
      <point x="415" y="358"/>
      <point x="388" y="444"/>
      <point x="297" y="444" type="curve" smooth="yes"/>
      <point x="247" y="444"/>
      <point x="199" y="408"/>
      <point x="168" y="388" type="curve"/>
      <point x="222" y="663" type="line"/>
      <point x="187" y="663" type="line"/>
      <point x="51" y="636" type="line"/>
      <point x="51" y="609" type="line"/>
      <point x="127" y="601" type="line"/>
      <point x="-18" y="-139" type="line" smooth="yes"/>
      <point x="-19" y="-151"/>
      <point x="-27" y="-156"/>
      <point x="-39" y="-157" type="curve" smooth="yes"/>
      <point x="-86" y="-162" type="line"/>
      <point x="-86" y="-195" type="line"/>
      <point x="140" y="-195" type="line"/>
      <point x="140" y="-162" type="line"/>
      <point x="83" y="-157" type="line" smooth="yes"/>
      <point x="67" y="-155"/>
      <point x="63" y="-149"/>
      <point x="65" y="-139" type="curve" smooth="yes"/>
      <point x="94" y="5" type="line"/>
      <point x="108" y="0"/>
      <point x="131" y="-10"/>
      <point x="158" y="-10" type="curve" smooth="yes"/>
      <point x="304" y="-10"/>
      <point x="415" y="130"/>
    </contour>
    <contour>
      <point x="326" y="274" type="curve" smooth="yes"/>
      <point x="326" y="174"/>
      <point x="274" y="31"/>
      <point x="176" y="31" type="curve" smooth="yes"/>
      <point x="145" y="31"/>
      <point x="115" y="52"/>
      <point x="104" y="58" type="curve"/>
      <point x="158" y="337" type="line"/>
      <point x="167" y="344"/>
      <point x="213" y="389"/>
      <point x="256" y="389" type="curve" smooth="yes"/>
      <point x="304" y="389"/>
      <point x="326" y="327"/>
    </contour>
  </outline>
</glyph>
<glyph name="dotlessi" format="2">
  <advance width="239"/>
  <unicode hex="0131"/>
  <outline>
    <contour>
      <point x="236" y="25" type="curve"/>
      <point x="236" y="60" type="line"/>
      <point x="225" y="56"/>
      <point x="183" y="38"/>
      <point x="163" y="38" type="curve" smooth="yes"/>
      <point x="138" y="38"/>
      <point x="123" y="60"/>
      <point x="127" y="84" type="curve" smooth="yes"/>
      <point x="195" y="444" type="line"/>
      <point x="159" y="444" type="line"/>
      <point x="23" y="416" type="line"/>
      <point x="23" y="390" type="line"/>
      <point x="100" y="382" type="line"/>
      <point x="43" y="77" type="line" smooth="yes"/>
      <point x="35" y="36"/>
      <point x="43" y="-10"/>
      <point x="105" y="-10" type="curve" smooth="yes"/>
      <point x="154" y="-10"/>
      <point x="223" y="19"/>
    </contour>
  </outline>
</glyph>
<glyph name="OE" format="2">
  <advance width="904"/>
  <unicode hex="0152"/>
  <anchor x="533" y="659" name="U"/>
  <outline>
    <contour>
      <point x="924" y="603" type="line"/>
      <point x="569" y="603" type="line"/>
      <point x="554" y="520" type="line"/>
      <point x="522" y="577"/>
      <point x="468" y="618"/>
      <point x="377" y="618" type="curve" smooth="yes"/>
      <point x="177" y="618"/>
      <point x="43" y="422"/>
      <point x="43" y="236" type="curve" smooth="yes"/>
      <point x="43" y="78"/>
      <point x="152" y="-14"/>
      <point x="287" y="-14" type="curve" smooth="yes"/>
      <point x="352" y="-14"/>
      <point x="410" y="10"/>
      <point x="466" y="60" type="curve"/>
      <point x="453" y="0" type="line"/>
      <point x="839" y="0" type="line"/>
      <point x="868" y="149" type="line"/>
      <point x="813" y="149" type="line"/>
      <point x="785" y="62" type="line" smooth="yes"/>
      <point x="782" y="52"/>
      <point x="775" y="44"/>
      <point x="764" y="44" type="curve" smooth="yes"/>
      <point x="551" y="44" type="line"/>
      <point x="600" y="290" type="line"/>
      <point x="719" y="290" type="line" smooth="yes"/>
      <point x="732" y="290"/>
      <point x="738" y="284"/>
      <point x="736" y="272" type="curve" smooth="yes"/>
      <point x="729" y="208" type="line"/>
      <point x="779" y="208" type="line"/>
      <point x="820" y="414" type="line"/>
      <point x="768" y="414" type="line"/>
      <point x="751" y="354" type="line" smooth="yes"/>
      <point x="747" y="341"/>
      <point x="742" y="337"/>
      <point x="729" y="337" type="curve" smooth="yes"/>
      <point x="608" y="337" type="line"/>
      <point x="651" y="558" type="line"/>
      <point x="822" y="558" type="line" smooth="yes"/>
      <point x="836" y="558"/>
      <point x="840" y="554"/>
      <point x="840" y="541" type="curve" smooth="yes"/>
      <point x="840" y="468" type="line"/>
      <point x="898" y="468" type="line"/>
    </contour>
    <contour>
      <point x="519" y="375" type="curve" smooth="yes"/>
      <point x="519" y="216"/>
      <point x="424" y="32"/>
      <point x="294" y="32" type="curve" smooth="yes"/>
      <point x="216" y="32"/>
      <point x="145" y="97"/>
      <point x="145" y="226" type="curve" smooth="yes"/>
      <point x="145" y="389"/>
      <point x="242" y="573"/>
      <point x="369" y="573" type="curve" smooth="yes"/>
      <point x="443" y="573"/>
      <point x="519" y="515"/>
    </contour>
  </outline>
</glyph>
<glyph name="oe" format="2">
  <advance width="672"/>
  <unicode hex="0153"/>
  <anchor x="327" y="0" name="H"/>
  <anchor x="408" y="483" name="U"/>
  <outline>
    <contour>
      <point x="656" y="344" type="curve" smooth="yes"/>
      <point x="656" y="382"/>
      <point x="635" y="444"/>
      <point x="559" y="444" type="curve" smooth="yes"/>
      <point x="500" y="444"/>
      <point x="423" y="406"/>
      <point x="396" y="344" type="curve"/>
      <point x="377" y="399"/>
      <point x="332" y="444"/>
      <point x="266" y="444" type="curve" smooth="yes"/>
      <point x="116" y="444"/>
      <point x="29" y="294"/>
      <point x="29" y="160" type="curve" smooth="yes"/>
      <point x="29" y="54"/>
      <point x="93" y="-10"/>
      <point x="188" y="-10" type="curve" smooth="yes"/>
      <point x="250" y="-10"/>
      <point x="303" y="11"/>
      <point x="343" y="77" type="curve"/>
      <point x="370" y="16"/>
      <point x="413" y="-10"/>
      <point x="464" y="-10" type="curve" smooth="yes"/>
      <point x="542" y="-10"/>
      <point x="596" y="29"/>
      <point x="645" y="73" type="curve"/>
      <point x="645" y="130" type="line"/>
      <point x="595" y="83"/>
      <point x="541" y="43"/>
      <point x="494" y="43" type="curve" smooth="yes"/>
      <point x="444" y="43"/>
      <point x="408" y="87"/>
      <point x="408" y="157" type="curve" smooth="yes"/>
      <point x="408" y="167"/>
      <point x="409" y="186"/>
      <point x="411" y="198" type="curve"/>
      <point x="475" y="202"/>
      <point x="656" y="228"/>
    </contour>
    <contour>
      <point x="577" y="344" type="curve" smooth="yes"/>
      <point x="577" y="270"/>
      <point x="479" y="236"/>
      <point x="415" y="232" type="curve"/>
      <point x="435" y="311"/>
      <point x="479" y="402"/>
      <point x="538" y="402" type="curve" smooth="yes"/>
      <point x="573" y="402"/>
      <point x="577" y="359"/>
    </contour>
    <contour>
      <point x="331" y="263" type="curve" smooth="yes"/>
      <point x="331" y="161"/>
      <point x="284" y="29"/>
      <point x="198" y="29" type="curve" smooth="yes"/>
      <point x="149" y="29"/>
      <point x="121" y="86"/>
      <point x="121" y="163" type="curve" smooth="yes"/>
      <point x="121" y="278"/>
      <point x="175" y="406"/>
      <point x="254" y="406" type="curve" smooth="yes"/>
      <point x="304" y="406"/>
      <point x="331" y="333"/>
    </contour>
  </outline>
</glyph>
<glyph name="glottalstopsmall" format="2">
  <advance width="348"/>
  <unicode hex="0242"/>
  <outline>
    <contour>
      <point x="335" y="341" type="curve" smooth="yes"/>
      <point x="335" y="404"/>
      <point x="290" y="444"/>
      <point x="195" y="444" type="curve" smooth="yes"/>
      <point x="150" y="444"/>
      <point x="54" y="419"/>
      <point x="54" y="360" type="curve" smooth="yes"/>
      <point x="54" y="338"/>
      <point x="75" y="321"/>
      <point x="98" y="321" type="curve" smooth="yes"/>
      <point x="99" y="321"/>
      <point x="111" y="322"/>
      <point x="111" y="322" type="curve"/>
      <point x="155" y="399" type="line"/>
      <point x="165" y="406"/>
      <point x="180" y="406"/>
      <point x="188" y="406" type="curve" smooth="yes"/>
      <point x="228" y="406"/>
      <point x="249" y="382"/>
      <point x="249" y="341" type="curve" smooth="yes"/>
      <point x="249" y="261"/>
      <point x="192" y="216"/>
      <point x="119" y="199" type="curve"/>
      <point x="90" y="52" type="line" smooth="yes"/>
      <point x="89" y="42"/>
      <point x="79" y="37"/>
      <point x="72" y="37" type="curve" smooth="yes"/>
      <point x="18" y="35" type="line"/>
      <point x="18" y="0" type="line"/>
      <point x="242" y="0" type="line"/>
      <point x="242" y="35" type="line"/>
      <point x="186" y="37" type="line" smooth="yes"/>
      <point x="180" y="37"/>
      <point x="171" y="42"/>
      <point x="173" y="52" type="curve" smooth="yes"/>
      <point x="200" y="187" type="line"/>
      <point x="278" y="213"/>
      <point x="335" y="254"/>
    </contour>
  </outline>
</glyph>
<glyph name="LtnGlottalStop" format="2">
  <advance width="395"/>
  <unicode hex="0294"/>
  <outline>
    <contour>
      <point x="419" y="485" type="curve" smooth="yes"/>
      <point x="419" y="565"/>
      <point x="356" y="618"/>
      <point x="261" y="618" type="curve" smooth="yes"/>
      <point x="201" y="618"/>
      <point x="77" y="583"/>
      <point x="77" y="506" type="curve" smooth="yes"/>
      <point x="77" y="486"/>
      <point x="88" y="469"/>
      <point x="116" y="469" type="curve" smooth="yes"/>
      <point x="143" y="469"/>
      <point x="168" y="483"/>
      <point x="168" y="483" type="curve"/>
      <point x="199" y="561" type="line"/>
      <point x="217" y="573"/>
      <point x="236" y="577"/>
      <point x="254" y="577" type="curve" smooth="yes"/>
      <point x="297" y="578"/>
      <point x="327" y="540"/>
      <point x="327" y="476" type="curve" smooth="yes"/>
      <point x="327" y="386"/>
      <point x="240" y="307"/>
      <point x="160" y="282" type="curve"/>
      <point x="115" y="57" type="line"/>
      <point x="114" y="49"/>
      <point x="99" y="40"/>
      <point x="91" y="39" type="curve" smooth="yes"/>
      <point x="42" y="35" type="line"/>
      <point x="42" y="0" type="line"/>
      <point x="262" y="0" type="line"/>
      <point x="262" y="35" type="line"/>
      <point x="214" y="39" type="line" smooth="yes"/>
      <point x="206" y="40"/>
      <point x="197" y="49"/>
      <point x="199" y="57" type="curve" smooth="yes"/>
      <point x="242" y="274" type="line"/>
      <point x="329" y="310"/>
      <point x="419" y="380"/>
    </contour>
  </outline>
</glyph>
<glyph name="apostrophemod" format="2">
  <advance width="228"/>
  <unicode hex="02BC"/>
  <outline>
    <contour>
      <point x="258" y="569" type="curve" smooth="yes"/>
      <point x="258" y="621"/>
      <point x="221" y="635"/>
      <point x="192" y="635" type="curve" smooth="yes"/>
      <point x="152" y="635"/>
      <point x="122" y="598"/>
      <point x="122" y="568" type="curve" smooth="yes"/>
      <point x="122" y="557"/>
      <point x="127" y="547"/>
      <point x="130" y="543" type="curve"/>
      <point x="186" y="543" type="line"/>
      <point x="186" y="482"/>
      <point x="124" y="425"/>
      <point x="83" y="387" type="curve"/>
      <point x="137" y="387" type="line"/>
      <point x="176" y="416"/>
      <point x="258" y="493"/>
    </contour>
  </outline>
</glyph>
<glyph name="ModGlottalStop" format="2">
  <advance width="254"/>
  <unicode hex="02C0"/>
  <outline>
    <contour>
      <point x="310" y="635" type="curve" smooth="yes"/>
      <point x="310" y="682"/>
      <point x="269" y="715"/>
      <point x="206" y="715" type="curve" smooth="yes"/>
      <point x="169" y="715"/>
      <point x="89" y="694"/>
      <point x="89" y="649" type="curve" smooth="yes"/>
      <point x="89" y="636"/>
      <point x="95" y="626"/>
      <point x="114" y="626" type="curve" smooth="yes"/>
      <point x="131" y="626"/>
      <point x="147" y="634"/>
      <point x="147" y="634" type="curve"/>
      <point x="167" y="681" type="line"/>
      <point x="179" y="688"/>
      <point x="191" y="691"/>
      <point x="203" y="691" type="curve" smooth="yes"/>
      <point x="231" y="691"/>
      <point x="250" y="668"/>
      <point x="250" y="631" type="curve" smooth="yes"/>
      <point x="250" y="576"/>
      <point x="194" y="529"/>
      <point x="142" y="513" type="curve"/>
      <point x="113" y="378" type="line" smooth="yes"/>
      <point x="112" y="374"/>
      <point x="103" y="369"/>
      <point x="97" y="368" type="curve" smooth="yes"/>
      <point x="65" y="365" type="line"/>
      <point x="65" y="344" type="line"/>
      <point x="208" y="344" type="line"/>
      <point x="208" y="365" type="line"/>
      <point x="178" y="368" type="line" smooth="yes"/>
      <point x="172" y="369"/>
      <point x="166" y="374"/>
      <point x="167" y="378" type="curve" smooth="yes"/>
      <point x="195" y="508" type="line"/>
      <point x="251" y="530"/>
      <point x="310" y="572"/>
    </contour>
  </outline>
</glyph>
<glyph name="circumflex" format="2">
  <advance width="272"/>
  <unicode hex="02C6"/>
  <outline>
    <contour>
      <point x="314" y="472" type="curve"/>
      <point x="230" y="638" type="line"/>
      <point x="176" y="638" type="line"/>
      <point x="47" y="472" type="line"/>
      <point x="52" y="460"/>
      <point x="62" y="452"/>
      <point x="68" y="448" type="curve"/>
      <point x="192" y="554" type="line"/>
      <point x="288" y="448" type="line"/>
      <point x="297" y="453"/>
      <point x="306" y="460"/>
    </contour>
  </outline>
</glyph>
<glyph name="ModTriangularColon" format="2">
  <advance width="176"/>
  <unicode hex="02D0"/>
  <outline>
    <contour>
      <point x="202" y="432" type="line"/>
      <point x="52" y="432" type="line"/>
      <point x="65" y="284" type="line"/>
      <point x="131" y="284" type="line"/>
    </contour>
    <contour>
      <point x="117" y="0" type="line"/>
      <point x="104" y="148" type="line"/>
      <point x="39" y="148" type="line"/>
      <point x="-32" y="0" type="line"/>
    </contour>
  </outline>
</glyph>
<glyph name="dotaccent" format="2">
  <advance width="101"/>
  <unicode hex="02D9"/>
  <outline>
    <contour>
      <point x="171" y="577" type="curve" smooth="yes"/>
      <point x="171" y="605"/>
      <point x="149" y="628"/>
      <point x="121" y="628" type="curve" smooth="yes"/>
      <point x="92" y="628"/>
      <point x="71" y="604"/>
      <point x="71" y="577" type="curve" smooth="yes"/>
      <point x="71" y="548"/>
      <point x="93" y="526"/>
      <point x="121" y="526" type="curve" smooth="yes"/>
      <point x="149" y="526"/>
      <point x="171" y="548"/>
    </contour>
  </outline>
</glyph>
